<?xml version="1.0" encoding="UTF-8"?>
<svg width="72px" height="72px" viewBox="0 0 72 72" version="1.1" xmlns="http://www.w3.org/2000/svg" xmlns:xlink="http://www.w3.org/1999/xlink">
    <!-- Generator: Sketch 57.1 (83088) - https://sketch.com -->
    <title>lv1: ic / sns / raddit</title>
    <desc>Created with Sketch.</desc>
    <g id="lv1:-ic-/-sns-/-raddit" stroke="none" stroke-width="1" fill="none" fill-rule="evenodd">
        <g id="Group" transform="translate(8.000000, 8.000000)" fill-rule="nonzero">
            <circle id="Oval" fill="#FF4500" cx="27.9674419" cy="27.9674419" r="27.8372093"></circle>
            <path d="M46.5255814,27.9674419 C46.5255814,25.7209302 44.7023256,23.8976744 42.455814,23.8976744 C41.3488372,23.8976744 40.372093,24.3209302 39.655814,25.0372093 C36.8883721,23.0511628 33.0465116,21.7488372 28.8139535,21.5860465 L30.6697674,12.8930233 L36.6930233,14.1627907 C36.7581395,15.6930233 38.027907,16.9302326 39.5906977,16.9302326 C41.1860465,16.9302326 42.4883721,15.627907 42.4883721,14.0325581 C42.4883721,12.4372093 41.1860465,11.1348837 39.5906977,11.1348837 C38.4511628,11.1348837 37.4744186,11.7860465 37.0186047,12.7627907 L30.2790698,11.3302326 C30.0837209,11.2976744 29.8883721,11.3302326 29.7255814,11.427907 C29.5627907,11.5255814 29.4651163,11.6883721 29.4,11.8837209 L27.3488372,21.5860465 C23.0186047,21.7162791 19.144186,22.9860465 16.344186,25.0372093 C15.627907,24.3534884 14.6186047,23.8976744 13.544186,23.8976744 C11.2976744,23.8976744 9.4744186,25.7209302 9.4744186,27.9674419 C9.4744186,29.627907 10.4511628,31.027907 11.8837209,31.6790698 C11.8186047,32.0697674 11.7860465,32.4930233 11.7860465,32.9162791 C11.7860465,39.1674419 19.0465116,44.2139535 28.0325581,44.2139535 C37.0186047,44.2139535 44.2790698,39.1674419 44.2790698,32.9162791 C44.2790698,32.4930233 44.2465116,32.1023256 44.1813953,31.7116279 C45.5162791,31.0604651 46.5255814,29.627907 46.5255814,27.9674419 Z M18.6883721,30.8651163 C18.6883721,29.2697674 19.9906977,27.9674419 21.5860465,27.9674419 C23.1813953,27.9674419 24.4837209,29.2697674 24.4837209,30.8651163 C24.4837209,32.4604651 23.1813953,33.7627907 21.5860465,33.7627907 C19.9906977,33.7627907 18.6883721,32.4604651 18.6883721,30.8651163 Z M34.8697674,38.5162791 C32.8837209,40.5023256 29.1069767,40.6325581 28,40.6325581 C26.8930233,40.6325581 23.0837209,40.4697674 21.1302326,38.5162791 C20.8372093,38.2232558 20.8372093,37.7348837 21.1302326,37.4418605 C21.4232558,37.1488372 21.9116279,37.1488372 22.2046512,37.4418605 C23.4418605,38.6790698 26.1116279,39.1348837 28.0325581,39.1348837 C29.9534884,39.1348837 32.5906977,38.6790698 33.8604651,37.4418605 C34.1534884,37.1488372 34.6418605,37.1488372 34.9348837,37.4418605 C35.1627907,37.7674419 35.1627907,38.2232558 34.8697674,38.5162791 Z M34.3488372,33.7627907 C32.7534884,33.7627907 31.4511628,32.4604651 31.4511628,30.8651163 C31.4511628,29.2697674 32.7534884,27.9674419 34.3488372,27.9674419 C35.944186,27.9674419 37.2465116,29.2697674 37.2465116,30.8651163 C37.2465116,32.4604651 35.944186,33.7627907 34.3488372,33.7627907 Z" id="Shape" fill="#FFFFFF"></path>
        </g>
    </g>
</svg>