<?xml version="1.0" encoding="UTF-8"?>
<svg width="72px" height="72px" viewBox="0 0 72 72" version="1.1" xmlns="http://www.w3.org/2000/svg" xmlns:xlink="http://www.w3.org/1999/xlink">
    <!-- Generator: Sketch 57.1 (83088) - https://sketch.com -->
    <title>lv1: ic / sns / slack</title>
    <desc>Created with Sketch.</desc>
    <g id="lv1:-ic-/-sns-/-slack" stroke="none" stroke-width="1" fill="none" fill-rule="evenodd">
        <g id="Group" transform="translate(8.000000, 8.000000)" fill-rule="nonzero">
            <path d="M11.6516129,35.0451613 C11.6516129,38.2516129 9.03225806,40.8709677 5.82580645,40.8709677 C2.61935484,40.8709677 5.32907052e-15,38.2516129 5.32907052e-15,35.0451613 C5.32907052e-15,31.8387097 2.61935484,29.2193548 5.82580645,29.2193548 L11.6516129,29.2193548 L11.6516129,35.0451613 Z" id="Path" fill="#E01E5A"></path>
            <path d="M14.5870968,35.0451613 C14.5870968,31.8387097 17.2064516,29.2193548 20.4129032,29.2193548 C23.6193548,29.2193548 26.2387097,31.8387097 26.2387097,35.0451613 L26.2387097,49.6322581 C26.2387097,52.8387097 23.6193548,55.4580645 20.4129032,55.4580645 C17.2064516,55.4580645 14.5870968,52.8387097 14.5870968,49.6322581 L14.5870968,35.0451613 Z" id="Path" fill="#E01E5A"></path>
            <path d="M20.4129032,11.6516129 C17.2064516,11.6516129 14.5870968,9.03225806 14.5870968,5.82580645 C14.5870968,2.61935484 17.2064516,5.32907052e-15 20.4129032,5.32907052e-15 C23.6193548,5.32907052e-15 26.2387097,2.61935484 26.2387097,5.82580645 L26.2387097,11.6516129 L20.4129032,11.6516129 Z" id="Path" fill="#36C5F0"></path>
            <path d="M20.4129032,14.5870968 C23.6193548,14.5870968 26.2387097,17.2064516 26.2387097,20.4129032 C26.2387097,23.6193548 23.6193548,26.2387097 20.4129032,26.2387097 L5.82580645,26.2387097 C2.61935484,26.2387097 7.10542736e-15,23.6193548 7.10542736e-15,20.4129032 C7.10542736e-15,17.2064516 2.61935484,14.5870968 5.82580645,14.5870968 L20.4129032,14.5870968 Z" id="Path" fill="#36C5F0"></path>
            <path d="M43.8064516,20.4129032 C43.8064516,17.2064516 46.4258065,14.5870968 49.6322581,14.5870968 C52.8387097,14.5870968 55.4580645,17.2064516 55.4580645,20.4129032 C55.4580645,23.6193548 52.8387097,26.2387097 49.6322581,26.2387097 L43.8064516,26.2387097 L43.8064516,20.4129032 Z" id="Path" fill="#2EB67D"></path>
            <path d="M40.8709677,20.4129032 C40.8709677,23.6193548 38.2516129,26.2387097 35.0451613,26.2387097 C31.8387097,26.2387097 29.2193548,23.6193548 29.2193548,20.4129032 L29.2193548,5.82580645 C29.2193548,2.61935484 31.8387097,7.10542736e-15 35.0451613,7.10542736e-15 C38.2516129,7.10542736e-15 40.8709677,2.61935484 40.8709677,5.82580645 L40.8709677,20.4129032 Z" id="Path" fill="#2EB67D"></path>
            <path d="M35.0451613,43.8064516 C38.2516129,43.8064516 40.8709677,46.4258065 40.8709677,49.6322581 C40.8709677,52.8387097 38.2516129,55.4580645 35.0451613,55.4580645 C31.8387097,55.4580645 29.2193548,52.8387097 29.2193548,49.6322581 L29.2193548,43.8064516 L35.0451613,43.8064516 Z" id="Path" fill="#ECB22E"></path>
            <path d="M35.0451613,40.8709677 C31.8387097,40.8709677 29.2193548,38.2516129 29.2193548,35.0451613 C29.2193548,31.8387097 31.8387097,29.2193548 35.0451613,29.2193548 L49.6322581,29.2193548 C52.8387097,29.2193548 55.4580645,31.8387097 55.4580645,35.0451613 C55.4580645,38.2516129 52.8387097,40.8709677 49.6322581,40.8709677 L35.0451613,40.8709677 Z" id="Path" fill="#ECB22E"></path>
        </g>
    </g>
</svg>