<?xml version="1.0" encoding="UTF-8"?>
<svg width="72px" height="72px" viewBox="0 0 72 72" version="1.1" xmlns="http://www.w3.org/2000/svg" xmlns:xlink="http://www.w3.org/1999/xlink">
    <!-- Generator: Sketch 57.1 (83088) - https://sketch.com -->
    <title>lv1: ic / sns / twitter</title>
    <desc>Created with Sketch.</desc>
    <g id="lv1:-ic-/-sns-/-twitter" stroke="none" stroke-width="1" fill="none" fill-rule="evenodd">
        <path d="M25.61088,59 C46.74304,59 58.30144,41.3010462 58.30144,25.9525931 C58.30144,25.4498849 58.30144,24.9494411 58.26784,24.4512617 C60.5164223,22.807068 62.4574363,20.7712547 64,18.4391427 C61.9030891,19.3784412 59.6786576,19.9944329 57.40096,20.2665551 C59.7994265,18.815001 61.5945167,16.5319581 62.45216,13.8423059 C60.1968328,15.1952145 57.7294473,16.1486771 55.15648,16.6615481 C51.5950654,12.8332533 45.9360114,11.8962647 41.3525904,14.3759917 C36.7691694,16.8557187 34.401256,22.1354653 35.57664,27.2546528 C26.3386465,26.7864764 17.7316257,22.3754916 11.8976,15.1194566 C8.84811497,20.4265267 10.4057329,27.2158389 15.45472,30.6241568 C13.6263003,30.5693742 11.8377458,30.0707547 10.24,29.1703789 C10.24,29.2179323 10.24,29.2677503 10.24,29.3175682 C10.2414966,34.8464374 14.0967233,39.6084482 19.4576,40.7032309 C17.7661079,41.1695722 15.9913805,41.2377418 14.26976,40.9025027 C15.7749234,45.6338996 20.088327,48.8751474 25.00384,48.9684793 C20.9354065,52.2008299 15.9095733,53.9555439 10.73504,53.9502729 C9.82090399,53.9484988 8.90765711,53.8925463 8,53.7827035 C13.2542245,57.1913294 19.367806,58.999359 25.61088,58.9909422" id="Path" fill="#1DA1F2" fill-rule="nonzero"></path>
    </g>
</svg>