<?xml version="1.0" encoding="UTF-8"?>
<svg width="48px" height="48px" viewBox="0 0 48 48" version="1.1" xmlns="http://www.w3.org/2000/svg" xmlns:xlink="http://www.w3.org/1999/xlink">
    <!-- Generator: Sketch 57.1 (83088) - https://sketch.com -->
    <title>add-round</title>
    <desc>Created with Sketch.</desc>
    <g id="Page-1" stroke="none" stroke-width="1" fill="none" fill-rule="evenodd">
        <g id="Desktop" transform="translate(-130.000000, -300.000000)" fill="#000000">
            <path d="M154,300 C167.2336,300 178,310.7664 178,324 C178,337.2336 167.2336,348 154,348 C140.7664,348 130,337.2336 130,324 C130,310.7664 140.7664,300 154,300 Z M154,304.8 C143.4136,304.8 134.8,313.4136 134.8,324 C134.8,334.5864 143.4136,343.2 154,343.2 C164.5864,343.2 173.2,334.5864 173.2,324 C173.2,313.4136 164.5864,304.8 154,304.8 Z M153.99892,310.21668 C155.32372,310.21668 156.39892,311.29188 156.39892,312.61668 L156.398,321.6 L165.38248,321.6 C166.70728,321.6 167.78248,322.6752 167.78248,324 C167.78248,325.3248 166.70728,326.4 165.38248,326.4 L156.398,326.4 L156.39892,335.38308 C156.39892,336.70788 155.32372,337.78308 153.99892,337.78308 C152.67412,337.78308 151.59892,336.70788 151.59892,335.38308 L151.598,326.4 L142.61608,326.4 C141.29128,326.4 140.21608,325.3248 140.21608,324 C140.21608,322.6752 141.29128,321.6 142.61608,321.6 L151.598,321.6 L151.59892,312.61668 C151.59892,311.29188 152.67412,310.21668 153.99892,310.21668 Z" id="add-round"></path>
        </g>
    </g>
</svg>