<?xml version="1.0" encoding="UTF-8"?>
<svg width="48px" height="48px" viewBox="0 0 48 48" version="1.1" xmlns="http://www.w3.org/2000/svg" xmlns:xlink="http://www.w3.org/1999/xlink">
    <!-- Generator: Sketch 57.1 (83088) - https://sketch.com -->
    <title>alert</title>
    <desc>Created with Sketch.</desc>
    <defs>
        <path d="M54,30 C67.2551707,30 78,40.7448293 78,54 C78,67.2551707 67.2551707,78 54,78 C40.7448293,78 30,67.2551707 30,54 C30,40.7448293 40.7448293,30 54,30 Z M55.104,60.624 L52.896,60.624 C52.286592,60.624 51.792,61.118592 51.792,61.728 L51.792,63.936 C51.792,64.545408 52.286592,65.04 52.896,65.04 L55.104,65.04 C55.713408,65.04 56.208,64.545408 56.208,63.936 L56.208,61.728 C56.208,61.118592 55.713408,60.624 55.104,60.624 Z M54,42.96 C52.781184,42.96 51.792,43.949184 51.792,45.168 L51.792,54 C51.792,55.165824 52.6970379,56.1215499 53.8423887,56.2024527 L54,56.208 C55.218816,56.208 56.208,55.218816 56.208,54 L56.208,45.168 C56.208,44.002176 55.3029621,43.0464501 54.1576113,42.9655473 L54,42.96 Z" id="path-1"></path>
    </defs>
    <g id="Page-1" stroke="none" stroke-width="1" fill="none" fill-rule="evenodd">
        <g id="Desktop" transform="translate(-30.000000, -30.000000)">
            <mask id="mask-2" fill="white">
                <use xlink:href="#path-1"></use>
            </mask>
            <use id="alert" fill="#000000" xlink:href="#path-1"></use>
        </g>
    </g>
</svg>