<?xml version="1.0" encoding="UTF-8"?>
<svg width="32px" height="34px" viewBox="0 0 32 34" version="1.1" xmlns="http://www.w3.org/2000/svg" xmlns:xlink="http://www.w3.org/1999/xlink">
    <!-- Generator: Sketch 57.1 (83088) - https://sketch.com -->
    <title>arrow-again</title>
    <desc>Created with Sketch.</desc>
    <g id="Page-1" stroke="none" stroke-width="1" fill="none" fill-rule="evenodd">
        <g id="Desktop" transform="translate(-370.000000, -398.000000)" fill="#000000">
            <path d="M397.643906,399.790623 L398.414906,407.069623 C398.531906,408.167623 397.735906,409.152623 396.636906,409.268623 L389.357906,410.041623 C389.286906,410.049623 389.214906,410.052623 389.143906,410.052623 C388.133906,410.052623 387.266906,409.290623 387.157906,408.263623 C387.040906,407.165623 387.836906,406.180623 388.935906,406.063623 L391.467729,405.794637 C390.226621,405.119387 388.863876,404.67271 387.420506,404.475423 C384.286506,404.045423 381.185506,404.863423 378.672506,406.772423 C376.158506,408.681423 374.539506,411.455423 374.111506,414.582423 C373.684506,417.709423 374.499506,420.815423 376.408506,423.329423 C378.317506,425.843423 381.091506,427.462423 384.218506,427.890423 C390.678506,428.770423 396.644506,424.240423 397.527506,417.783423 C397.760506,416.075423 397.626506,414.380423 397.129506,412.748423 C396.807506,411.691423 397.402506,410.574423 398.459506,410.252423 C399.515506,409.931423 400.633506,410.525423 400.955506,411.582423 C401.622506,413.771423 401.802506,416.039423 401.490506,418.324423 C400.407506,426.242423 393.607506,432.000423 385.830506,432.000423 C385.119506,432.000423 384.400506,431.952423 383.677506,431.853423 C379.490506,431.281423 375.778506,429.113423 373.223506,425.749423 C370.668506,422.384423 369.576506,418.226423 370.148506,414.040423 C370.721506,409.854423 372.889506,406.142423 376.253506,403.586423 C379.616506,401.031423 383.779506,399.937423 387.961506,400.512423 C390.075141,400.800998 392.103815,401.519006 393.918871,402.599892 L393.664906,400.212623 C393.548906,399.113623 394.344906,398.128623 395.443906,398.012623 C396.535906,397.888623 397.526906,398.692623 397.643906,399.790623 Z" id="arrow-again"></path>
        </g>
    </g>
</svg>