<?xml version="1.0" encoding="UTF-8"?>
<svg width="48px" height="40px" viewBox="0 0 48 40" version="1.1" xmlns="http://www.w3.org/2000/svg" xmlns:xlink="http://www.w3.org/1999/xlink">
    <!-- Generator: Sketch 57.1 (83088) - https://sketch.com -->
    <title>book</title>
    <desc>Created with Sketch.</desc>
    <g id="Page-1" stroke="none" stroke-width="1" fill="none" fill-rule="evenodd">
        <g id="Desktop" transform="translate(-306.000000, -303.000000)" fill="#000000">
            <path d="M329.810086,342.873359 L330,342.8808 C329.911813,342.8808 329.82365,342.876003 329.735938,342.866399 C329.692208,342.861596 329.648562,342.855604 329.605083,342.848415 C329.584538,342.845046 329.563857,342.841351 329.543218,342.837385 C329.504162,342.829839 329.465557,342.821421 329.427143,342.812044 C329.394736,342.804188 329.361929,342.79545 329.329286,342.786005 C329.295876,342.776286 329.262597,342.765864 329.229515,342.754701 C329.205547,342.746661 329.182114,342.738338 329.158789,342.729639 C329.119005,342.714759 329.079229,342.698704 329.039821,342.681538 C329.015003,342.670755 328.990327,342.659494 328.96581,342.647792 C328.936197,342.633658 328.906865,342.618918 328.877782,342.603537 C328.846868,342.587144 328.815945,342.569883 328.785336,342.551882 C328.755307,342.534339 328.725958,342.516232 328.696924,342.497432 C328.670197,342.479904 328.643576,342.461863 328.617246,342.443224 C328.581337,342.418174 328.545798,342.391582 328.510849,342.363874 C328.495799,342.351389 328.480603,342.339003 328.465526,342.326401 C328.418742,342.288046 328.373499,342.247396 328.329474,342.204722 C328.32494,342.1992 328.320063,342.194412 328.3152,342.1896 C327.054,340.9452 323.7456,339.69 319.2,339.69 C316.1088,339.69 313.2276,340.2888 311.2992,341.3328 C310.1736,341.9424 308.85,341.9124 307.7556,341.2584 C306.6564,340.6032 306,339.4464 306,338.1648 L306,310.5096 C306,309.204 306.5304,307.944 307.458,307.056 C310.0992,304.5156 314.4888,303 319.2,303 C321.3672,303 323.4456,303.3072 325.3788,303.9156 C326.6436,304.314 327.3456,305.6616 326.9484,306.9264 C326.5488,308.1912 325.2048,308.8932 323.9376,308.496 C322.4916,308.04 320.8536,307.8 319.2,307.8 C315.7512,307.8 312.5256,308.8404 310.782,310.5156 L310.7988,336.2976 C313.188,335.3832 316.0992,334.89 319.2,334.89 C323.440339,334.89 327.364187,335.851111 330.000471,337.472719 C332.635525,335.851675 336.559164,334.89 340.8,334.89 C343.8984,334.89 346.8084,335.3832 349.2,336.2976 L349.2,310.5096 C347.4744,308.8404 344.2488,307.8 340.8,307.8 C336.888039,307.8 333.899507,309.083744 332.399713,310.503052 L332.4,332.2074 C332.4,333.477 331.412533,334.517367 330.16424,334.60186 L330,334.6074 C328.6752,334.6074 327.6,333.5322 327.6,332.2074 L327.6,309.5826 L327.599926,309.565262 C327.600192,309.52489 327.601472,309.484499 327.603772,309.44413 L327.6,309.5826 C327.6,309.511629 327.603086,309.441373 327.60913,309.371962 C327.611603,309.34175 327.61486,309.311141 327.61871,309.280575 C327.621809,309.257093 327.625007,309.234361 327.628522,309.211734 C327.632451,309.185594 327.637119,309.158564 327.642258,309.131592 C327.6484,309.099978 327.654873,309.069344 327.661925,309.038932 C327.666161,309.020211 327.670819,309.001182 327.675716,308.982193 C327.684205,308.949659 327.693287,308.917298 327.703023,308.88522 C327.708983,308.865236 327.715343,308.845228 327.721977,308.825281 C327.731388,308.797312 327.741188,308.769582 327.751479,308.742091 C327.759672,308.719891 327.768276,308.697902 327.777223,308.676006 C327.812662,308.589545 327.853043,308.505306 327.89801,308.42395 C327.904868,308.411348 327.912187,308.398391 327.919638,308.385482 C327.932778,308.362885 327.946086,308.340667 327.959738,308.318686 C328.002768,308.249243 328.050165,308.1809 328.1016,308.1144 C330.5412,304.9596 335.4072,303 340.8,303 C345.5112,303 349.9008,304.5156 352.5432,307.056 C353.4696,307.944 354,309.204 354,310.5096 L354,338.1648 C354,339.4476 353.3436,340.6032 352.2432,341.2584 C351.1488,341.9112 349.824,341.94 348.702,341.334 C346.7712,340.2888 343.8912,339.69 340.8,339.69 C336.2532,339.69 332.946,340.9452 331.686,342.1896 L331.596,342.27 L331.563397,342.301391 C331.559813,342.304474 331.556223,342.307545 331.552625,342.310604 L331.686,342.1896 C331.610336,342.264292 331.530919,342.33293 331.44836,342.395515 C331.429799,342.408484 331.411661,342.421845 331.393383,342.434918 C331.361534,342.458726 331.328628,342.48101 331.295307,342.502388 C331.268303,342.518815 331.241306,342.535412 331.214062,342.551427 C331.186309,342.568529 331.157987,342.584371 331.129422,342.599594 C331.100483,342.614345 331.071451,342.629092 331.042192,342.643211 C331.007797,342.66036 330.973034,342.67607 330.937988,342.69091 C330.915728,342.699894 330.893354,342.708994 330.870874,342.717742 C330.83608,342.731641 330.800943,342.744336 330.765583,342.756185 C330.726806,342.768923 330.687914,342.780888 330.648794,342.791842 C330.627988,342.797845 330.607265,342.803333 330.586485,342.808539 C330.539223,342.820268 330.491259,342.830765 330.443064,342.839777 C330.426937,342.84286 330.410898,342.845684 330.394838,342.848344 C330.353426,342.855162 330.311782,342.860957 330.27003,342.865657 C330.242689,342.868745 330.215873,342.871299 330.189028,342.873403 C330.126738,342.878308 330.063381,342.8808 330,342.8808 C329.936619,342.8808 329.873262,342.87832 329.810086,342.873359 Z" id="book"></path>
        </g>
    </g>
</svg>