<?xml version="1.0" encoding="UTF-8"?>
<svg width="39px" height="39px" viewBox="0 0 39 39" version="1.1" xmlns="http://www.w3.org/2000/svg" xmlns:xlink="http://www.w3.org/1999/xlink">
    <!-- Generator: Sketch 57.1 (83088) - https://sketch.com -->
    <title>close</title>
    <desc>Created with Sketch.</desc>
    <g id="Page-1" stroke="none" stroke-width="1" fill="none" fill-rule="evenodd">
        <g id="Desktop" transform="translate(-289.000000, -393.000000)" fill="#000000">
            <path d="M327.41375,393.58575 C328.19475,394.36675 328.19475,395.63275 327.41375,396.41375 L311.328,412.499 L327.41475,428.58525 C328.19575,429.36625 328.19575,430.63225 327.41475,431.41325 C327.067194,431.760806 326.624824,431.953497 326.171216,431.992026 L326.00075,431.99925 C325.48875,431.99925 324.97775,431.80425 324.58675,431.41325 L308.499,415.327 L292.41375,431.41375 C292.066194,431.761306 291.623824,431.953997 291.170216,431.992526 L290.99975,431.99975 L290.99975,431.99975 C290.48775,431.99975 289.97675,431.80475 289.58575,431.41375 C288.80475,430.63275 288.80475,429.36675 289.58575,428.58575 L305.671,412.499 L289.58675,396.41425 C288.80575,395.63325 288.80575,394.36625 289.58675,393.58525 C289.956697,393.215303 290.435467,393.020593 290.919965,393.001123 L291.081535,393.001123 C291.566033,393.020593 292.044803,393.215303 292.41475,393.58525 L308.5,409.671 L324.58575,393.58575 C324.996803,393.174697 325.542204,392.979988 326.080535,393.001623 L326.241681,393.014603 C326.670082,393.066526 327.084908,393.256908 327.41375,393.58575 Z" id="close"></path>
        </g>
    </g>
</svg>