<?xml version="1.0" encoding="UTF-8"?>
<svg width="72px" height="72px" viewBox="0 0 72 72" version="1.1" xmlns="http://www.w3.org/2000/svg" xmlns:xlink="http://www.w3.org/1999/xlink">
    <!-- Generator: Sketch 57.1 (83088) - https://sketch.com -->
    <title>lv1: ic / edit view</title>
    <desc>Created with Sketch.</desc>
    <g id="lv1:-ic-/-edit-view" stroke="none" stroke-width="1" fill="none" fill-rule="evenodd">
        <rect id="Rectangle" stroke="#2C3149" stroke-width="4" stroke-linejoin="round" x="9" y="16" width="54" height="40"></rect>
        <path d="M28.9960938,41.890625 L27.3525391,41.890625 C26.0742188,41.890625 25.3105469,41.1767578 25.3105469,40.0478516 C25.3105469,38.6367188 26.2402344,37.7236328 27.8007812,37.7236328 L29.8261719,37.7236328 L30.5400391,34.0546875 L28.8466797,34.0546875 C27.5849609,34.0546875 26.8046875,33.3076172 26.8046875,32.1953125 C26.8046875,30.7675781 27.7509766,29.8544922 29.3115234,29.8544922 L31.3535156,29.8544922 L32.2001953,25.7373047 C32.4658203,24.3261719 33.2626953,23.6621094 34.5908203,23.6621094 C35.8193359,23.6621094 36.5498047,24.3759766 36.5498047,25.4716797 C36.5498047,25.6875 36.5166016,26.0029297 36.4667969,26.21875 L35.7529297,29.8544922 L39.4716797,29.8544922 L40.3017578,25.7373047 C40.5673828,24.3261719 41.3642578,23.6621094 42.6923828,23.6621094 C43.9208984,23.6621094 44.6347656,24.3759766 44.6347656,25.4716797 C44.6347656,25.6875 44.6181641,26.0029297 44.5683594,26.21875 L43.8378906,29.8544922 L45.5478516,29.8544922 C46.8261719,29.8544922 47.5898438,30.5683594 47.5898438,31.6972656 C47.5898438,33.1083984 46.6601562,34.0214844 45.0996094,34.0214844 L43.0078125,34.0214844 L42.2939453,37.6904297 L44.0371094,37.6904297 C45.2988281,37.6904297 46.0791016,38.4208984 46.0791016,39.5498047 C46.0791016,40.9775391 45.1328125,41.890625 43.5722656,41.890625 L41.4804688,41.890625 L40.5839844,46.3066406 C40.3183594,47.7177734 39.5214844,48.3818359 38.1933594,48.3818359 C36.9648438,48.3818359 36.2509766,47.6679688 36.2509766,46.5722656 C36.2509766,46.3564453 36.2675781,46.0410156 36.3173828,45.8251953 L37.1142578,41.890625 L33.3623047,41.890625 L32.4824219,46.3232422 C32.2167969,47.7177734 31.4199219,48.3818359 30.0917969,48.3818359 C28.8632812,48.3818359 28.1494141,47.6679688 28.1494141,46.5722656 C28.1494141,46.3564453 28.1660156,46.0410156 28.2158203,45.8251953 L28.9960938,41.890625 Z M33.7441406,38.1386719 L38.1601562,38.1386719 L39.0898438,33.5898438 L34.6572266,33.5898438 L33.7441406,38.1386719 Z" id="#" fill="#2C3149" fill-rule="nonzero"></path>
    </g>
</svg>