<?xml version="1.0" encoding="UTF-8"?>
<svg width="48px" height="33px" viewBox="0 0 48 33" version="1.1" xmlns="http://www.w3.org/2000/svg" xmlns:xlink="http://www.w3.org/1999/xlink">
    <!-- Generator: Sketch 57.1 (83088) - https://sketch.com -->
    <title>eye</title>
    <desc>Created with Sketch.</desc>
    <g id="Page-1" stroke="none" stroke-width="1" fill="none" fill-rule="evenodd">
        <g id="Desktop" transform="translate(-154.000000, -178.000000)" fill="#000000" fill-rule="nonzero">
            <path d="M154.253,193.403 L154.254,193.403 L154.254,193.402 L154.253,193.403 L154.264428,193.379316 C154.282091,193.343863 154.300603,193.308798 154.319953,193.274155 C159.198637,183.850612 168.264402,178 178,178 C187.620465,178 196.585851,183.711658 201.503569,192.937817 L201.680047,193.274155 C201.718747,193.343442 201.754096,193.414414 201.786006,193.486806 C201.790938,193.500199 201.796446,193.512903 201.80184,193.52563 C201.819669,193.56583 201.835814,193.607167 201.850855,193.648888 C201.854285,193.659842 201.857959,193.670181 201.861562,193.680531 C201.874858,193.717636 201.886997,193.755627 201.89823,193.793886 C201.903452,193.812266 201.908552,193.830279 201.913441,193.848317 C201.923321,193.884575 201.932347,193.921341 201.940542,193.958303 L201.950411,194.004475 L201.950411,194.004475 C201.956528,194.03517 201.962136,194.065847 201.967173,194.096634 C201.970452,194.115787 201.973393,194.135146 201.976101,194.154513 L201.981245,194.194755 L201.986622,194.240703 C201.99566,194.327294 202.000065,194.413928 202.000065,194.50027 C202.000065,194.586744 201.995625,194.673043 201.986622,194.759297 C201.984858,194.774796 201.983121,194.790032 201.981245,194.805245 L201.976101,194.845487 C201.973393,194.864854 201.970452,194.884213 201.967279,194.903561 C201.962136,194.934153 201.956528,194.96483 201.950355,194.995381 L201.940603,195.041616 L201.940603,195.041616 C201.932347,195.078659 201.923321,195.115425 201.913473,195.151963 C201.908552,195.169721 201.903452,195.187734 201.898139,195.205719 L201.880691,195.263248 L201.880691,195.263248 L201.861824,195.320054 C201.857959,195.329819 201.854285,195.340158 201.850537,195.350485 C201.835814,195.392833 201.819669,195.43417 201.802436,195.475074 C201.796446,195.487097 201.790938,195.499801 201.785317,195.51248 C201.767852,195.554378 201.748585,195.595103 201.728221,195.63532 C201.725134,195.638773 201.723097,195.642753 201.721049,195.64673 C196.853328,205.116573 187.764054,211 178,211 C168.237138,211 159.147864,205.116573 154.278951,195.64673 L154.271779,195.63532 L154.213994,195.513194 L154.213994,195.513194 L154.278951,195.64673 C154.249646,195.589824 154.222728,195.532334 154.19816,195.47437 C154.180331,195.43417 154.164186,195.392833 154.149145,195.351112 C154.145715,195.340158 154.142041,195.329819 154.138438,195.319469 C154.125142,195.282364 154.113003,195.244373 154.10177,195.206114 C154.096548,195.187734 154.091448,195.169721 154.086559,195.151683 C154.076679,195.115425 154.067653,195.078659 154.059458,195.041697 L154.049589,194.995525 L154.049589,194.995525 C154.043472,194.96483 154.037864,194.934153 154.032827,194.903366 C154.029548,194.884213 154.026607,194.864854 154.023899,194.845487 L154.018755,194.805245 C154.016879,194.790032 154.015142,194.774796 154.013544,194.75954 C154.009756,194.724598 154.006872,194.689891 154.004719,194.6552 C154.003597,194.635773 154.00258,194.61574 154.001803,194.595685 L154.000579,194.557161 L154.000579,194.557161 L154,194.481155 C154,194.455642 154.00076,194.430105 154.00173,194.404553 C154.00258,194.38426 154.003597,194.364227 154.004854,194.344222 C154.006872,194.310109 154.009756,194.275402 154.013378,194.240703 C154.015142,194.225204 154.016879,194.209968 154.018755,194.194755 L154.023899,194.154513 C154.026607,194.135146 154.029548,194.115787 154.032721,194.096439 C154.037864,194.065847 154.043472,194.03517 154.049645,194.004619 L154.059397,193.958384 L154.059397,193.958384 C154.067653,193.921341 154.076679,193.884575 154.086527,193.848037 C154.091448,193.830279 154.096548,193.812266 154.101861,193.794281 L154.119309,193.736752 L154.119309,193.736752 L154.138176,193.679946 C154.142041,193.670181 154.145715,193.659842 154.149463,193.649515 C154.164186,193.607167 154.180331,193.56583 154.197564,193.524926 L154.236705,193.438965 L154.236705,193.438965 L154.253,193.403 Z M178,183.046321 C170.548664,183.046321 163.537267,187.402769 159.428158,194.500228 C163.53793,201.597643 170.549016,205.953679 178,205.953679 C185.452116,205.953679 192.462183,201.597643 196.571267,194.500779 C192.462846,187.402769 185.452469,183.046321 178,183.046321 Z M178,186.187543 C182.616168,186.187543 186.370382,189.916042 186.370382,194.499408 C186.370382,199.083958 182.616168,202.812457 178,202.812457 C173.385024,202.812457 169.629618,199.083958 169.629618,194.499408 C169.629618,189.916042 173.385024,186.187543 178,186.187543 Z M178,190.923648 C176.015,190.923648 174.398387,192.528004 174.398387,194.499408 C174.398387,196.471996 176.015,198.076352 178,198.076352 C179.986192,198.076352 181.601613,196.471996 181.601613,194.499408 C181.601613,192.528004 179.986192,190.923648 178,190.923648 Z" id="eye"></path>
        </g>
    </g>
</svg>