<?xml version="1.0" encoding="UTF-8"?>
<svg width="72px" height="72px" viewBox="0 0 72 72" version="1.1" xmlns="http://www.w3.org/2000/svg" xmlns:xlink="http://www.w3.org/1999/xlink">
    <!-- Generator: Sketch 61 (89581) - https://sketch.com -->
    <title>lv1: ic / file-open</title>
    <desc>Created with Sketch.</desc>
    <g id="lv1:-ic-/-file-open" stroke="none" stroke-width="1" fill="none" fill-rule="evenodd">
        <g id="Mask" transform="translate(9.000000, 16.000000)" fill="#2C3149" fill-rule="nonzero">
            <path d="M19.3116,0.53796 C21.1908,0.53796 22.9704,1.25916 24.3216,2.56716 L27.1944,5.35116 C27.6444,5.78676 28.2372,6.02676 28.8648,6.02676 L40.8,6.02676 C44.3593438,6.02676 47.3228148,8.62237431 47.89875,12.019347 L42.866325,12.0067944 C42.4480577,11.300913 41.6784745,10.82676 40.8,10.82676 L28.8648,10.82676 C26.9844,10.82676 25.206,10.10676 23.8548,8.79876 L20.9808,6.01476 C20.5308,5.57916 19.938,5.33796 19.3116,5.33796 L7.2,5.33796 C5.8764,5.33796 4.8,6.41436 4.8,7.73796 L4.8,33.06156 C4.8,34.38516 5.8764,35.46156 7.2,35.46156 L7.995,35.46096 L15.1660975,17.7218538 C15.6642865,16.4728197 16.8394351,15.6329627 18.1699273,15.5558087 L18.370601,15.55 L48.9965869,15.55 C51.454254,15.55 53.4465869,17.5423329 53.4465869,20 C53.4465869,20.4705451 53.3719594,20.9375075 53.2260237,21.3836061 L53.1299319,21.6486234 L47.7671111,34.8816599 C46.6198916,37.840408 44.1422275,40.26156 40.8,40.26156 L7.2,40.26156 C6.90297976,40.26156 6.61010893,40.243492 6.32242864,40.208397 L6.07795084,40.207194 L6.09014845,40.1762024 C2.64459844,39.6410965 -7.10542736e-15,36.6550001 -7.10542736e-15,33.06156 L-7.10542736e-15,7.73796 C-7.10542736e-15,3.76836 3.2292,0.53796 7.2,0.53796 L19.3116,0.53796 Z M48.33212,20.45 L19.35212,20.45 L13.364,35.46096 L40.8,35.46156 C42.1236,35.46156 42.8647502,34.2783669 43.3135807,33.06156 L48.33212,20.45 Z" id="Shape"></path>
        </g>
    </g>
</svg>