<?xml version="1.0" encoding="UTF-8"?>
<svg width="48px" height="48px" viewBox="0 0 48 48" version="1.1" xmlns="http://www.w3.org/2000/svg" xmlns:xlink="http://www.w3.org/1999/xlink">
    <!-- Generator: Sketch 57.1 (83088) - https://sketch.com -->
    <title>hash</title>
    <desc>Created with Sketch.</desc>
    <g id="Page-1" stroke="none" stroke-width="1" fill="none" fill-rule="evenodd">
        <g id="Desktop" transform="translate(-67.000000, -170.000000)" fill="#000000" fill-rule="nonzero">
            <path d="M112.333333,204.666667 L107,204.666667 L107,183.333333 L112.333333,183.333333 C113.805333,183.333333 115,182.138667 115,180.666667 C115,179.194667 113.805333,178 112.333333,178 L107,178 L107,172.666667 C107,171.194667 105.805333,170 104.333333,170 C102.861333,170 101.666667,171.194667 101.666667,172.666667 L101.666667,178 L80.3333333,178 L80.3333333,172.666667 C80.3333333,171.194667 79.1386667,170 77.6666667,170 C76.1946667,170 75,171.194667 75,172.666667 L75,178 L69.6666667,178 C68.1946667,178 67,179.194667 67,180.666667 C67,182.138667 68.1946667,183.333333 69.6666667,183.333333 L75,183.333333 L75,204.666667 L69.6666667,204.666667 C68.1946667,204.666667 67,205.861333 67,207.333333 C67,208.805333 68.1946667,210 69.6666667,210 L75,210 L75,215.333333 C75,216.805333 76.1946667,218 77.6666667,218 C79.1386667,218 80.3333333,216.805333 80.3333333,215.333333 L80.3333333,210 L101.666667,210 L101.666667,215.333333 C101.666667,216.805333 102.861333,218 104.333333,218 C105.805333,218 107,216.805333 107,215.333333 L107,210 L112.333333,210 C113.805333,210 115,208.805333 115,207.333333 C115,205.861333 113.805333,204.666667 112.333333,204.666667 Z M101.666667,204.666667 L80.3333333,204.666667 L80.3333333,183.333333 L101.666667,183.333333 L101.666667,204.666667 Z" id="hash"></path>
        </g>
    </g>
</svg>