<?xml version="1.0" encoding="UTF-8"?>
<svg width="72px" height="72px" viewBox="0 0 72 72" version="1.1" xmlns="http://www.w3.org/2000/svg" xmlns:xlink="http://www.w3.org/1999/xlink">
    <!-- Generator: Sketch 61 (89581) - https://sketch.com -->
    <title>z</title>
    <desc>Created with Sketch.</desc>
    <g id="z" stroke="none" stroke-width="1" fill="none" fill-rule="evenodd">
        <path d="M36,16 C24.971355,16 16,24.971355 16,36 C16,47.0286467 24.971355,56 36,56 C47.0286467,56 56,47.0286467 56,36 C56,24.971355 47.0286467,16 36,16 Z M36,19.3333333 C45.22526,19.3333333 52.6666667,26.77474 52.6666667,36 C52.6666667,45.22526 45.22526,52.6666667 36,52.6666667 C26.77474,52.6666667 19.3333333,45.22526 19.3333333,36 C19.3333333,26.77474 26.77474,19.3333333 36,19.3333333 Z M36,26 C33.0185192,26 30.4764172,27.985817 29.6315976,30.6995473 C29.5659703,30.9103553 29.5080247,31.1832857 29.4577608,31.5183385 C29.3758567,32.0644997 29.7521843,32.5736674 30.2983411,32.6556007 C30.3474489,32.6629678 30.3970372,32.6666667 30.4466945,32.6666667 L31.7836281,32.6666667 C32.2580407,32.666671 32.6671607,32.3333347 32.7630101,31.8687056 L32.7985793,31.7219917 L32.7985793,31.7219917 C33.1989565,30.3305597 34.4671037,29.3333333 36,29.3333333 C37.86198,29.3333333 39.3333333,30.8046883 39.3333333,32.6666667 C39.3333333,33.9427083 38.5130217,35.0755217 37.3020833,35.4791667 L36.625,35.6875 C35.2643233,36.1367183 34.3333333,37.4388017 34.3333333,38.8645833 L34.3333333,39.3333333 C34.3333333,40.2538079 35.0795254,41 36,41 C36.9204746,41 37.6666667,40.2538079 37.6666667,39.3333333 L37.6666667,38.8645833 L38.34375,38.65625 C40.908855,37.803385 42.6666667,35.36849 42.6666667,32.6666667 C42.6666667,29.0013017 39.665365,26 36,26 Z M34.3333333,44.3333333 C34.3333333,45.2538079 35.0795254,46 36,46 C36.9204746,46 37.6666667,45.2538079 37.6666667,44.3333333 C37.6666667,43.4128588 36.9204746,42.6666667 36,42.6666667 C35.0795254,42.6666667 34.3333333,43.4128588 34.3333333,44.3333333 Z" id="Mask" fill="#000000" fill-rule="nonzero"></path>
    </g>
</svg>