<?xml version="1.0" encoding="UTF-8"?>
<svg width="48px" height="48px" viewBox="0 0 48 48" version="1.1" xmlns="http://www.w3.org/2000/svg" xmlns:xlink="http://www.w3.org/1999/xlink">
    <!-- Generator: Sketch 57.1 (83088) - https://sketch.com -->
    <title>info</title>
    <desc>Created with Sketch.</desc>
    <g id="Page-1" stroke="none" stroke-width="1" fill="none" fill-rule="evenodd">
        <g id="Desktop" transform="translate(-927.000000, -21.000000)" fill="#000000" fill-rule="nonzero">
            <path d="M951,21 C964.255171,21 975,31.7448293 975,45 C975,58.2551707 964.255171,69 951,69 C937.744829,69 927,58.2551707 927,45 C927,31.7448293 937.744829,21 951,21 Z M951,24.84 C939.865603,24.84 930.84,33.8656027 930.84,45 C930.84,56.1343973 939.865603,65.16 951,65.16 C962.134397,65.16 971.16,56.1343973 971.16,45 C971.16,33.8656027 962.134397,24.84 951,24.84 Z M951,42.792 C952.218816,42.792 953.208,43.781184 953.208,45 L953.208,53.832 C953.208,54.997824 952.302962,55.9535499 951.157611,56.0344527 L951,56.04 C949.781184,56.04 948.792,55.050816 948.792,53.832 L948.792,45 C948.792,43.834176 949.697038,42.8784501 950.842389,42.7975473 L951,42.792 Z M952.104,33.96 C952.713408,33.96 953.208,34.454592 953.208,35.064 L953.208,37.272 C953.208,37.881408 952.713408,38.376 952.104,38.376 L949.896,38.376 C949.286592,38.376 948.792,37.881408 948.792,37.272 L948.792,35.064 C948.792,34.454592 949.286592,33.96 949.896,33.96 L952.104,33.96 Z" id="info"></path>
        </g>
    </g>
</svg>