<?xml version="1.0" encoding="UTF-8"?>
<svg width="18px" height="29px" viewBox="0 0 18 29" version="1.1" xmlns="http://www.w3.org/2000/svg" xmlns:xlink="http://www.w3.org/1999/xlink">
    <!-- Generator: Sketch 57.1 (83088) - https://sketch.com -->
    <title>italic</title>
    <desc>Created with Sketch.</desc>
    <g id="Page-1" stroke="none" stroke-width="1" fill="none" fill-rule="evenodd">
        <g id="Desktop" transform="translate(-880.000000, -33.000000)" fill="#000000" fill-rule="nonzero">
            <path d="M896,33 L888.888889,33 C887.905778,33 887.111111,33.7946667 887.111111,34.7777778 C887.111111,35.7608889 887.905778,36.5555556 888.888889,36.5555556 L890.088889,36.5555556 L883.992889,57.8888889 L881.777778,57.8888889 C880.794667,57.8888889 880,58.6835556 880,59.6666667 C880,60.6497778 880.794667,61.4444444 881.777778,61.4444444 L888.888889,61.4444444 C889.872,61.4444444 890.666667,60.6497778 890.666667,59.6666667 C890.666667,58.6835556 889.872,57.8888889 888.888889,57.8888889 L887.688889,57.8888889 L893.784889,36.5555556 L896,36.5555556 C896.983111,36.5555556 897.777778,35.7608889 897.777778,34.7777778 C897.777778,33.7946667 896.983111,33 896,33" id="italic"></path>
        </g>
    </g>
</svg>