<?xml version="1.0" encoding="UTF-8"?>
<svg width="36px" height="36px" viewBox="0 0 36 36" version="1.1" xmlns="http://www.w3.org/2000/svg" xmlns:xlink="http://www.w3.org/1999/xlink">
    <!-- Generator: Sketch 57.1 (83088) - https://sketch.com -->
    <title>line-through</title>
    <desc>Created with Sketch.</desc>
    <g id="Page-1" stroke="none" stroke-width="1" fill="none" fill-rule="evenodd">
        <g id="Desktop" transform="translate(-815.000000, -30.000000)" fill="#000000" fill-rule="nonzero">
            <path d="M849,46.2222222 L833,46.2222222 C829.078222,46.2222222 825.888889,43.4311111 825.888889,40 C825.888889,36.5688889 829.078222,33.7777778 833,33.7777778 C835.531556,33.7777778 837.892444,35.0008889 839.163556,36.9653333 C839.693333,37.792 840.790222,38.0284444 841.622222,37.4933333 C842.445333,36.9582222 842.681778,35.8577778 842.148444,35.0346667 C840.201778,32.0213333 836.781333,30.2222222 833,30.2222222 C827.117333,30.2222222 822.333333,34.608 822.333333,40 C822.333333,42.3751111 823.298667,44.5262222 824.84,46.2222222 L817,46.2222222 C816.016889,46.2222222 815.222222,47.0168889 815.222222,48 C815.222222,48.9831111 816.016889,49.7777778 817,49.7777778 L833,49.7777778 C836.921778,49.7777778 840.111111,52.5688889 840.111111,56 C840.111111,59.4311111 836.921778,62.2222222 833,62.2222222 C830.468444,62.2222222 828.107556,61.0008889 826.836444,59.0346667 C826.301333,58.2044444 825.202667,57.9644444 824.377778,58.5066667 C823.554667,59.0417778 823.318222,60.1422222 823.851556,60.9653333 C825.798222,63.9786667 829.218667,65.7777778 833,65.7777778 C838.882667,65.7777778 843.666667,61.392 843.666667,56 C843.666667,53.6248889 842.701333,51.4737778 841.16,49.7777778 L849,49.7777778 C849.983111,49.7777778 850.777778,48.9831111 850.777778,48 C850.777778,47.0168889 849.983111,46.2222222 849,46.2222222" id="line-through"></path>
        </g>
    </g>
</svg>