<?xml version="1.0" encoding="UTF-8"?>
<svg width="37px" height="37px" viewBox="0 0 37 37" version="1.1" xmlns="http://www.w3.org/2000/svg" xmlns:xlink="http://www.w3.org/1999/xlink">
    <!-- Generator: Sketch 57.1 (83088) - https://sketch.com -->
    <title>list</title>
    <desc>Created with Sketch.</desc>
    <g id="Page-1" stroke="none" stroke-width="1" fill="none" fill-rule="evenodd">
        <g id="Desktop" transform="translate(-680.000000, -31.000000)" fill="#000000" fill-rule="nonzero">
            <path d="M684,55 C685.354667,55 686.125333,55.3172 686.874667,55.9516 C687.624,56.586 688,57.4804 688,58.6374 C688,59.2718 687.745333,60.265 687.113333,61.0918 C686.662667,61.682 683.490667,65.9473 683.490667,65.9473 L686.948,65.9473 C687.529333,65.9473 688,66.4062 688,66.973 C688,67.5398 687.529333,68 686.948,68 L681.333333,68 L681.333333,68 C680.1,68 680,67.0497 680,66.7338 C680,66.4283 680.105333,66.1293 680.305333,65.8888 C681.341333,64.6395 684.622667,60.6121 684.858667,60.2208 C685.14,59.7554 685.348,59.1639 685.342667,58.6023 C685.341333,58.4632 685.326667,58.3254 685.297333,58.1928 C685.165333,57.5948 684.68,57.0527 684,57.0527 C683.412,57.0527 682.826667,57.3595 682.573333,58.055 C682.382667,58.5464 681.904,58.9 681.333333,58.9 C680.597333,58.9 680,58.3176 680,57.6 C680,56.8824 681.146667,55 684,55 Z M715,60.6666667 C715.983111,60.6666667 716.777778,61.4613333 716.777778,62.4444444 C716.777778,63.4275556 715.983111,64.2222222 715,64.2222222 L715,64.2222222 L693.666667,64.2222222 C692.683556,64.2222222 691.888889,63.4275556 691.888889,62.4444444 C691.888889,61.4613333 692.683556,60.6666667 693.666667,60.6666667 L693.666667,60.6666667 L715,60.6666667 Z M707.571429,48 C708.23854,48 708.777778,48.7946667 708.777778,49.7777778 C708.777778,50.7608889 708.23854,51.5555556 707.571429,51.5555556 L707.571429,51.5555556 L693.095238,51.5555556 C692.428127,51.5555556 691.888889,50.7608889 691.888889,49.7777778 C691.888889,48.7946667 692.428127,48 693.095238,48 L693.095238,48 L707.571429,48 Z M686,31.574908 L686,43.3378934 C686,43.7033763 685.72,44 685.375,44 L684.125,44 C683.78,44 683.5,43.7033763 683.5,43.3378934 L683.5,34.7305079 L682.24625,35.196631 C681.6375,35.4230714 681,34.9450305 681,34.2617365 L681,33.5916846 C681,33.0447846 681.31625,32.5548257 681.7975,32.357518 L685.27375,31.034629 C685.6275,30.8995593 686,31.1763198 686,31.574908 Z M715,35.7777778 C715.983111,35.7777778 716.777778,36.5724444 716.777778,37.5555556 C716.777778,38.5386667 715.983111,39.3333333 715,39.3333333 L715,39.3333333 L693.666667,39.3333333 C692.683556,39.3333333 691.888889,38.5386667 691.888889,37.5555556 C691.888889,36.5724444 692.683556,35.7777778 693.666667,35.7777778 L693.666667,35.7777778 L715,35.7777778 Z" id="list"></path>
        </g>
    </g>
</svg>