<?xml version="1.0" encoding="UTF-8"?>
<svg width="72px" height="72px" viewBox="0 0 72 72" version="1.1" xmlns="http://www.w3.org/2000/svg" xmlns:xlink="http://www.w3.org/1999/xlink">
    <!-- Generator: Sketch 57.1 (83088) - https://sketch.com -->
    <title>lv1: ic / preview</title>
    <desc>Created with Sketch.</desc>
    <g id="lv1:-ic-/-preview" stroke="none" stroke-width="1" fill="none" fill-rule="evenodd">
        <rect id="Rectangle" stroke="#2C3149" stroke-width="4" stroke-linejoin="round" x="9" y="16" width="54" height="40"></rect>
        <path d="M36.36,23 C43.8295017,23 50.7827961,27.5008218 54.5066026,34.7452519 L54.4982086,34.7270927 C54.549009,34.8236324 54.5914576,34.9241684 54.6251661,35.0275156 C54.683065,35.2072089 54.7130305,35.3826708 54.7189527,35.5571655 C54.7196738,35.5795224 54.7200473,35.6012252 54.7200497,35.6229522 C54.7200473,35.6437749 54.7196738,35.6654776 54.7189323,35.687147 C54.7137064,35.8424165 54.6895911,35.9977574 54.6455256,36.1505587 C54.6091593,36.2778283 54.5598278,36.4008077 54.4982086,36.5179074 L54.5066026,36.4997481 C50.7827961,43.7441782 43.8295017,48.245 36.36,48.245 C28.8976244,48.245 21.949687,43.7516647 18.2227013,36.5178251 C18.1235523,36.3312162 18.0565459,36.12958 18.0235815,35.9215693 L18.0149572,35.8618095 L18.0149572,35.8618095 C18.0050385,35.7823448 17.9999591,35.7023617 17.9999504,35.6220479 C17.9999591,35.5426383 18.0050385,35.4626552 18.0150363,35.383468 L18.0235039,35.3232398 L18.0235039,35.3232398 C18.0565459,35.1154201 18.1235523,34.9137839 18.2217915,34.7270927 C21.949687,27.4933354 28.8976244,23 36.36,23 Z M36.36,26.8604352 C30.659968,26.8604352 25.2964617,30.1928373 22.1529387,35.6219874 C25.2964617,41.0521627 30.659968,44.3845648 36.36,44.3845648 C42.0608984,44.3845648 47.4236253,41.0521627 50.5670679,35.6230126 C47.4236253,30.1928373 42.0608984,26.8604352 36.36,26.8604352 Z M36.36,29.2634701 C39.8913688,29.2634701 42.7633421,32.115772 42.7633421,35.6220471 C42.7633421,39.1292281 39.8913688,41.9815299 36.36,41.9815299 C32.8295432,41.9815299 29.956658,39.1292281 29.956658,35.6220471 C29.956658,32.115772 32.8295432,29.2634701 36.36,29.2634701 Z M36.36,32.8865909 C34.841475,32.8865909 33.6047663,34.1139231 33.6047663,35.6220471 C33.6047663,37.1310769 34.841475,38.3584091 36.36,38.3584091 C37.8794371,38.3584091 39.1152338,37.1310769 39.1152338,35.6220471 C39.1152338,34.1139231 37.8794371,32.8865909 36.36,32.8865909 Z" id="Combined-Shape" fill="#2C3149"></path>
    </g>
</svg>