<?xml version="1.0" encoding="UTF-8"?>
<svg width="36px" height="30px" viewBox="0 0 36 30" version="1.1" xmlns="http://www.w3.org/2000/svg" xmlns:xlink="http://www.w3.org/1999/xlink">
    <!-- Generator: Sketch 57.1 (83088) - https://sketch.com -->
    <title>quote</title>
    <desc>Created with Sketch.</desc>
    <g id="Page-1" stroke="none" stroke-width="1" fill="none" fill-rule="evenodd">
        <g id="Desktop" transform="translate(-615.000000, -37.000000)" fill="#000000" fill-rule="nonzero">
            <path d="M649,62.6666667 C649.983111,62.6666667 650.777778,63.4613333 650.777778,64.4444444 C650.777778,65.4275556 649.983111,66.2222222 649,66.2222222 L649,66.2222222 L627.666667,66.2222222 C626.683556,66.2222222 625.888889,65.4275556 625.888889,64.4444444 C625.888889,63.4613333 626.683556,62.6666667 627.666667,62.6666667 L627.666667,62.6666667 L649,62.6666667 Z M616.977778,37.9 C617.960889,37.9 618.755556,38.6946667 618.755556,39.6777778 L618.755556,39.6777778 L618.755556,64.2333333 C618.755556,65.2164444 617.960889,66.0111111 616.977778,66.0111111 C615.994667,66.0111111 615.2,65.2164444 615.2,64.2333333 L615.2,64.2333333 L615.2,39.6777778 C615.2,38.6946667 615.994667,37.9 616.977778,37.9 Z M641,50.2222222 C641.983111,50.2222222 642.777778,51.0168889 642.777778,52 C642.777778,52.9831111 641.983111,53.7777778 641,53.7777778 L641,53.7777778 L627.666667,53.7777778 C626.683556,53.7777778 625.888889,52.9831111 625.888889,52 C625.888889,51.0168889 626.683556,50.2222222 627.666667,50.2222222 L627.666667,50.2222222 L641,50.2222222 Z M649,37.7777778 C649.983111,37.7777778 650.777778,38.5724444 650.777778,39.5555556 C650.777778,40.5386667 649.983111,41.3333333 649,41.3333333 L649,41.3333333 L627.666667,41.3333333 C626.683556,41.3333333 625.888889,40.5386667 625.888889,39.5555556 C625.888889,38.5724444 626.683556,37.7777778 627.666667,37.7777778 L627.666667,37.7777778 L649,37.7777778 Z" id="quote"></path>
        </g>
    </g>
</svg>