<?xml version="1.0" encoding="UTF-8"?>
<svg width="72px" height="72px" viewBox="0 0 72 72" version="1.1" xmlns="http://www.w3.org/2000/svg" xmlns:xlink="http://www.w3.org/1999/xlink">
    <!-- Generator: Sketch 61 (89581) - https://sketch.com -->
    <title>lv1: ic / cog</title>
    <desc>Created with Sketch.</desc>
    <g id="lv1:-ic-/-cog" stroke="none" stroke-width="1" fill="none" fill-rule="evenodd">
        <g id="Mask" transform="translate(11.000000, 11.000000)" fill="#2C3149">
            <path d="M25,20.238 C22.37375,20.238 20.2375,22.37425 20.2375,25.0005 C20.2375,27.62675 22.37375,29.763 25,29.763 C27.6275,29.763 29.76375,27.62675 29.76375,25.0005 C29.76375,22.37425 27.6275,20.238 25,20.238 M25,34.763 C19.61625,34.763 15.2375,30.383 15.2375,25.0005 C15.2375,19.61675 19.61625,15.238 25,15.238 C30.38375,15.238 34.76375,19.61675 34.76375,25.0005 C34.76375,30.383 30.38375,34.763 25,34.763" id="Fill-364"></path>
            <path d="M23.262875,45 L26.737875,45 L26.737875,40.7 C26.737875,39.5725 27.494125,38.58375 28.581625,38.2875 C29.721625,37.9775 30.821625,37.52 31.850375,36.92625 C32.831625,36.36125 34.067875,36.525 34.866625,37.325 L37.914125,40.37125 L40.371625,37.91375 L37.325375,34.8675 C36.525375,34.0675 36.361625,32.83125 36.926625,31.85125 C37.509125,30.83875 37.964125,29.74 38.275375,28.5875 C38.569125,27.49625 39.557875,26.7375 40.687875,26.7375 L45.000375,26.7375 L45.000375,23.2625 L40.687875,23.2625 C39.557875,23.2625 38.569125,22.50375 38.275375,21.4125 C37.964125,20.26 37.509125,19.1625 36.926625,18.15 C36.361625,17.17 36.525375,15.93375 37.325375,15.13375 L40.371625,12.08625 L37.914125,9.63 L34.866625,12.67625 C34.067875,13.475 32.831625,13.63875 31.850375,13.07375 C30.820375,12.48 29.720375,12.0225 28.581625,11.7125 C27.494125,11.41625 26.737875,10.4275 26.737875,9.3 L26.737875,5 L23.262875,5 L23.262875,9.3 C23.262875,10.4275 22.507875,11.41625 21.419125,11.7125 C20.280375,12.0225 19.180375,12.48 18.147875,13.075 C17.167875,13.64 15.930375,13.47375 15.132875,12.67625 L12.087875,9.63 L9.629125,12.08625 L12.675375,15.13375 C13.475375,15.93375 13.639125,17.16875 13.075375,18.15 C12.489125,19.16625 12.036625,20.2625 11.726625,21.41125 C11.432875,22.5025 10.442875,23.2625 9.312875,23.2625 L5.000375,23.2625 L5.000375,26.7375 L9.312875,26.7375 C10.442875,26.7375 11.432875,27.4975 11.726625,28.58875 C12.036625,29.7375 12.489125,30.835 13.075375,31.85125 C13.639125,32.83125 13.475375,34.0675 12.675375,34.8675 L9.629125,37.91375 L12.087875,40.37125 L15.132875,37.325 C15.931625,36.525 17.167875,36.3625 18.147875,36.92625 C19.179125,37.52 20.279125,37.9775 21.419125,38.2875 C22.507875,38.58375 23.262875,39.5725 23.262875,40.7 L23.262875,45 Z M29.237875,50 L20.762875,50 C19.382875,50 18.262875,48.88 18.262875,47.5 L18.262875,42.50625 C17.969125,42.3925 17.675375,42.27 17.386625,42.14125 L13.855375,45.675 C12.917875,46.6125 11.257875,46.61375 10.320375,45.675 L4.326625,39.68125 C3.857875,39.2125 3.594125,38.57625 3.594125,37.91375 C3.594125,37.25125 3.857875,36.615 4.326625,36.14625 L7.861625,32.61125 C7.732875,32.32375 7.612875,32.0325 7.500375,31.7375 L2.500375,31.7375 C1.119125,31.7375 0.000375,30.61875 0.000375,29.2375 L0.000375,20.7625 C0.000375,19.38125 1.119125,18.2625 2.500375,18.2625 L7.500375,18.2625 C7.612875,17.96875 7.732875,17.6775 7.861625,17.39 L4.326625,13.85375 C3.857875,13.385 3.594125,12.75 3.594125,12.08625 C3.594125,11.42375 3.857875,10.7875 4.326625,10.31875 L10.320375,4.32625 C10.789125,3.85625 11.424125,3.59375 12.087875,3.59375 C12.750375,3.59375 13.386625,3.8575 13.855375,4.32625 L17.386625,7.85875 C17.675375,7.73 17.967875,7.6075 18.262875,7.49375 L18.262875,2.5 C18.262875,1.12 19.382875,0 20.762875,0 L29.237875,0 C30.619125,0 31.737875,1.12 31.737875,2.5 L31.737875,7.49375 C32.032875,7.6075 32.324125,7.73 32.612875,7.85875 L36.146625,4.32625 C36.615375,3.8575 37.250375,3.59375 37.914125,3.59375 C38.576625,3.59375 39.212875,3.8575 39.681625,4.32625 L45.674125,10.31875 C46.650375,11.295 46.650375,12.8775 45.674125,13.85375 L42.140375,17.39 C42.266625,17.6775 42.387875,17.96875 42.500375,18.2625 L47.500375,18.2625 C48.880375,18.2625 50.000375,19.38125 50.000375,20.7625 L50.000375,29.2375 C50.000375,30.61875 48.880375,31.7375 47.500375,31.7375 L42.500375,31.7375 C42.387875,32.0325 42.266625,32.32375 42.140375,32.61125 L45.674125,36.14625 C46.650375,37.1225 46.650375,38.705 45.674125,39.68125 L39.681625,45.675 C38.744125,46.6125 37.084125,46.6125 36.146625,45.675 L32.612875,42.1425 C32.324125,42.27125 32.032875,42.3925 31.737875,42.50625 L31.737875,47.5 C31.737875,48.88 30.619125,50 29.237875,50 L29.237875,50 Z" id="Fill-365"></path>
        </g>
    </g>
</svg>