<?xml version="1.0" encoding="UTF-8"?>
<svg width="33px" height="33px" viewBox="0 0 33 33" version="1.1" xmlns="http://www.w3.org/2000/svg" xmlns:xlink="http://www.w3.org/1999/xlink">
    <!-- Generator: Sketch 57.1 (83088) - https://sketch.com -->
    <title>t1</title>
    <desc>Created with Sketch.</desc>
    <g id="Page-1" stroke="none" stroke-width="1" fill="none" fill-rule="evenodd">
        <g id="Desktop" transform="translate(-296.000000, -39.000000)" fill="#000000" fill-rule="nonzero">
            <path d="M321.111111,40.7777778 C321.111111,39.7946667 320.316444,39 319.333333,39 L298,39 C297.016889,39 296.222222,39.7946667 296.222222,40.7777778 L296.222222,44.3333333 C296.222222,45.3164444 297.016889,46.1111111 298,46.1111111 C298.983111,46.1111111 299.777778,45.3164444 299.777778,44.3333333 L299.777778,42.5555556 L306.888889,42.5555556 L306.888889,63.8888889 L305.111111,63.8888889 C304.128,63.8888889 303.333333,64.6835556 303.333333,65.6666667 C303.333333,66.6497778 304.128,67.4444444 305.111111,67.4444444 L312.222222,67.4444444 C313.205333,67.4444444 314,66.6497778 314,65.6666667 C314,64.6835556 313.205333,63.8888889 312.222222,63.8888889 L310.444444,63.8888889 L310.444444,42.5555556 L317.555556,42.5555556 L317.555556,44.3333333 C317.555556,45.3164444 318.350222,46.1111111 319.333333,46.1111111 C320.316444,46.1111111 321.111111,45.3164444 321.111111,44.3333333 L321.111111,40.7777778 Z M328.266667,59.8000001 L328.266667,70.8000005 C328.266667,71.2048006 327.938134,71.5333339 327.533334,71.5333339 L326.066667,71.5333339 C325.661867,71.5333339 325.333333,71.2048006 325.333333,70.8000005 L325.333333,61.2666668 L323.862267,61.7829335 C323.148,62.0337335 322.4,61.5042668 322.4,60.7474668 L322.4,60.0053335 C322.4,59.3996001 322.771067,58.8569334 323.335733,58.6384001 L327.414533,57.1732 C327.8296,57.0236 328.266667,57.3301333 328.266667,57.7716 L328.266667,59.8000001 Z" id="t1"></path>
        </g>
    </g>
</svg>