<?xml version="1.0" encoding="UTF-8"?>
<svg width="36px" height="32px" viewBox="0 0 36 32" version="1.1" xmlns="http://www.w3.org/2000/svg" xmlns:xlink="http://www.w3.org/1999/xlink">
    <!-- Generator: Sketch 57.1 (83088) - https://sketch.com -->
    <title>t3</title>
    <desc>Created with Sketch.</desc>
    <g id="Page-1" stroke="none" stroke-width="1" fill="none" fill-rule="evenodd">
        <g id="Desktop" transform="translate(-166.000000, -37.000000)" fill="#000000" fill-rule="nonzero">
            <path d="M191.111111,38.7777778 C191.111111,37.7946667 190.316444,37 189.333333,37 L168,37 C167.016889,37 166.222222,37.7946667 166.222222,38.7777778 L166.222222,42.3333333 C166.222222,43.3164444 167.016889,44.1111111 168,44.1111111 C168.983111,44.1111111 169.777778,43.3164444 169.777778,42.3333333 L169.777778,40.5555556 L176.888889,40.5555556 L176.888889,61.8888889 L175.111111,61.8888889 C174.128,61.8888889 173.333333,62.6835556 173.333333,63.6666667 C173.333333,64.6497778 174.128,65.4444444 175.111111,65.4444444 L182.222222,65.4444444 C183.205333,65.4444444 184,64.6497778 184,63.6666667 C184,62.6835556 183.205333,61.8888889 182.222222,61.8888889 L180.444444,61.8888889 L180.444444,40.5555556 L187.555556,40.5555556 L187.555556,42.3333333 C187.555556,43.3164444 188.350222,44.1111111 189.333333,44.1111111 C190.316444,44.1111111 191.111111,43.3164444 191.111111,42.3333333 L191.111111,38.7777778 Z M201.632943,64.4984004 C201.632943,67.9758672 198.69961,68.6666672 197.232943,68.6666672 C194.804143,68.6666672 193.561876,67.3056005 193.073476,65.9548005 C192.775743,65.1320004 193.422543,64.2666671 194.298143,64.2666671 L194.352409,64.2666671 C194.911209,64.2666671 195.37761,64.6362671 195.572676,65.1598671 C195.788276,65.7392005 196.29281,66.3508005 197.232943,66.3508005 C199.13961,66.3508005 198.992943,64.6524004 198.992943,64.3444004 C198.992943,62.1825337 197.232943,62.326267 196.93961,62.326267 C196.194543,62.3365337 195.772143,62.035867 195.766276,61.3333336 C195.766276,60.5530669 196.124143,60.1761336 197.086276,60.1761336 C197.81961,60.1761336 199.13961,60.0221336 199.13961,58.1697335 C199.13961,56.4713334 197.672943,56.3173334 197.232943,56.3173334 C196.401343,56.3173334 195.816143,56.9098668 195.546276,57.5786668 C195.34681,58.0685335 194.88481,58.4000002 194.353876,58.4000002 L194.353876,58.4000002 C193.472409,58.4000002 192.819743,57.5156001 193.13361,56.6928001 C193.790676,54.968 195.426009,54 197.086276,54 C201.192943,54 201.632943,56.9333334 201.632943,58.0142668 C201.632943,60.0206669 199.872943,60.9476003 199.57961,61.1016003 C200.312943,61.411067 201.632943,62.1825337 201.632943,64.4984004 Z" id="t3"></path>
        </g>
    </g>
</svg>