<?xml version="1.0" encoding="UTF-8"?>
<svg width="38px" height="38px" viewBox="0 0 38 38" version="1.1" xmlns="http://www.w3.org/2000/svg" xmlns:xlink="http://www.w3.org/1999/xlink">
    <!-- Generator: Sketch 57.1 (83088) - https://sketch.com -->
    <title>tag</title>
    <desc>Created with Sketch.</desc>
    <g id="Page-1" stroke="none" stroke-width="1" fill="none" fill-rule="evenodd">
        <g id="Desktop" transform="translate(-211.000000, -396.000000)" fill="#000000">
            <path d="M246.929,396 C248.034,396 248.929,396.896 248.929,398 L248.929,413.784 C248.929,415.12 248.41,416.375 247.465,417.319 L232.906,431.878 C231.584,433.201 229.827,433.929 227.957,433.929 C226.086,433.929 224.329,433.201 223.007,431.878 L213.051,421.922 L213.051,421.923 C211.729,420.601 211,418.843 211,416.973 C211,415.103 211.729,413.345 213.051,412.023 L227.61,397.464 C228.541,396.534 229.829,396 231.145,396 L246.929,396 Z M244.929,400 L231.145,400 C230.881,400 230.624,400.106 230.438,400.292 L215.879,414.852 C215.313,415.418 215,416.172 215,416.973 C215,417.70725 215.263007,418.401167 215.742806,418.948455 L215.879,419.094 L225.835,429.05 C226.968,430.183 228.945,430.183 230.078,429.05 L244.637,414.491 C244.826,414.303 244.929,414.052 244.929,413.784 L244.929,400 Z M237.0884,404.3227 C239.0184,404.3227 240.5884,405.8927 240.5884,407.8227 C240.5884,409.7527 239.0184,411.3227 237.0884,411.3227 C235.1584,411.3227 233.5884,409.7527 233.5884,407.8227 C233.5884,405.8927 235.1584,404.3227 237.0884,404.3227 Z" id="tag"></path>
        </g>
    </g>
</svg>