<?xml version="1.0" encoding="UTF-8"?>
<svg width="72px" height="72px" viewBox="0 0 72 72" version="1.1" xmlns="http://www.w3.org/2000/svg" xmlns:xlink="http://www.w3.org/1999/xlink">
    <!-- Generator: Sketch 61 (89581) - https://sketch.com -->
    <title>lv1: ic / tags</title>
    <desc>Created with Sketch.</desc>
    <g id="lv1:-ic-/-tags" stroke="none" stroke-width="1" fill="none" fill-rule="evenodd">
        <path d="M54.928,36.513 L54.929,39.784 C54.929,41.12 54.41,42.375 53.465,43.319 L38.906,57.878 C37.584,59.201 35.827,59.929 33.957,59.929 C32.086,59.929 30.329,59.201 29.007,57.878 L19.051,47.923 C17.729,46.601 17,44.843 17,42.973 C17,42.2428819 17.1111298,41.5298373 17.3252948,40.8531502 L26.1785729,49.7064271 C26.4668591,49.9949314 28.3523348,51.7761224 31.835,55.05 L31.9749032,55.1805216 C33.0768968,56.1394928 34.8361032,56.1394928 35.9380968,55.1805216 L36.078,55.05 C39.481663,51.8551846 41.3674951,50.0736371 41.7354963,49.7053576 L54.928,36.513 Z" id="Path" fill="#2C3149"></path>
        <path d="M52.929,11 C54.034,11 54.929,11.896 54.929,13 L54.929,28.784 C54.929,30.12 54.41,31.375 53.465,32.319 L38.906,46.878 C37.584,48.201 35.827,48.929 33.957,48.929 C32.086,48.929 30.329,48.201 29.007,46.878 L19.051,36.922 L19.051,36.923 C17.729,35.601 17,33.843 17,31.973 C17,30.103 17.729,28.345 19.051,27.023 L33.61,12.464 C34.541,11.534 35.829,11 37.145,11 L52.929,11 Z M50.929,15 L37.145,15 C36.881,15 36.624,15.106 36.438,15.292 L21.879,29.852 C21.313,30.418 21,31.172 21,31.973 C21,32.70725 21.2630069,33.4011667 21.7428056,33.9484549 L21.879,34.094 L31.835,44.05 C32.968,45.183 34.945,45.183 36.078,44.05 L50.637,29.491 C50.826,29.303 50.929,29.052 50.929,28.784 L50.929,15 Z M43.0884,19.3227 C45.0184,19.3227 46.5884,20.8927 46.5884,22.8227 C46.5884,24.7527 45.0184,26.3227 43.0884,26.3227 C41.1584,26.3227 39.5884,24.7527 39.5884,22.8227 C39.5884,20.8927 41.1584,19.3227 43.0884,19.3227 Z" id="Combined-Shape" fill="#2C3149"></path>
    </g>
</svg>