<?xml version="1.0" encoding="UTF-8"?>
<svg width="72px" height="72px" viewBox="0 0 72 72" version="1.1" xmlns="http://www.w3.org/2000/svg" xmlns:xlink="http://www.w3.org/1999/xlink">
    <!-- Generator: Sketch 59.1 (86144) - https://sketch.com -->
    <title>lv1: ic / trash</title>
    <desc>Created with Sketch.</desc>
    <g id="lv1:-ic-/-trash" stroke="none" stroke-width="1" fill="none" fill-rule="evenodd">
        <g id="Mask" opacity="0" transform="translate(12.000000, 12.000000)" fill="#2C3149">
            <path d="M45.59988,12.66324 L17.30988,12.66324 C16.09188,12.66324 15.10548,11.67684 15.10548,10.45884 C15.10548,9.24084 16.09188,8.25444 17.30988,8.25444 L45.59988,8.25444 C46.81788,8.25444 47.80428,9.24084 47.80428,10.45884 C47.80428,11.67684 46.81788,12.66324 45.59988,12.66324" id="Fill-1025"></path>
            <path d="M11.64252,12.66324 L2.40012,12.66324 C1.18212,12.66324 0.19572,11.67684 0.19572,10.45884 C0.19572,9.24084 1.18212,8.25444 2.40012,8.25444 L11.64252,8.25444 C12.86052,8.25444 13.84692,9.24084 13.84692,10.45884 C13.84692,11.67684 12.86052,12.66324 11.64252,12.66324" id="Fill-1026"></path>
            <path d="M36.83904,47.80428 L11.29704,47.80428 C7.43424,47.80428 4.29264,44.66268 4.29264,40.79988 L4.29264,10.45908 C4.29264,9.24108 5.27904,8.25468 6.49704,8.25468 C7.71384,8.25468 8.70144,9.24108 8.70144,10.45908 L8.70144,40.79988 C8.70144,42.23028 9.86544,43.39548 11.29704,43.39548 L36.83904,43.39548 C38.26944,43.39548 39.43464,42.23028 39.43464,40.79988 L39.43464,10.45908 C39.43464,9.24108 40.42104,8.25468 41.63904,8.25468 C42.85704,8.25468 43.84344,9.24108 43.84344,10.45908 L43.84344,40.79988 C43.84344,44.66268 40.70184,47.80428 36.83904,47.80428" id="Fill-1027"></path>
            <path d="M32.88504,38.88276 C31.66704,38.88276 30.68064,37.89636 30.68064,36.67836 L30.68064,19.38036 C30.68064,18.16236 31.66704,17.17596 32.88504,17.17596 C34.10304,17.17596 35.08944,18.16236 35.08944,19.38036 L35.08944,36.67836 C35.08944,37.89636 34.10304,38.88276 32.88504,38.88276" id="Fill-1028"></path>
            <path d="M15.25068,38.88276 C14.03268,38.88276 13.04628,37.89636 13.04628,36.67836 L13.04628,19.38036 C13.04628,18.16236 14.03268,17.17596 15.25068,17.17596 C16.46868,17.17596 17.45508,18.16236 17.45508,19.38036 L17.45508,36.67836 C17.45508,37.89636 16.46868,38.88276 15.25068,38.88276" id="Fill-1029"></path>
            <path d="M24.08904,38.88276 C22.87104,38.88276 21.88464,37.89636 21.88464,36.67836 L21.88464,19.38036 C21.88464,18.16236 22.87104,17.17596 24.08904,17.17596 C25.30704,17.17596 26.29344,18.16236 26.29344,19.38036 L26.29344,36.67836 C26.29344,37.89636 25.30704,38.88276 24.08904,38.88276" id="Fill-1030"></path>
            <path d="M19.59252,8.25468 L28.40772,8.25468 C28.01532,6.17988 26.18772,4.60428 24.00012,4.60428 C21.81252,4.60428 19.98492,6.17988 19.59252,8.25468 M30.69012,12.66348 L17.31012,12.66348 C16.09212,12.66348 15.10572,11.67708 15.10572,10.45908 L15.10572,9.08988 C15.10572,4.18548 19.09572,0.19548 24.00012,0.19548 C28.90452,0.19548 32.89452,4.18548 32.89452,9.08988 L32.89452,10.45908 C32.89452,11.67708 31.90812,12.66348 30.69012,12.66348" id="Fill-1031"></path>
        </g>
        <g id="lv1:-color-/-b&amp;w-/-dark---087" fill="#000000" fill-opacity="0.87">
            <rect id="Rectangle" x="0" y="0" width="72" height="72"></rect>
        </g>
    </g>
</svg>