<?xml version="1.0" encoding="UTF-8"?>
<svg width="48px" height="48px" viewBox="0 0 48 48" version="1.1" xmlns="http://www.w3.org/2000/svg" xmlns:xlink="http://www.w3.org/1999/xlink">
    <!-- Generator: Sketch 57.1 (83088) - https://sketch.com -->
    <title>trash</title>
    <desc>Created with Sketch.</desc>
    <g id="Page-1" stroke="none" stroke-width="1" fill="none" fill-rule="evenodd">
        <g id="Desktop" transform="translate(-644.000000, -295.000000)" fill="#000000">
            <path d="M667.8044,295 C672.426906,295 676.237107,298.54451 676.659839,303.058366 L689.40416,303.05896 C690.62216,303.05896 691.60856,304.04536 691.60856,305.26336 C691.60856,306.48136 690.62216,307.46776 689.40416,307.46776 L687.647,307.467 L687.64772,335.6044 C687.64772,339.4672 684.50612,342.6088 680.64332,342.6088 L655.10132,342.6088 C651.23852,342.6088 648.09692,339.4672 648.09692,335.6044 L648.096,307.467 L646.2044,307.46776 C644.9864,307.46776 644,306.48136 644,305.26336 C644,304.04536 644.9864,303.05896 646.2044,303.05896 L655.4468,303.05896 C656.6648,303.05896 657.6512,304.04536 657.6512,305.26336 C657.6512,306.48136 656.6648,307.46776 655.4468,307.46776 L652.505,307.467 L652.50572,335.6044 C652.50572,337.0348 653.66972,338.2 655.10132,338.2 L680.64332,338.2 C682.07372,338.2 683.23892,337.0348 683.23892,335.6044 L683.238,307.467 L661.11416,307.46776 L660.956666,307.462228 L660.956666,307.462228 L660.802411,307.44612 C660.433516,307.393922 660.094068,307.250503 659.807603,307.039402 C659.579986,306.871803 659.385226,306.660694 659.23601,306.418495 L659.162825,306.290051 C659.133122,306.233663 659.105792,306.175828 659.080965,306.11668 C658.970713,305.854595 658.90976,305.566133 658.90976,305.26336 L658.91,303.8944 C658.91,298.99 662.9,295 667.8044,295 Z M676.68932,311.98048 C677.90732,311.98048 678.89372,312.96688 678.89372,314.18488 L678.89372,331.48288 C678.89372,332.70088 677.90732,333.68728 676.68932,333.68728 C675.47132,333.68728 674.48492,332.70088 674.48492,331.48288 L674.48492,314.18488 C674.48492,312.96688 675.47132,311.98048 676.68932,311.98048 Z M659.05496,311.98048 C660.27296,311.98048 661.25936,312.96688 661.25936,314.18488 L661.25936,331.48288 C661.25936,332.70088 660.27296,333.68728 659.05496,333.68728 C657.83696,333.68728 656.85056,332.70088 656.85056,331.48288 L656.85056,314.18488 C656.85056,312.96688 657.83696,311.98048 659.05496,311.98048 Z M667.89332,311.98048 C669.11132,311.98048 670.09772,312.96688 670.09772,314.18488 L670.09772,331.48288 C670.09772,332.70088 669.11132,333.68728 667.89332,333.68728 C666.67532,333.68728 665.68892,332.70088 665.68892,331.48288 L665.68892,314.18488 C665.68892,312.96688 666.67532,311.98048 667.89332,311.98048 Z M667.8044,299.4088 C665.617154,299.4088 663.789791,300.98389 663.396991,303.058193 L672.211,303.058 L672.168016,302.853424 C671.69736,300.881111 669.91908,299.4088 667.8044,299.4088 Z" id="trash"></path>
        </g>
    </g>
</svg>