<?xml version="1.0" encoding="UTF-8"?>
<svg width="262px" height="60px" viewBox="0 0 262 60" version="1.1" xmlns="http://www.w3.org/2000/svg" xmlns:xlink="http://www.w3.org/1999/xlink">
    <!-- Generator: Sketch 61 (89581) - https://sketch.com -->
    <title>Artboard</title>
    <desc>Created with Sketch.</desc>
    <defs>
        <linearGradient x1="50%" y1="0%" x2="50%" y2="100%" id="linearGradient-1">
            <stop stop-color="#004654" offset="0%"></stop>
            <stop stop-color="#007C8D" offset="100%"></stop>
        </linearGradient>
    </defs>
    <g id="Artboard" stroke="none" stroke-width="1" fill="none" fill-rule="evenodd">
        <g id="logo_with_text_teal" transform="translate(73.000000, 17.000000)" fill="#005868" fill-rule="nonzero">
            <path d="M12.2382812,26 L0.1269531,26 L0.1269531,0.6347656 L11.921875,0.6347656 C16.9140625,0.6347656 19.9199219,3.0429688 19.9199219,6.9628906 C19.9199219,9.8105469 17.7753906,12.078125 14.9628906,12.4648438 L14.9628906,12.6054688 C18.390625,12.7636719 21.0976562,15.3125 21.0976562,18.6875 C21.0976562,23.1347656 17.6699219,26 12.2382812,26 Z M6.578125,5.2050781 L6.578125,10.9707031 L9.9003906,10.9707031 C12.2382812,10.9707031 13.6445312,9.8632812 13.6445312,8.0351562 C13.6445312,6.2597656 12.3789062,5.2050781 10.2167969,5.2050781 L6.578125,5.2050781 Z M6.578125,21.4296875 L10.4101562,21.4296875 C13.0644531,21.4296875 14.5410156,20.2695312 14.5410156,18.125 C14.5410156,16.0507812 13.0292969,14.890625 10.375,14.890625 L6.578125,14.890625 L6.578125,21.4296875 Z M32.611328,26.4570312 C26.5820312,26.4570312 22.8203125,22.8007812 22.8203125,16.4199219 C22.8203125,10.1621094 26.6699219,6.4003906 32.611328,6.4003906 C38.587891,6.4003906 42.402344,10.1445312 42.402344,16.4199219 C42.402344,22.8183594 38.640625,26.4570312 32.611328,26.4570312 Z M32.611328,21.8867188 C34.738281,21.8867188 36.091797,19.9355469 36.091797,16.4375 C36.091797,12.9921875 34.738281,10.9707031 32.611328,10.9707031 C30.501953,10.9707031 29.148438,12.9921875 29.148438,16.4375 C29.148438,19.9355469 30.466797,21.8867188 32.611328,21.8867188 Z M54.021484,26.4570312 C47.992188,26.4570312 44.230469,22.8007812 44.230469,16.4199219 C44.230469,10.1621094 48.080078,6.4003906 54.021484,6.4003906 C59.998047,6.4003906 63.8125,10.1445312 63.8125,16.4199219 C63.8125,22.8183594 60.050781,26.4570312 54.021484,26.4570312 Z M54.021484,21.8867188 C56.148438,21.8867188 57.501953,19.9355469 57.501953,16.4375 C57.501953,12.9921875 56.148438,10.9707031 54.021484,10.9707031 C51.912109,10.9707031 50.558594,12.9921875 50.558594,16.4375 C50.558594,19.9355469 51.876953,21.8867188 54.021484,21.8867188 Z M65.904297,12.6582031 C65.904297,8.8261719 69.173828,6.4003906 74.412109,6.4003906 C79.685547,6.4003906 82.849609,8.9667969 82.955078,12.9042969 L77.259766,12.9042969 C77.136719,11.5507812 76.134766,10.6015625 74.412109,10.6015625 C72.900391,10.6015625 71.880859,11.2695312 71.880859,12.3066406 C71.880859,13.1328125 72.443359,13.6601562 74.271484,14.0292969 L77.646484,14.6972656 C81.724609,15.4882812 83.482422,17.0703125 83.482422,19.9355469 C83.482422,23.9082031 79.896484,26.4570312 74.640625,26.4570312 C68.945312,26.4570312 65.78125,23.890625 65.447266,20.0410156 L71.494141,20.0410156 C71.757812,21.4648438 72.830078,22.2558594 74.640625,22.2558594 C76.292969,22.2558594 77.3125,21.6230469 77.3125,20.6210938 C77.3125,19.7597656 76.697266,19.3027344 74.957031,18.9511719 L71.599609,18.2832031 C67.837891,17.5449219 65.904297,15.5761719 65.904297,12.6582031 Z M87.244141,2.5683594 L93.484375,2.5683594 L93.484375,6.8574219 L96.929688,6.8574219 L96.929688,11.4453125 L93.484375,11.4453125 L93.484375,19.4785156 C93.484375,20.796875 94.1875,21.4648438 95.681641,21.4648438 C96.173828,21.4648438 96.542969,21.4472656 96.912109,21.3769531 L96.912109,25.8066406 C96.314453,25.9296875 95.400391,26.0351562 94.1875,26.0351562 C89.212891,26.0351562 87.244141,24.5058594 87.244141,20.7441406 L87.244141,11.4453125 L84.642578,11.4453125 L84.642578,6.8574219 L87.244141,6.8574219 L87.244141,2.5683594 Z M113.013672,26 L106.896484,26 L106.896484,0.6347656 L112.046875,0.6347656 L122.804688,15.3828125 L122.945312,15.3828125 L122.945312,0.6347656 L129.0625,0.6347656 L129.0625,26 L123.964844,26 L113.154297,11.1113281 L113.013672,11.1113281 L113.013672,26 Z M141.683594,26.4570312 C135.654297,26.4570312 131.892578,22.8007812 131.892578,16.4199219 C131.892578,10.1621094 135.742188,6.4003906 141.683594,6.4003906 C147.660156,6.4003906 151.474609,10.1445312 151.474609,16.4199219 C151.474609,22.8183594 147.712891,26.4570312 141.683594,26.4570312 Z M141.683594,21.8867188 C143.810547,21.8867188 145.164062,19.9355469 145.164062,16.4375 C145.164062,12.9921875 143.810547,10.9707031 141.683594,10.9707031 C139.574219,10.9707031 138.220703,12.9921875 138.220703,16.4375 C138.220703,19.9355469 139.539062,21.8867188 141.683594,21.8867188 Z M155.447266,2.5683594 L161.6875,2.5683594 L161.6875,6.8574219 L165.132812,6.8574219 L165.132812,11.4453125 L161.6875,11.4453125 L161.6875,19.4785156 C161.6875,20.796875 162.390625,21.4648438 163.884766,21.4648438 C164.376953,21.4648438 164.746094,21.4472656 165.115234,21.3769531 L165.115234,25.8066406 C164.517578,25.9296875 163.603516,26.0351562 162.390625,26.0351562 C157.416016,26.0351562 155.447266,24.5058594 155.447266,20.7441406 L155.447266,11.4453125 L152.845703,11.4453125 L152.845703,6.8574219 L155.447266,6.8574219 L155.447266,2.5683594 Z M180.355469,19.953125 L185.980469,19.953125 C185.382812,23.9082031 181.867188,26.4570312 176.857422,26.4570312 C170.757812,26.4570312 167.119141,22.7128906 167.119141,16.5253906 C167.119141,10.3378906 170.792969,6.4003906 176.646484,6.4003906 C182.412109,6.4003906 186.085938,10.1796875 186.085938,16.0332031 L186.085938,17.7910156 L173.166016,17.7910156 L173.166016,18.1777344 C173.166016,20.4628906 174.695312,22.0449219 176.945312,22.0449219 C178.615234,22.0449219 179.916016,21.2539062 180.355469,19.953125 Z M176.751953,10.8300781 C174.835938,10.8300781 173.412109,12.2539062 173.253906,14.2402344 L180.214844,14.2402344 C180.109375,12.2011719 178.720703,10.8300781 176.751953,10.8300781 Z" id="BoostNote"></path>
        </g>
        <g id="logo_symbol" transform="translate(2.000000, 1.000000)" fill-rule="nonzero">
            <g id="g10" transform="translate(29.000000, 29.000000) scale(-1, 1) rotate(-180.000000) translate(-29.000000, -29.000000) translate(0.000000, -0.000000)">
                <g id="g12">
                    <path d="M9.99371853,47.964881 C-0.49165452,37.479508 -0.49165452,20.4790916 9.99371853,9.99371853 C20.4790916,-0.49165452 37.479508,-0.49165452 47.964881,9.99371853 C58.4502541,20.4790916 58.4502541,37.479508 47.964881,47.964881 C37.479508,58.4502541 20.4790916,58.4502541 9.99371853,47.964881" id="path14" fill="url(#linearGradient-1)"></path>
                    <path d="M8.47818394,49.4804156 C-2.82606131,38.1760048 -2.82606131,19.7825948 8.47818394,8.47818394 C19.7825948,-2.82606131 38.1760048,-2.82606131 49.4804156,8.47818394 C60.7846609,19.7825948 60.7846609,38.1760048 49.4804156,49.4804156 C38.1760048,60.7846609 19.7825948,60.7846609 8.47818394,49.4804156 Z M9.99371853,47.964881 C20.4790916,58.4502541 37.479508,58.4502541 47.964881,47.964881 C58.4502541,37.479508 58.4502541,20.4790916 47.964881,9.99371853 C37.479508,-0.49165452 20.4790916,-0.49165452 9.99371853,9.99371853 C-0.49165452,20.4790916 -0.49165452,37.479508 9.99371853,47.964881 L9.99371853,47.964881 Z" id="path16" fill="#FFFFFF"></path>
                    <g id="Group" transform="translate(12.183891, 12.205584)" fill="#FFFFFF">
                        <path d="M12.5919197,9.36196979 C12.5968876,9.37422389 12.6016899,9.38647799 12.6064921,9.3987321 C12.7351602,9.72462502 12.7813615,10.0500212 12.7705979,10.3643224 C11.1606735,9.03375852 9.44725173,8.18309188 7.96947303,7.93271072 C8.21968859,9.41032381 9.07035524,11.12358 10.4005879,12.7335043 C10.0852931,12.7444336 9.7587378,12.6977356 9.4318513,12.5685707 C9.41711325,12.5627748 9.40237521,12.5568133 9.38763717,12.5510176 C8.32103334,12.1224551 7.30791702,11.4657014 6.4271119,10.5848962 C4.53451524,8.69229957 3.67705915,6.18815688 3.89266514,3.85590283 C6.22475359,3.64046244 8.72889628,4.49791852 10.621493,6.39051519 C11.5052788,7.27430103 12.1633573,8.29139165 12.5919197,9.36196979" id="path18"></path>
                        <polygon id="path20" points="20.2581865 3.5298911e-15 15.7355941 11.0050133 29.763728 29.7536267"></polygon>
                        <polygon id="path22" fill-opacity="0.8" points="29.763728 29.7536267 11.0397884 15.7008191 -5.29483665e-15 20.2482507"></polygon>
                        <polygon id="path24" points="29.763728 29.7536267 15.5978183 15.587717 11.0397884 15.7008191"></polygon>
                        <polygon id="path26" fill-opacity="0.8" points="15.7355941 11.0050133 15.5978183 15.587717 29.763728 29.7536267"></polygon>
                    </g>
                </g>
            </g>
        </g>
    </g>
</svg>