<?xml version="1.0" encoding="UTF-8"?>
<svg width="39px" height="39px" viewBox="0 0 39 39" version="1.1" xmlns="http://www.w3.org/2000/svg" xmlns:xlink="http://www.w3.org/1999/xlink">
    <!-- Generator: Sketch 57.1 (83088) - https://sketch.com -->
    <title>adjust-vertical</title>
    <desc>Created with Sketch.</desc>
    <g id="Page-1" stroke="none" stroke-width="1" fill="none" fill-rule="evenodd">
        <g id="Desktop" transform="translate(-228.000000, -304.000000)" fill="#000000">
            <path d="M234.0874,328.5564 C235.1914,328.5564 236.0874,329.4514 236.0874,330.5564 L236.0874,341.0004 C236.0874,342.1044 235.1914,343.0004 234.0874,343.0004 C232.9834,343.0004 232.0874,342.1044 232.0874,341.0004 L232.0874,330.5564 C232.0874,329.4514 232.9834,328.5564 234.0874,328.5564 Z M260.6724,331.2244 C261.7764,331.2244 262.6724,332.1204 262.6724,333.2244 L262.6724,341.0004 C262.6724,342.1044 261.7764,343.0004 260.6724,343.0004 C259.5684,343.0004 258.6724,342.1044 258.6724,341.0004 L258.6724,333.2244 C258.6724,332.1204 259.5684,331.2244 260.6724,331.2244 Z M250.7417,312.6896 C252.1027,312.6896 253.2067,313.7936 253.2067,315.1546 C253.2067,316.5156 252.1027,317.6196 250.7417,317.6196 L249.379,317.619 L249.3794,341.0004 C249.3794,342.1044 248.4834,343.0004 247.3794,343.0004 C246.2754,343.0004 245.3794,342.1044 245.3794,341.0004 L245.379,317.619 L244.0177,317.6196 C242.6567,317.6196 241.5537,316.5156 241.5537,315.1546 C241.5537,313.7936 242.6567,312.6896 244.0177,312.6896 L250.7417,312.6896 Z M260.6724,304 C261.7764,304 262.6724,304.896 262.6724,306 L262.672,324.553 L264.0337,324.5538 C265.3947,324.5538 266.4987,325.6578 266.4987,327.0188 C266.4987,328.3798 265.3947,329.4838 264.0337,329.4838 L257.3097,329.4838 C255.9487,329.4838 254.8457,328.3798 254.8457,327.0188 C254.8457,325.6578 255.9487,324.5538 257.3097,324.5538 L258.672,324.553 L258.6724,306 C258.6724,304.896 259.5684,304 260.6724,304 Z M234.0874,304 C235.1914,304 236.0874,304.896 236.0874,306 L236.087,321.843 L237.188,321.8439 C238.549,321.8439 239.653,322.9479 239.653,324.3089 C239.653,325.6699 238.549,326.7739 237.188,326.7739 L230.464,326.7739 C229.103,326.7739 228,325.6699 228,324.3089 C228,322.9479 229.103,321.8439 230.464,321.8439 L232.087,321.843 L232.0874,306 C232.0874,304.896 232.9834,304 234.0874,304 Z M247.3794,304 C248.4834,304 249.3794,304.896 249.3794,306 L249.3794,309.498 C249.3794,310.602 248.4834,311.498 247.3794,311.498 C246.2754,311.498 245.3794,310.602 245.3794,309.498 L245.3794,306 C245.3794,304.896 246.2754,304 247.3794,304 Z" id="adjust-vertical"></path>
        </g>
    </g>
</svg>