<?xml version="1.0" encoding="UTF-8"?>
<svg width="38px" height="42px" viewBox="0 0 38 42" version="1.1" xmlns="http://www.w3.org/2000/svg" xmlns:xlink="http://www.w3.org/1999/xlink">
    <!-- Generator: Sketch 57.1 (83088) - https://sketch.com -->
    <title>alphabet</title>
    <desc>Created with Sketch.</desc>
    <g id="Page-1" stroke="none" stroke-width="1" fill="none" fill-rule="evenodd">
        <g id="Desktop" transform="translate(-124.000000, -392.000000)" fill="#000000">
            <path d="M158.976333,392 C160.325667,392 161.420778,393.095111 161.420778,394.444444 L161.420778,398.228444 C161.420778,399.577778 160.325667,400.672889 158.976333,400.672889 C157.627,400.672889 156.531889,399.577778 156.531889,398.228444 L156.531889,396.888889 L145.154,396.888 L145.154,429.083 L148.404844,429.083567 C149.754178,429.083567 150.849289,430.178678 150.849289,431.528011 C150.849289,432.877344 149.754178,433.972456 148.404844,433.972456 L137.014956,433.972456 C135.6644,433.972456 134.570511,432.877344 134.570511,431.528011 C134.570511,430.178678 135.6644,429.083567 137.014956,429.083567 L140.265,429.083 L140.265,396.888 L128.888889,396.888889 L128.888889,398.228444 C128.888889,399.577778 127.793778,400.672889 126.444444,400.672889 C125.093889,400.672889 124,399.577778 124,398.228444 L124,394.444444 C124,393.095111 125.093889,392 126.444444,392 L142.71,392 L158.976333,392 Z" id="alphabet"></path>
        </g>
    </g>
</svg>