<?xml version="1.0" encoding="UTF-8"?>
<svg width="44px" height="47px" viewBox="0 0 44 47" version="1.1" xmlns="http://www.w3.org/2000/svg" xmlns:xlink="http://www.w3.org/1999/xlink">
    <!-- Generator: Sketch 57.1 (83088) - https://sketch.com -->
    <title>arrow-output</title>
    <desc>Created with Sketch.</desc>
    <g id="Page-1" stroke="none" stroke-width="1" fill="none" fill-rule="evenodd">
        <g id="Desktop" transform="translate(-48.000000, -392.000000)" fill="#000000">
            <path d="M69.8,394 C71.0617143,394 72.0857143,395.024 72.0857143,396.285714 C72.0857143,397.548571 71.0617143,398.571429 69.8,398.571429 L52.7142857,398.571429 C52.0834286,398.571429 51.5714286,399.084571 51.5714286,399.714286 L51.5714286,430.570286 C51.5714286,431.2 52.0834286,431.713143 52.7142857,431.713143 L69.8,431.713143 C71.0617143,431.713143 72.0857143,432.737143 72.0857143,433.998857 C72.0857143,435.260571 71.0617143,436.284571 69.8,436.284571 L52.7142857,436.284571 C49.5634286,436.284571 47,433.721143 47,430.570286 L47,399.714286 C47,396.564571 49.5634286,394 52.7142857,394 L69.8,394 Z M79.2206857,400.506971 L92.2412571,413.5264 C92.6698286,413.954971 92.9109714,414.536686 92.9109714,415.1424 C92.9109714,415.748114 92.6698286,416.329829 92.2412571,416.7584 L79.2206857,429.777829 C78.7738286,430.224686 78.1898286,430.447543 77.6046857,430.447543 C77.0195429,430.447543 76.4355429,430.224686 75.9886857,429.777829 C75.0961143,428.885257 75.0961143,427.4384 75.9886857,426.545829 L85.107,417.427 L66.0368,417.428 C64.7739429,417.428 63.7510857,416.404 63.7510857,415.142286 C63.7510857,413.880571 64.7739429,412.856571 66.0368,412.856571 L85.106,412.856 L75.9886857,403.738971 C75.0961143,402.847543 75.0961143,401.399543 75.9886857,400.506971 C76.8812571,399.6144 78.3281143,399.6144 79.2206857,400.506971 Z" id="arrow-output" transform="translate(69.955486, 415.142286) rotate(-90.000000) translate(-69.955486, -415.142286) "></path>
        </g>
    </g>
</svg>