<?xml version="1.0" encoding="UTF-8"?>
<svg width="47px" height="39px" viewBox="0 0 47 39" version="1.1" xmlns="http://www.w3.org/2000/svg" xmlns:xlink="http://www.w3.org/1999/xlink">
    <!-- Generator: Sketch 57.1 (83088) - https://sketch.com -->
    <title>arrow-rotate</title>
    <desc>Created with Sketch.</desc>
    <g id="Page-1" stroke="none" stroke-width="1" fill="none" fill-rule="evenodd">
        <g id="Desktop" transform="translate(-44.000000, -310.000000)" fill="#000000">
            <path d="M80.4317389,315.539083 L89.0483243,317.66279 C90.3045194,317.971863 91.0713487,319.239766 90.7622755,320.495961 C90.4520316,321.752156 89.1841292,322.515473 87.9279341,322.209912 L84.8986879,321.461845 C85.9391073,323.848354 86.4882853,326.442863 86.4882853,329.092176 C86.4882853,339.619395 77.9220414,348.184468 67.3948219,348.184468 C64.6108219,348.184468 61.9275048,347.599102 59.4186267,346.44242 C58.2443828,345.901541 57.7304316,344.510712 58.2713097,343.336468 C58.8121877,342.161054 60.2018463,341.648273 61.3772609,342.189151 C63.2679926,343.060176 65.2921877,343.501541 67.3948219,343.501541 C75.340578,343.501541 81.8053584,337.037932 81.8053584,329.092176 C81.8053584,327.267977 81.4608242,325.478928 80.8046945,323.811987 L80.0219828,326.99001 C79.7585682,328.057717 78.8020804,328.771863 77.7507633,328.771863 C77.564617,328.771863 77.3772999,328.74962 77.1888121,328.70279 C75.932617,328.393717 75.1657877,327.125815 75.4748609,325.86962 L77.5973975,317.253034 C77.9088121,315.995668 79.1802267,315.23118 80.4317389,315.539083 Z M67.3952902,310 C70.3736316,310 73.2278755,310.667317 75.8784121,311.98322 C77.0362658,312.55922 77.5080706,313.964098 76.9332414,315.121951 C76.3584121,316.279805 74.9570463,316.75278 73.7945097,316.177951 C71.7972414,315.185171 69.6442658,314.682927 67.3952902,314.682927 C59.4495341,314.682927 52.9847536,321.146537 52.9847536,329.092293 C52.9847536,330.960147 53.3322754,332.764849 54.0059965,334.446021 L54.8082853,331.193756 C55.1173584,329.93639 56.3911145,329.174244 57.6426267,329.479805 C58.8976511,329.788878 59.6656511,331.057951 59.356578,332.314146 L57.2328706,340.931902 C57.0841877,341.534829 56.7013584,342.053463 56.171017,342.374244 C55.8022365,342.597854 55.3819438,342.712585 54.9593097,342.712585 C54.7719926,342.712585 54.5846755,342.690341 54.3985292,342.644683 L45.7819438,340.520976 C44.5269194,340.211902 43.7600902,338.944 44.0679926,337.687805 C44.3794072,336.43161 45.6496511,335.66478 46.9023341,335.975024 L49.8908672,336.711891 C48.8519815,334.321653 48.3018267,331.722834 48.3018267,329.092293 C48.3018267,318.565073 56.8668999,310 67.3952902,310 Z" id="arrow-rotate"></path>
        </g>
    </g>
</svg>