<?xml version="1.0" encoding="UTF-8"?>
<svg width="22px" height="30px" viewBox="0 0 22 30" version="1.1" xmlns="http://www.w3.org/2000/svg" xmlns:xlink="http://www.w3.org/1999/xlink">
    <!-- Generator: Sketch 57.1 (83088) - https://sketch.com -->
    <title>bold</title>
    <desc>Created with Sketch.</desc>
    <g id="Page-1" stroke="none" stroke-width="1" fill="none" fill-rule="evenodd">
        <g id="Desktop" transform="translate(-479.000000, -181.000000)" fill="#000000" fill-rule="nonzero">
            <path d="M482.888889,194.222222 L482.888889,185.333333 L492.666667,185.333333 C495.118222,185.333333 497.111111,187.326222 497.111111,189.777778 C497.111111,192.229333 495.118222,194.222222 492.666667,194.222222 L482.888889,194.222222 Z M497.111111,202.222222 C497.111111,204.673778 495.118222,206.666667 492.666667,206.666667 L482.888889,206.666667 L482.888889,197.777778 L492.666667,197.777778 C495.118222,197.777778 497.111111,199.770667 497.111111,202.222222 L497.111111,202.222222 Z M500.666667,189.777778 C500.666667,185.367111 497.077333,181.777778 492.666667,181.777778 L481.111111,181.777778 C480.128,181.777778 479.333333,182.572444 479.333333,183.555556 L479.333333,208.444444 C479.333333,209.427556 480.128,210.222222 481.111111,210.222222 L492.666667,210.222222 C497.077333,210.222222 500.666667,206.632889 500.666667,202.222222 C500.666667,199.696 499.466667,197.466667 497.632,196 C499.466667,194.533333 500.666667,192.304 500.666667,189.777778 L500.666667,189.777778 Z" id="bold"></path>
        </g>
    </g>
</svg>