<?xml version="1.0" encoding="UTF-8"?>
<svg width="48px" height="48px" viewBox="0 0 48 48" version="1.1" xmlns="http://www.w3.org/2000/svg" xmlns:xlink="http://www.w3.org/1999/xlink">
    <!-- Generator: Sketch 57.1 (83088) - https://sketch.com -->
    <title>check-active</title>
    <desc>Created with Sketch.</desc>
    <g id="Page-1" stroke="none" stroke-width="1" fill="none" fill-rule="evenodd">
        <g id="Desktop" transform="translate(-354.000000, -163.000000)" fill="#000000" fill-rule="nonzero">
            <path d="M396.666667,163 L359.333333,163 C356.386667,163 354,165.386667 354,168.333333 L354,205.666667 C354,208.613333 356.386667,211 359.333333,211 L396.666667,211 C399.613333,211 402,208.613333 402,205.666667 L402,168.333333 C402,165.386667 399.613333,163 396.666667,163 Z M372.666667,201.437333 L362,190.770667 C360.958759,189.729426 360.958759,188.041241 362,187 C363.041241,185.958759 364.729426,185.958759 365.770667,187 L372.666667,193.896 L372.666667,193.896 L390.229333,176.333333 C391.270574,175.292092 392.958759,175.292092 394,176.333333 C395.041241,177.374574 395.041241,179.062759 394,180.104 L372.666667,201.437333 L372.666667,201.437333 Z" id="check-active"></path>
        </g>
    </g>
</svg>