<?xml version="1.0" encoding="UTF-8"?>
<svg width="48px" height="48px" viewBox="0 0 48 48" version="1.1" xmlns="http://www.w3.org/2000/svg" xmlns:xlink="http://www.w3.org/1999/xlink">
    <!-- Generator: Sketch 57.1 (83088) - https://sketch.com -->
    <title>check</title>
    <desc>Created with Sketch.</desc>
    <g id="Page-1" stroke="none" stroke-width="1" fill="none" fill-rule="evenodd">
        <g id="Desktop" transform="translate(-249.000000, -171.000000)" fill="#000000" fill-rule="nonzero">
            <path d="M254.333333,171 L291.666667,171 C294.539667,171 296.880317,173.268825 296.995554,176.113412 L297,176.333333 L297,213.666667 C297,216.539667 294.731175,218.880317 291.886588,218.995553 L291.666667,219 L254.333333,219 C251.460333,219 249.119683,216.731175 249.004446,213.886588 L249,213.666667 L249,176.333333 C249,173.460333 251.268825,171.119683 254.113412,171.004446 L254.333333,171 L291.666667,171 L254.333333,171 Z M254.333333,174 C253.043521,174 252,175.043521 252,176.333333 L252,213.666667 C252,214.956479 253.043521,216 254.333333,216 L291.666667,216 C292.956479,216 294,214.956479 294,213.666667 L294,176.333333 C294,175.043521 292.956479,174 291.666667,174 L254.333333,174 Z" id="check"></path>
        </g>
    </g>
</svg>