<?xml version="1.0" encoding="UTF-8"?>
<svg width="40px" height="40px" viewBox="0 0 40 40" version="1.1" xmlns="http://www.w3.org/2000/svg" xmlns:xlink="http://www.w3.org/1999/xlink">
    <!-- Generator: Sketch 57.1 (83088) - https://sketch.com -->
    <title>edit</title>
    <desc>Created with Sketch.</desc>
    <g id="Page-1" stroke="none" stroke-width="1" fill="none" fill-rule="evenodd">
        <g id="Desktop" transform="translate(-795.000000, -295.000000)" fill="#000000">
            <path d="M832.659532,297.337 C835.775532,300.453 835.775532,305.523 832.659532,308.639 L809.607532,331.691 C809.347532,331.951 809.022532,332.134 808.665532,332.22 L797.471532,334.939 C797.315532,334.977 797.157532,334.996 797.000532,334.996 C796.475532,334.996 795.966532,334.79 795.586532,334.41 C795.093532,333.917 794.891532,333.202 795.056532,332.524 L797.775532,321.33 C797.862532,320.974 798.045532,320.648 798.304532,320.388 L821.356532,297.337 C824.475532,294.22 829.546532,294.222 832.659532,297.337 Z M833.000232,330.9958 C834.104232,330.9958 835.000232,331.8918 835.000232,332.9958 C835.000232,334.0998 834.104232,334.9958 833.000232,334.9958 L811.962232,334.9958 C810.857232,334.9958 809.962232,334.0998 809.962232,332.9958 C809.962232,331.8918 810.857232,330.9958 811.962232,330.9958 L833.000232,330.9958 Z M820.363975,303.985767 L801.530532,322.82 L800.244,328.112 L801.878,329.753 L807.176532,328.466 L825.474,310.169 L820.937032,305.6322 C820.486836,305.18258 820.295817,304.571885 820.363975,303.985767 Z M824.184532,300.165 L822.118084,302.231252 C822.704397,302.162781 823.315172,302.353764 823.765032,302.8042 L828.302,307.341 L829.831532,305.811 C831.387532,304.254 831.386532,301.721 829.831532,300.165 C828.274532,298.609 825.741532,298.609 824.184532,300.165 Z" id="edit"></path>
        </g>
    </g>
</svg>