<?xml version="1.0" encoding="UTF-8"?>
<svg width="48px" height="41px" viewBox="0 0 48 41" version="1.1" xmlns="http://www.w3.org/2000/svg" xmlns:xlink="http://www.w3.org/1999/xlink">
    <!-- Generator: Sketch 57.1 (83088) - https://sketch.com -->
    <title>file</title>
    <desc>Created with Sketch.</desc>
    <g id="Page-1" stroke="none" stroke-width="1" fill="none" fill-rule="evenodd">
        <g id="Desktop" transform="translate(-567.000000, -297.000000)" fill="#000000">
            <path d="M607.79988,337.26156 L574.19988,337.26156 C570.22908,337.26156 566.99988,334.03236 566.99988,330.06156 L566.99988,321.87036 C566.99988,320.54436 568.07508,319.47036 569.39988,319.47036 C570.72468,319.47036 571.79988,320.54436 571.79988,321.87036 L571.79988,330.06156 C571.79988,331.38516 572.87628,332.46156 574.19988,332.46156 L607.79988,332.46156 C609.12348,332.46156 610.19988,331.38516 610.19988,330.06156 L610.19988,310.22676 C610.19988,308.90316 609.12348,307.82676 607.79988,307.82676 L595.86468,307.82676 C593.98428,307.82676 592.20588,307.10676 590.85468,305.79876 L587.98068,303.01476 C587.53068,302.57916 586.93788,302.33796 586.31148,302.33796 L574.19988,302.33796 C572.87628,302.33796 571.79988,303.41436 571.79988,304.73796 L571.79988,315.24516 C571.79988,316.56996 570.72468,317.64516 569.39988,317.64516 C568.07508,317.64516 566.99988,316.56996 566.99988,315.24516 L566.99988,304.73796 C566.99988,300.76836 570.22908,297.53796 574.19988,297.53796 L586.31148,297.53796 C588.19068,297.53796 589.97028,298.25916 591.32148,299.56716 L594.19428,302.35116 C594.64428,302.78676 595.23708,303.02676 595.86468,303.02676 L607.79988,303.02676 C611.77068,303.02676 614.99988,306.25716 614.99988,310.22676 L614.99988,330.06156 C614.99988,334.03236 611.77068,337.26156 607.79988,337.26156" id="file"></path>
        </g>
    </g>
</svg>