<?xml version="1.0" encoding="UTF-8"?>
<svg width="72px" height="72px" viewBox="0 0 72 72" version="1.1" xmlns="http://www.w3.org/2000/svg" xmlns:xlink="http://www.w3.org/1999/xlink">
    <!-- Generator: Sketch 59.1 (86144) - https://sketch.com -->
    <title>lv1: ic / file-border</title>
    <desc>Created with Sketch.</desc>
    <g id="lv1:-ic-/-file-border" stroke="none" stroke-width="1" fill="none" fill-rule="evenodd">
        <g id="Mask" opacity="0" transform="translate(12.000000, 16.000000)" fill="#2C3149">
            <path d="M40.79988,40.26156 L7.19988,40.26156 C3.22908,40.26156 -0.00012,37.03236 -0.00012,33.06156 L-0.00012,7.73796 C-0.00012,3.76836 3.22908,0.53796 7.19988,0.53796 L19.31268,0.53796 C21.19188,0.53796 22.97148,1.25916 24.32268,2.56716 L27.19548,5.35116 C27.64548,5.78676 28.23828,6.02676 28.86588,6.02676 L40.79988,6.02676 C44.77068,6.02676 47.99988,9.25716 47.99988,13.22676 L47.99988,15.51276 C47.99988,16.83756 46.92468,17.91276 45.59988,17.91276 C44.27508,17.91276 43.19988,16.83756 43.19988,15.51276 L43.19988,13.22676 C43.19988,11.90316 42.12348,10.82676 40.79988,10.82676 L28.86588,10.82676 C26.98548,10.82676 25.20708,10.10676 23.85588,8.79876 L20.98188,6.01476 C20.53188,5.57916 19.93908,5.33796 19.31268,5.33796 L7.19988,5.33796 C5.87628,5.33796 4.79988,6.41436 4.79988,7.73796 L4.79988,33.06156 C4.79988,34.38516 5.87628,35.46156 7.19988,35.46156 L40.79988,35.46156 C42.12348,35.46156 43.19988,34.38516 43.19988,33.06156 L43.19988,21.43836 C43.19988,20.11236 44.27508,19.03836 45.59988,19.03836 C46.92468,19.03836 47.99988,20.11236 47.99988,21.43836 L47.99988,33.06156 C47.99988,37.03236 44.77068,40.26156 40.79988,40.26156" id="Fill-113"></path>
            <path d="M45.59988,23.83824 L9.77748,23.83824 C8.45268,23.83824 7.37748,22.76304 7.37748,21.43824 C7.37748,20.11344 8.45268,19.03824 9.77748,19.03824 L45.59988,19.03824 C46.92468,19.03824 47.99988,20.11344 47.99988,21.43824 C47.99988,22.76304 46.92468,23.83824 45.59988,23.83824" id="Fill-115"></path>
        </g>
        <g id="lv1:-color-/-b&amp;w-/-dark---087" fill="#000000" fill-opacity="0.87">
            <rect id="Rectangle" x="0" y="0" width="72" height="72"></rect>
        </g>
    </g>
</svg>