<?xml version="1.0" encoding="UTF-8"?>
<svg width="72px" height="72px" viewBox="0 0 72 72" version="1.1" xmlns="http://www.w3.org/2000/svg" xmlns:xlink="http://www.w3.org/1999/xlink">
    <!-- Generator: Sketch 61 (89581) - https://sketch.com -->
    <title>lv1: ic / image</title>
    <desc>Created with Sketch.</desc>
    <g id="lv1:-ic-/-image" stroke="none" stroke-width="1" fill="none" fill-rule="evenodd">
        <g id="Mask" transform="translate(16.000000, 18.000000)" fill="#2C3149">
            <path d="M34.9999,35.4126 L5.9999,35.4126 C2.6909,35.4126 -0.0001,32.7206 -0.0001,29.4126 L-0.0001,6.5876 C-0.0001,3.2786 2.6909,0.5876 5.9999,0.5876 L33.9999,0.5876 C37.3089,0.5876 39.9999,3.2786 39.9999,6.5876 L39.9999,15.2926 C39.9999,16.3976 39.1039,17.2926 37.9999,17.2926 C36.8959,17.2926 35.9999,16.3976 35.9999,15.2926 L35.9999,6.5876 C35.9999,5.4846 35.1029,4.5876 33.9999,4.5876 L5.9999,4.5876 C4.8969,4.5876 3.9999,5.4846 3.9999,6.5876 L3.9999,29.4126 C3.9999,30.5156 4.8969,31.4126 5.9999,31.4126 L34.9999,31.4126 C35.5519,31.4126 35.9999,30.9636 35.9999,30.4126 L35.9999,24.7786 C35.9999,23.6736 36.8959,22.7786 37.9999,22.7786 C39.1039,22.7786 39.9999,23.6736 39.9999,24.7786 L39.9999,30.4126 C39.9999,33.1696 37.7569,35.4126 34.9999,35.4126" id="Fill-387"></path>
            <path d="M4.9999,34.8355 C4.4869,34.8355 3.9759,34.6395 3.5849,34.2485 C2.8039,33.4665 2.8059,32.2005 3.5869,31.4195 L24.2789,10.7645 C24.6559,10.3875 25.1229,10.1825 25.7049,10.1805 C26.2389,10.1835 26.7499,10.4005 27.1229,10.7825 L39.4309,23.3805 C40.2019,24.1705 40.1879,25.4375 39.3969,26.2095 C38.6079,26.9815 37.3409,26.9665 36.5689,26.1765 L25.6749,15.0235 L6.4129,34.2515 C6.0219,34.6405 5.5119,34.8355 4.9999,34.8355" id="Fill-388"></path>
            <path d="M12.9823,16.5411 C10.7763,16.5411 8.9823,14.7471 8.9823,12.5411 C8.9823,10.3351 10.7763,8.5411 12.9823,8.5411 C15.1883,8.5411 16.9823,10.3351 16.9823,12.5411 C16.9823,14.7471 15.1883,16.5411 12.9823,16.5411" id="Fill-389"></path>
        </g>
    </g>
</svg>