<?xml version="1.0" encoding="UTF-8"?>
<svg width="48px" height="48px" viewBox="0 0 48 48" version="1.1" xmlns="http://www.w3.org/2000/svg" xmlns:xlink="http://www.w3.org/1999/xlink">
    <!-- Generator: Sketch 57.1 (83088) - https://sketch.com -->
    <title>Artboard Copy</title>
    <desc>Created with Sketch.</desc>
    <g id="Artboard-Copy" stroke="none" stroke-width="1" fill="none" fill-rule="evenodd">
        <path d="M13.090881,15 C7.7763217,15 3.52619704,19.5148219 4.04256199,24.8824212 C4.49347226,29.5624212 8.73240389,33 13.4815071,33 L18.5454406,33 C19.5490796,33 20.3636273,32.1936 20.3636273,31.2 C20.3636273,30.2064 19.5490796,29.3999999 18.5454406,29.3999999 L13.3998307,29.3999999 C10.4470958,29.3999999 7.79970256,27.2096808 7.64697487,24.2882808 C7.48151984,21.1742808 9.98178204,18.6 13.090881,18.6 L18.5454406,18.6 C19.5490796,18.6 20.3636273,17.7936 20.3636273,16.8 C20.3636273,15.8064 19.5490796,15 18.5454406,15 L13.090881,15 Z M29.45456,15 C28.450921,15 27.6363734,15.8064 27.6363734,16.8 C27.6363734,17.7936 28.450921,18.6 29.45456,18.6 L34.6001697,18.6 C37.5529047,18.6 40.2002989,20.7903192 40.3530265,23.7117192 C40.5184815,26.8257192 38.0182186,29.3999999 34.9091196,29.3999999 L29.45456,29.3999999 C28.450921,29.3999999 27.6363734,30.2064 27.6363734,31.2 C27.6363734,32.1936 28.450921,33 29.45456,33 L34.9091196,33 C40.2236789,33 44.4738045,28.4851788 43.9574377,23.1175787 C43.5065275,18.4375781 39.2675964,15 34.5184932,15 L29.45456,15 Z M16.7272541,22.2 C15.7236152,22.2 14.9090676,23.0064 14.9090676,24 C14.9090676,24.9936 15.7236152,25.8 16.7272541,25.8 L31.2727465,25.8 C32.2763854,25.8 33.0909331,24.9936 33.0909331,24 C33.0909331,23.0064 32.2763854,22.2 31.2727465,22.2 L16.7272541,22.2 Z" id="link" fill="#000000" fill-rule="nonzero"></path>
    </g>
</svg>