<?xml version="1.0" encoding="UTF-8"?>
<svg width="49px" height="44px" viewBox="0 0 49 44" version="1.1" xmlns="http://www.w3.org/2000/svg" xmlns:xlink="http://www.w3.org/1999/xlink">
    <!-- Generator: Sketch 57.1 (83088) - https://sketch.com -->
    <title>split</title>
    <desc>Created with Sketch.</desc>
    <g id="Page-1" stroke="none" stroke-width="1" fill="none" fill-rule="evenodd">
        <g id="Desktop" transform="translate(-364.000000, -76.000000)" fill="#000000" fill-rule="nonzero">
            <path d="M388.487307,74.1341823 C388.077807,74.1341823 387.66962,74.2909323 387.35762,74.6029321 L380.781057,81.6904321 C380.058657,82.4680321 380.610882,83.7317823 381.671682,83.7341823 L386.087307,83.7341823 L386.087307,90.9810572 L369.287307,90.9810572 C368.421781,90.9688165 367.616712,91.4235579 367.180377,92.171152 C366.744042,92.9187462 366.744042,93.8433682 367.180377,94.5909624 C367.616712,95.3385565 368.421781,95.7932979 369.287307,95.7810572 L407.687307,95.7810572 C408.552834,95.7932979 409.357903,95.3385565 409.794238,94.5909624 C410.230573,93.8433682 410.230573,92.9187462 409.794238,92.171152 C409.357903,91.4235579 408.552834,90.9688165 407.687307,90.9810572 L390.887307,90.9810572 L390.887307,83.7341823 L395.30762,83.7341823 C396.36842,83.7341823 396.920646,82.4680321 396.198246,81.6904321 L389.621682,74.6029321 C389.308482,74.2909323 388.896807,74.1341823 388.487307,74.1341823 Z M369.287307,100.581057 C368.421781,100.568816 367.616712,101.023558 367.180377,101.771152 C366.744042,102.518746 366.744042,103.443368 367.180377,104.190962 C367.616712,104.938556 368.421781,105.393298 369.287307,105.381057 L386.087307,105.381057 L386.087307,112.581057 L381.671682,112.581057 C380.610882,112.581057 380.058657,113.847208 380.781057,114.624806 L387.35762,121.712308 C387.98162,122.336308 388.995282,122.336306 389.621682,121.712308 L396.198246,114.624806 C396.918246,113.847208 396.363733,112.581057 395.302933,112.581057 L390.887307,112.581057 L390.887307,105.381057 L407.687307,105.381057 C408.552834,105.393298 409.357903,104.938556 409.794238,104.190962 C410.230573,103.443368 410.230573,102.518746 409.794238,101.771152 C409.357903,101.023558 408.552834,100.568816 407.687307,100.581057 L369.287307,100.581057 Z" id="split" transform="translate(388.487307, 98.157245) rotate(90.000000) translate(-388.487307, -98.157245) "></path>
        </g>
    </g>
</svg>