<?xml version="1.0" encoding="UTF-8"?>
<svg width="41px" height="40px" viewBox="0 0 41 40" version="1.1" xmlns="http://www.w3.org/2000/svg" xmlns:xlink="http://www.w3.org/1999/xlink">
    <!-- Generator: Sketch 57.1 (83088) - https://sketch.com -->
    <title>star</title>
    <desc>Created with Sketch.</desc>
    <g id="Page-1" stroke="none" stroke-width="1" fill="none" fill-rule="evenodd">
        <g id="Desktop" transform="translate(-868.000000, -296.000000)" fill="#000000">
            <path d="M888.499693,325.333 C888.820693,325.333 889.142693,325.41 889.434693,325.565 L897.278693,329.711 L895.777693,320.913 C895.667693,320.267 895.881693,319.607 896.350693,319.148 L902.717693,312.908 L893.927693,311.624 C893.274693,311.529 892.711693,311.118 892.421693,310.526 L888.499693,302.539 L884.577693,310.526 C884.287693,311.118 883.724693,311.529 883.071693,311.624 L874.281693,312.908 L880.648693,319.148 C881.117693,319.607 881.331693,320.267 881.221693,320.913 L879.720693,329.711 L887.564693,325.565 C887.856693,325.41 888.178693,325.333 888.499693,325.333 M899.933693,335.376348 C899.612693,335.376348 899.292693,335.299 898.998693,335.144 L888.499693,329.595 L878.000693,335.144 C877.327693,335.5 876.510693,335.444 875.893693,334.996 C875.275693,334.549 874.966693,333.791 875.094693,333.04 L877.102693,321.272 L868.600693,312.941 C868.057693,312.409 867.862693,311.615 868.098693,310.893 C868.333693,310.17 868.958693,309.643 869.710693,309.533 L881.451693,307.818 L886.704693,297.119 C887.040693,296.434 887.736693,296 888.499693,296 C889.262693,296 889.958693,296.434 890.294693,297.119 L895.547693,307.818 L907.288693,309.533 C908.040693,309.643 908.665693,310.17 908.900693,310.893 C909.136693,311.615 908.941693,312.409 908.398693,312.941 L899.896693,321.272 L901.904693,333.04 C902.032693,333.791 901.723693,334.549 901.105693,334.996 C900.758693,335.248 900.346693,335.376348 899.933693,335.376348" id="star"></path>
        </g>
    </g>
</svg>