<?xml version="1.0" encoding="UTF-8"?>
<svg width="41px" height="40px" viewBox="0 0 41 40" version="1.1" xmlns="http://www.w3.org/2000/svg" xmlns:xlink="http://www.w3.org/1999/xlink">
    <!-- Generator: Sketch 57.1 (83088) - https://sketch.com -->
    <title>star-active</title>
    <desc>Created with Sketch.</desc>
    <g id="Page-1" stroke="none" stroke-width="1" fill="none" fill-rule="evenodd">
        <g id="Desktop" transform="translate(-934.000000, -296.000000)" fill="#000000">
            <path d="M954.499693,296 C955.262693,296 955.958693,296.434 956.294693,297.119 L961.547693,307.818 L973.288693,309.533 C974.040693,309.643 974.665693,310.17 974.900693,310.893 C975.136693,311.615 974.941693,312.409 974.398693,312.941 L965.896693,321.272 L967.904693,333.04 C968.032693,333.791 967.723693,334.549 967.105693,334.996 C966.758693,335.248 966.346693,335.376348 965.933693,335.376348 C965.612693,335.376348 965.292693,335.299 964.998693,335.144 L954.499693,329.595 L944.000693,335.144 C943.327693,335.5 942.510693,335.444 941.893693,334.996 C941.275693,334.549 940.966693,333.791 941.094693,333.04 L943.102693,321.272 L934.600693,312.941 C934.057693,312.409 933.862693,311.615 934.098693,310.893 C934.333693,310.17 934.958693,309.643 935.710693,309.533 L947.451693,307.818 L952.704693,297.119 C953.040693,296.434 953.736693,296 954.499693,296 Z" id="star-active"></path>
        </g>
    </g>
</svg>