<?xml version="1.0" encoding="UTF-8"?>
<svg width="36px" height="32px" viewBox="0 0 36 32" version="1.1" xmlns="http://www.w3.org/2000/svg" xmlns:xlink="http://www.w3.org/1999/xlink">
    <!-- Generator: Sketch 57.1 (83088) - https://sketch.com -->
    <title>t2</title>
    <desc>Created with Sketch.</desc>
    <g id="Page-1" stroke="none" stroke-width="1" fill="none" fill-rule="evenodd">
        <g id="Desktop" transform="translate(-231.000000, -39.000000)" fill="#000000" fill-rule="nonzero">
            <path d="M256.111111,40.7777778 C256.111111,39.7946667 255.316444,39 254.333333,39 L233,39 C232.016889,39 231.222222,39.7946667 231.222222,40.7777778 L231.222222,44.3333333 C231.222222,45.3164444 232.016889,46.1111111 233,46.1111111 C233.983111,46.1111111 234.777778,45.3164444 234.777778,44.3333333 L234.777778,42.5555556 L241.888889,42.5555556 L241.888889,63.8888889 L240.111111,63.8888889 C239.128,63.8888889 238.333333,64.6835556 238.333333,65.6666667 C238.333333,66.6497778 239.128,67.4444444 240.111111,67.4444444 L247.222222,67.4444444 C248.205333,67.4444444 249,66.6497778 249,65.6666667 C249,64.6835556 248.205333,63.8888889 247.222222,63.8888889 L245.444444,63.8888889 L245.444444,42.5555556 L252.555556,42.5555556 L252.555556,44.3333333 C252.555556,45.3164444 253.350222,46.1111111 254.333333,46.1111111 C255.316444,46.1111111 256.111111,45.3164444 256.111111,44.3333333 L256.111111,40.7777778 Z M265.442801,68.2174674 C266.082267,68.2174674 266.600001,68.7352007 266.600001,69.3746674 C266.600001,70.0141341 266.082267,70.5333341 265.442801,70.5333341 C265.442801,70.5333341 260.733334,70.5333341 259.266667,70.5333341 C257.91,70.5333341 257.8,69.4612008 257.8,69.1048008 C257.8,68.7601341 257.915867,68.4228007 258.135867,68.1514674 C259.275467,66.7420007 262.884934,62.1982672 263.144534,61.7568005 C263.454001,61.2317338 263.682801,60.5644004 263.676934,59.9308004 C263.675467,59.7738671 263.659334,59.6184004 263.627067,59.4688004 C263.481867,58.7941337 262.948001,58.1825337 262.2,58.1825337 C261.553201,58.1825337 260.909334,58.528667 260.630667,59.3133337 C260.420934,59.8677337 259.8944,60.2666671 259.266667,60.2666671 C258.457067,60.2666671 257.8,59.6096004 257.8,58.8000003 C257.8,57.9904003 259.061334,55.8666669 262.2,55.8666669 C263.690134,55.8666669 264.537867,56.2245336 265.362134,56.9402669 C266.186401,57.6560003 266.600001,58.665067 266.600001,59.9704004 C266.600001,60.6861338 266.319867,61.8066671 265.624667,62.7394672 C265.128934,63.4053339 261.639734,68.2174674 261.639734,68.2174674 L265.442801,68.2174674 Z" id="t2"></path>
        </g>
    </g>
</svg>