<?xml version="1.0" encoding="UTF-8"?>
<svg width="72px" height="72px" viewBox="0 0 72 72" version="1.1" xmlns="http://www.w3.org/2000/svg" xmlns:xlink="http://www.w3.org/1999/xlink">
    <!-- Generator: Sketch 61 (89581) - https://sketch.com -->
    <title>lv1: ic / tag-fill</title>
    <desc>Created with Sketch.</desc>
    <g id="lv1:-ic-/-tag-fill" stroke="none" stroke-width="1" fill="none" fill-rule="evenodd">
        <g id="Mask" transform="translate(17.000000, 17.000000)" fill="#2C3149">
            <path d="M35.9636,0.0357 C37.0686,0.0357 37.9636,0.9317 37.9636,2.0357 L37.9636,17.8197 C37.9636,19.1557 37.4446,20.4107 36.4996,21.3547 L21.9406,35.9137 C20.6186,37.2367 18.8616,37.9647 16.9916,37.9647 C15.1206,37.9647 13.3636,37.2367 12.0416,35.9137 L2.0856,25.9577 L2.0856,25.9587 C0.7636,24.6367 0.0346,22.8787 0.0346,21.0087 C0.0346,19.1387 0.7636,17.3807 2.0856,16.0587 L16.6446,1.4997 C17.5756,0.5697 18.8636,0.0357 20.1796,0.0357 L35.9636,0.0357 Z M26.123,8.3584 C24.193,8.3584 22.623,9.9284 22.623,11.8584 C22.623,13.7884 24.193,15.3584 26.123,15.3584 C28.053,15.3584 29.623,13.7884 29.623,11.8584 C29.623,9.9284 28.053,8.3584 26.123,8.3584 Z" id="Combined-Shape"></path>
        </g>
    </g>
</svg>