<?xml version="1.0" encoding="UTF-8"?>
<svg width="22px" height="29px" viewBox="0 0 22 29" version="1.1" xmlns="http://www.w3.org/2000/svg" xmlns:xlink="http://www.w3.org/1999/xlink">
    <!-- Generator: Sketch 57.1 (83088) - https://sketch.com -->
    <title>underline</title>
    <desc>Created with Sketch.</desc>
    <g id="Page-1" stroke="none" stroke-width="1" fill="none" fill-rule="evenodd">
        <g id="Desktop" transform="translate(-115.000000, -39.000000)" fill="#000000" fill-rule="nonzero">
            <path d="M134.555556,63.8888889 C135.538667,63.8888889 136.333333,64.6835556 136.333333,65.6666667 C136.333333,66.6497778 135.538667,67.4444444 134.555556,67.4444444 L134.555556,67.4444444 L116.777778,67.4444444 C115.794667,67.4444444 115,66.6497778 115,65.6666667 C115,64.6835556 115.794667,63.8888889 116.777778,63.8888889 L116.777778,63.8888889 L134.555556,63.8888889 Z M134.555556,39 C135.538667,39 136.333333,39.7946667 136.333333,40.7777778 L136.333333,40.7777778 L136.333333,47.8888889 C136.333333,53.7715556 131.549333,58.5555556 125.666667,58.5555556 C119.784,58.5555556 115,53.7715556 115,47.8888889 L115,47.8888889 L115,40.7777778 C115,39.7946667 115.794667,39 116.777778,39 C117.760889,39 118.555556,39.7946667 118.555556,40.7777778 L118.555556,40.7777778 L118.555556,47.8888889 C118.555556,51.8106667 121.746667,55 125.666667,55 C129.586667,55 132.777778,51.8106667 132.777778,47.8888889 L132.777778,47.8888889 L132.777778,40.7777778 C132.777778,39.7946667 133.572444,39 134.555556,39 Z" id="underline"></path>
        </g>
    </g>
</svg>