<?xml version="1.0" encoding="UTF-8"?>
<svg width="500px" height="500px" viewBox="0 0 500 500" version="1.1" xmlns="http://www.w3.org/2000/svg" xmlns:xlink="http://www.w3.org/1999/xlink">
    <title>Artboard</title>
    <defs>
        <linearGradient x1="99.140087%" y1="65.6116319%" x2="33.8589812%" y2="46.9515087%" id="linearGradient-1">
            <stop stop-color="#0052CC" offset="18%"></stop>
            <stop stop-color="#2684FF" offset="100%"></stop>
        </linearGradient>
        <linearGradient x1="0.92569163%" y1="34.1578314%" x2="66.1800713%" y2="53.1150932%" id="linearGradient-2">
            <stop stop-color="#0052CC" offset="18%"></stop>
            <stop stop-color="#2684FF" offset="100%"></stop>
        </linearGradient>
    </defs>
    <g id="Artboard" stroke="none" stroke-width="1" fill="none" fill-rule="evenodd">
        <g id="Confluence-blue" transform="translate(0.000000, 10.000000)" fill-rule="nonzero">
            <path d="M18.1199247,366.74489 C12.9520446,375.146936 7.14811778,384.89648 2.21875525,392.66441 C-2.1934069,400.097789 0.175218353,409.684521 7.54564701,414.224377 L110.903248,477.636046 C114.531313,479.869277 118.907004,480.556285 123.047924,479.542826 C127.188844,478.529367 130.748019,475.900361 132.926368,472.246054 C137.060672,465.350035 142.387564,456.393137 148.191491,446.802122 C189.137002,379.427224 230.321031,387.670741 304.579492,423.022746 L407.062529,471.611937 C410.943925,473.453765 415.407931,473.650436 419.437159,472.157127 C423.466387,470.663818 426.717523,467.607768 428.449602,463.685479 L477.663721,352.715058 C481.140779,344.789428 477.602813,335.548085 469.713137,331.947737 C448.087546,321.80187 405.074883,301.589401 366.355535,282.962223 C227.061291,215.50806 108.677085,219.867613 18.1199247,366.74489 Z" id="Path" fill="url(#linearGradient-1)"></path>
            <path d="M481.892098,114.396066 C487.056549,105.934808 492.856625,96.1165572 497.782717,88.2938855 C502.191952,80.808122 499.824898,71.1538304 492.459359,66.5819804 L389.170335,2.72343587 C385.515094,0.250047926 381.001607,-0.587217006 376.708207,0.411675195 C372.414807,1.4105674 368.727126,4.15589657 366.526203,7.99176579 C362.394642,14.9363825 357.071284,23.9564019 351.271208,33.6150068 C310.352864,101.46471 269.196161,93.1630995 194.986969,57.561961 L92.8897412,8.86982078 C89.0109208,7.01501339 84.5498761,6.81695646 80.5233217,8.32078906 C76.4967673,9.82462166 73.2477885,12.9022087 71.5168584,16.8521388 L22.3353922,128.604592 C18.8606415,136.586076 22.3962601,145.892545 30.2807017,149.518265 C51.8919438,159.735632 94.8760686,180.090543 133.569726,198.848991 C273.089362,266.698694 391.395022,262.148773 481.892098,114.396066 Z" id="Path" fill="url(#linearGradient-2)"></path>
        </g>
    </g>
</svg>