<?xml version="1.0" encoding="UTF-8"?>
<svg width="500px" height="500px" viewBox="0 0 500 500" version="1.1" xmlns="http://www.w3.org/2000/svg" xmlns:xlink="http://www.w3.org/1999/xlink">
    <title>Artboard</title>
    <g id="Artboard" stroke="none" stroke-width="1" fill="none" fill-rule="evenodd">
        <g id="Dropbox_Icon" transform="translate(0.000000, 18.000000)" fill="#007EE5" fill-rule="nonzero">
            <path d="M147.40566,1.42108547e-14 L0,95.1493671 L102.59434,177.377215 L250,85.7518987 L147.40566,1.42108547e-14 Z M0,257.255696 L147.40566,353.579747 L250,267.827848 L102.59434,177.377215 L0,257.255696 Z M250,267.827848 L353.773585,353.579747 L500,258.43038 L398.584906,177.377215 L250,267.827848 L250,267.827848 Z M500,95.1493671 L353.773585,0 L250,85.7518987 L398.584906,177.377215 L500,95.1493671 Z M251.179245,286.622785 L147.40566,372.374684 L103.773585,343.007595 L103.773585,375.898734 L251.179245,464 L398.584906,375.898734 L398.584906,343.007595 L353.773585,372.374684 L251.179245,286.622785 Z" id="Shape"></path>
        </g>
    </g>
</svg>