<?xml version="1.0" encoding="UTF-8"?>
<svg width="500px" height="500px" viewBox="0 0 500 500" version="1.1" xmlns="http://www.w3.org/2000/svg" xmlns:xlink="http://www.w3.org/1999/xlink">
    <title>Artboard</title>
    <g id="Artboard" stroke="none" stroke-width="1" fill="none" fill-rule="evenodd">
        <g id="evernote-icon" transform="translate(41.000000, 0.000000)" fill="#7FCE2C" fill-rule="nonzero">
            <path d="M417.557692,262.788956 C419.120522,289.305655 416.307428,315.478186 412.79106,341.713292 C409.274693,368.495941 404.851884,395.153438 397.725378,421.247748 C393.036888,437.939971 387.207532,454.100296 378.940161,469.337621 C368.781765,487.985354 353.387889,498.592034 332.180284,499.436813 L272.292635,500 C262.353036,499.734051 252.319667,497.715966 242.598863,495.353711 C223.969929,490.66049 213.498967,478.145233 210.404564,459.372348 C207.4977,442.476752 207.700867,425.158766 211.029696,408.310101 C214.968027,389.067894 226.657996,377.647723 245.94332,375.410621 C258.711642,373.846214 271.730016,374.206027 284.638993,373.846214 C287.842795,373.736705 288.936776,375.379333 287.811538,378.336062 C284.748391,386.627419 284.123259,395.075218 286.279964,403.726389 C287.108264,406.964711 285.920514,408.529118 282.216606,408.49783 C276.354086,408.349628 270.488543,408.626732 264.666024,409.326966 C254.726425,410.672356 249.662855,416.679679 249.662855,426.723173 C249.662855,429.930207 250.069191,433.231106 250.694323,436.453785 C252.304038,444.385329 257.727059,448.65616 265.447439,449.547872 C282.998021,451.534669 300.564232,451.706754 318.114813,448.765668 C328.663917,446.982244 334.993378,440.31787 336.243643,429.867631 C338.619144,409.530339 338.666029,389.39642 332.68039,369.716179 C327.523051,352.632854 316.958319,345.233208 299.329596,343.121259 L246.818505,334.673461 C230.252506,331.654155 220.250393,320.79717 216.812167,304.949726 C214.780488,296.001318 214.624205,286.646163 213.46771,277.463094 C213.264543,275.804822 212.311216,274.209127 211.90488,272.769873 C211.279748,274.33428 210.248281,276.086416 210.076369,277.86984 C209.044901,288.507808 209.248069,299.349149 207.185134,309.783744 C204.684605,322.299001 200.8713,334.282359 196.714172,346.234429 C193.822936,354.604007 187.087139,359.328516 177.882069,358.749685 C140.182924,355.284862 102.904326,348.19672 66.5616818,337.583258 L56.5595692,334.344935 C42.0721343,330.277477 33.3202858,320.218339 29.3663256,306.388981 L13.7380247,246.112376 L2.17308204,178.842872 C0.375827431,167.031599 -0.952578148,155.016952 0.87593306,142.971018 C3.2826914,125.574811 15.1602001,113.200351 32.7576669,112.246063 L88.3631616,111.276131 C90.3479558,111.276131 92.3327501,111.323063 94.1925179,110.869385 C103.599015,109.164146 110.32441,100.798911 109.977102,91.236076 L109.195687,43.7406772 C108.445528,19.0856218 121.698327,6.5077889 142.890304,2.72192378 C168.432801,-1.97317101 194.720958,-0.579725455 219.625261,6.78938217 C234.206466,11.0915016 242.551979,21.2288595 246.427797,35.4180316 C247.334239,38.8597272 248.709529,40.1112528 252.210268,39.9078799 L292.562541,40.0643206 L344.651668,45.8526268 C355.372683,47.3388135 365.968671,49.7636445 376.408376,52.4231365 C394.615346,57.0850696 404.429919,69.8193431 407.071102,87.71616 L412.650406,140.202017 L417.338896,227.449 L417.495179,263.070549 L417.557692,262.788956 Z M346.698976,244.720054 C346.38641,234.301103 345.604995,224.899016 339.76001,216.811032 C335.181069,211.019782 328.355347,207.454131 320.990735,207.006255 C313.626123,206.558379 306.419381,209.27065 301.173735,214.464421 C295.485034,220.722049 293.453355,228.231203 292.359374,236.36612 C292.234347,236.898019 294.015973,238.337273 294.859902,238.337273 L307.362542,237.508137 C319.365078,237.617646 331.164445,239.275917 342.526219,243.656257 C343.557687,244.063003 344.651668,244.28202 346.667719,244.860851 L346.698976,244.720054 Z M96.3023385,17.7402317 C93.0963051,25.636854 91.6149364,34.1286478 91.9576708,42.6455923 L92.7390859,88.5452958 C92.8172274,94.130229 91.5669633,95.5851276 85.9720316,95.5851276 L38.680793,95.9918735 C29.5694936,95.9918735 20.817645,97.5562805 14.3944134,100.340925 L95.6615781,16.92674 C95.9741442,17.1301129 96.2867102,17.4429943 96.5992762,17.7558758 L96.3023385,17.7402317 Z" id="Shape"></path>
        </g>
    </g>
</svg>