<?xml version="1.0" encoding="UTF-8"?>
<svg width="500px" height="500px" viewBox="0 0 500 500" version="1.1" xmlns="http://www.w3.org/2000/svg" xmlns:xlink="http://www.w3.org/1999/xlink">
    <title>Artboard</title>
    <g id="Artboard" stroke="none" stroke-width="1" fill="none" fill-rule="evenodd">
        <g id="notion-(1)" fill="#000000">
            <path d="M318.27931,1.14032663 L31.2137931,21.5599933 C8.06724138,23.49666 -3.67522105e-13,38.0833266 -3.67522105e-13,55.5699933 L-3.67522105e-13,358.859993 C-3.67522105e-13,372.48666 5.02758621,384.133327 17.1206897,399.699993 L84.6017241,484.27166 C95.6862069,497.889993 105.758621,500.803327 126.924138,499.828327 L460.291379,480.383327 C488.486207,478.448327 496.551724,465.80166 496.551724,444.41666 L496.551724,103.208327 C496.551724,92.1533266 492.024138,88.9599933 478.675862,79.54666 C477.941379,79.0299933 477.17931,78.4933266 476.391379,77.9349933 L384.756897,15.7229933 C362.6,0.175993292 353.531034,-1.78034004 318.27931,1.14032663 Z M134.482759,97.61166 C107.265517,99.38666 101.081034,99.7899933 85.6241379,87.6599933 L46.3189655,57.52666 C42.3103448,53.6299933 44.3206897,48.7699933 54.3862069,47.8049933 L330.367241,28.36166 C353.525862,26.4133266 365.610345,34.2033266 374.67931,41.0033266 L422.015517,74.0583266 C424.031034,75.02666 429.058621,80.85166 423.012069,80.85166 L137.996552,97.3833266 L134.482759,97.61166 Z M102.736207,441.494993 L102.736207,151.82166 C102.736207,139.18666 106.765517,133.349993 118.844828,132.368327 L446.175862,113.904993 C457.27931,112.933327 462.306897,119.743327 462.306897,132.368327 L462.306897,420.099993 C462.306897,432.74666 460.286207,443.453327 442.15,444.41666 L128.918966,461.924993 C110.791379,462.888327 102.736207,457.063327 102.736207,441.494993 Z M411.958621,167.359993 C413.967241,176.118327 411.958621,184.86666 402.875862,185.85166 L387.782759,188.75666 L387.782759,402.61166 C374.67931,409.414993 362.596552,413.304993 352.527586,413.304993 C336.406897,413.304993 332.368966,408.439993 320.294828,393.86666 L221.574138,244.16666 L221.574138,389.00666 L252.812069,395.814993 C252.812069,395.814993 252.812069,413.304993 227.610345,413.304993 L158.131034,417.198327 C156.112069,413.304993 158.131034,403.59166 165.177586,401.644993 L183.308621,396.79166 L183.308621,205.28666 L158.134483,203.338327 C156.115517,194.58166 161.143103,181.954993 175.255172,180.974993 L249.791379,176.12166 L352.527586,327.769993 L352.527586,193.61666 L326.334483,190.713327 C324.322414,180.00666 332.368966,172.233327 342.443103,171.268327 L411.958621,167.359993 Z" id="Shape"></path>
        </g>
    </g>
</svg>