<?xml version="1.0" encoding="UTF-8"?>
<svg width="500px" height="500px" viewBox="0 0 500 500" version="1.1" xmlns="http://www.w3.org/2000/svg" xmlns:xlink="http://www.w3.org/1999/xlink">
    <title>Artboard</title>
    <g id="Artboard" stroke="none" stroke-width="1" fill="none" fill-rule="evenodd">
        <g id="quip-ar21" fill-rule="nonzero">
            <path d="M394.488041,95.4001795 C355.529355,58.3914187 303.859462,37.8378684 250.193701,38.0009633 L236.621789,38.4272086 C123.753503,46.6990351 37.4919612,142.782185 41.109737,256.199965 C44.7275127,369.617746 136.936161,459.977223 250.100924,461 L460.997873,461 L460.997873,249.587352 C461.260788,191.139224 437.138835,135.242719 394.488041,95.4001795 L394.488041,95.4001795 Z M163.778793,143.77471 L336.396548,143.77471 C343.248773,143.77471 349.584099,147.42938 353.003584,153.383168 C356.42307,159.336957 356.449578,166.672874 353.003584,172.613373 C349.557591,178.553872 343.248773,182.221831 336.396548,182.221831 L163.792047,182.221831 C156.939822,182.221831 150.604496,178.567162 147.185011,172.613373 C143.765525,166.659585 143.739017,159.323667 147.185011,153.383168 C150.631004,147.442669 156.939822,143.77471 163.792047,143.77471 L163.778793,143.77471 Z M336.396548,355.293676 L163.792047,355.293676 C153.584439,354.755538 145.583041,346.299565 145.583041,336.050181 C145.583041,325.800798 153.584439,317.344825 163.792047,316.806687 L336.409801,316.806687 C346.61741,317.344825 354.618808,325.800798 354.618808,336.050181 C354.618808,346.299565 346.61741,354.755538 336.409801,355.293676 L336.396548,355.293676 Z M413.069897,249.587352 C413.069897,254.690599 411.055317,259.554632 407.450278,263.182722 C403.845239,266.810811 398.967833,268.817557 393.89162,268.817557 L106.389752,268.817557 C99.537527,268.817557 93.2022009,265.162888 89.7827153,259.209099 C86.3632297,253.255311 86.3367221,245.919393 89.7827153,239.978894 C93.2287086,234.038396 99.537527,230.370437 106.389752,230.370437 L393.904873,230.370437 C398.99434,230.370437 403.845239,232.390472 407.463531,236.005272 C411.081824,239.620072 413.083151,244.510684 413.083151,249.600642 L413.069897,249.587352 Z" id="Shape" fill="#F27557"></path>
            <path d="M420.949345,67.5798009 C322.551277,-24.6380247 168.609128,-22.1700369 73.2008738,73.0996017 C-22.2073807,168.36924 -24.6656714,322.087731 67.6730418,420.342839 C114.976797,470.440218 180.84491,498.887532 249.799161,499 L480.785469,499 C491.385242,498.970842 499.970799,490.397759 500,479.813385 L500,249.494389 C499.829716,180.573494 471.230927,114.767058 420.936057,67.5665322 L420.949345,67.5798009 Z M461.252024,460.600232 L249.799161,460.600232 C136.344131,459.572753 43.9032105,369.353649 40.2797162,256.116587 C36.6562218,142.879525 123.140588,46.9515826 236.298494,38.6937281 C240.816434,38.6937281 245.42739,38.269128 249.905465,38.269128 C366.654341,38.4018155 461.238736,132.928404 461.238736,249.507658 L461.252024,460.600232 Z" id="Shape" fill="#C34027"></path>
            <path d="M336.396299,316.607439 L163.696522,316.607439 C153.484064,317.144257 145.478863,325.579483 145.478863,335.80372 C145.478863,346.027956 153.484064,354.463182 163.696522,355 L336.396299,355 C346.608757,354.463182 354.613957,346.027956 354.613957,335.80372 C354.613957,325.579483 346.608757,317.144257 336.396299,316.607439 Z M163.696522,182.35279 L336.396299,182.35279 C343.25178,182.35279 349.590116,178.707087 353.011226,172.767907 C356.432337,166.828726 356.458857,159.510807 353.011226,153.584883 C349.57639,147.658745 343.247076,144.007466 336.396299,144 L163.696522,144 C156.841041,144 150.502705,147.645702 147.081594,153.584883 C143.660484,159.524064 143.633964,166.841983 147.081594,172.767907 C150.516431,178.694045 156.845745,182.345324 163.696522,182.35279 Z M106.174131,230.343491 C95.5660362,230.343491 87,238.920834 87,249.513257 C87,260.10568 95.5792963,268.683023 106.174131,268.683023 L393.825869,268.683023 C404.433964,268.683023 413,260.10568 413,249.513257 C413,238.920834 404.420704,230.343491 393.825869,230.343491 L106.174131,230.343491 Z" id="Shape" fill="#FFFFFF"></path>
        </g>
    </g>
</svg>