<svg width="1024" height="1024" viewBox="0 0 1024 1024" fill="none" xmlns="http://www.w3.org/2000/svg">
<rect x="100" y="100" width="824" height="824" rx="184" fill="url(#paint0_linear)"/>
<path d="M474.773 600.376C474.853 600.179 474.931 599.981 475.008 599.784C477.08 594.536 477.824 589.296 477.651 584.235C451.725 605.661 424.133 619.36 400.336 623.392C404.365 599.597 418.064 572.008 439.485 546.083C434.408 545.907 429.149 546.659 423.885 548.739C423.648 548.832 423.411 548.928 423.173 549.021C405.997 555.923 389.683 566.499 375.499 580.683C345.021 611.16 331.213 651.485 334.685 689.043C372.24 692.512 412.565 678.704 443.043 648.227C457.275 633.995 467.872 617.616 474.773 600.376Z" fill="white"/>
<path d="M598.227 751.136L525.397 573.917L751.299 272L598.227 751.136Z" fill="white"/>
<path d="M751.299 272L449.779 498.299L272 425.069L751.299 272Z" fill="white" fill-opacity="0.8"/>
<path d="M751.299 272L523.179 500.12L449.779 498.299L751.299 272Z" fill="white"/>
<path d="M525.397 573.917L523.179 500.12L751.299 272L525.397 573.917Z" fill="white" fill-opacity="0.8"/>
<defs>
<linearGradient id="paint0_linear" x1="512" y1="100" x2="512" y2="924" gradientUnits="userSpaceOnUse">
<stop stop-color="#007C8D"/>
<stop offset="1" stop-color="#004654"/>
</linearGradient>
</defs>
</svg>
