<svg width="200" height="200" viewBox="0 0 200 200" fill="none" xmlns="http://www.w3.org/2000/svg">
<path d="M130.711 185.483C129.224 185.483 127.974 184.325 127.88 182.821C127.783 181.259 128.969 179.913 130.529 179.812C130.61 179.805 133.996 179.542 138.469 177.715C144.438 175.276 149.438 171.343 153.33 166.024C154.255 164.758 156.032 164.483 157.297 165.409C158.563 166.335 158.838 168.111 157.912 169.376C146.985 184.312 131.542 185.437 130.89 185.478C130.83 185.481 130.77 185.483 130.711 185.483" fill="#6E7D8E"/>
<path d="M20.5525 134.307C20.5525 132.819 21.7102 131.569 23.2148 131.476C24.7771 131.378 26.1228 132.563 26.2246 134.124C26.2308 134.206 26.4932 137.591 28.3204 142.064C30.7593 148.033 34.6929 153.033 40.0119 156.925C41.2776 157.85 41.5525 159.627 40.6268 160.893C39.7011 162.158 37.9242 162.433 36.6591 161.507C21.7239 150.58 20.5984 135.138 20.5581 134.485C20.5544 134.425 20.5525 134.366 20.5525 134.307" fill="#6E7D8E"/>
<path d="M105.095 22.3475C106.2 23.3427 106.354 25.0396 105.416 26.2203C104.443 27.4463 102.662 27.6529 101.434 26.6844C101.37 26.6341 98.6781 24.5637 94.1316 22.9282C88.0637 20.7455 81.716 20.3218 75.2653 21.67C73.7303 21.9901 72.2257 21.0061 71.9056 19.4711C71.5848 17.9362 72.5688 16.4322 74.1038 16.1115C92.2187 12.3274 104.446 21.8257 104.958 22.2315L105.095 22.3475" fill="#6E7D8E"/>
<path d="M35.0486 131.937L51.4027 123.358L57.5618 139.564L41.3578 145.282L35.0486 131.937Z" fill="#F78E73"/>
<path d="M40.3123 131.229C40.3123 131.229 45.4582 130.168 47.6465 131.229C49.8354 132.289 51.7054 138.795 51.7054 138.795L62.4923 139.564L52.7328 121.229L42.619 126.02L40.3123 131.229Z" fill="#F57C71"/>
<path d="M43.884 70.5249C35.5937 74.1656 31.8245 83.8377 35.4646 92.128L63.2262 155.345C66.8669 163.635 76.5389 167.405 84.8286 163.764L165.612 128.289L123.247 36.084L43.884 70.5249Z" fill="#D5D3D0"/>
<path d="M171.193 125.951C179.483 122.31 183.253 112.638 179.613 104.347L151.851 41.1303C148.21 32.8407 138.538 29.0709 130.249 32.7116L49.465 68.1864L98.0184 157.468L171.193 125.951Z" fill="#D5D3D0"/>
<path d="M152.79 125.957C149.744 125.957 147.274 123.487 147.274 120.441C147.274 120.042 147.317 119.653 147.397 119.278C147.919 121.559 149.96 123.26 152.399 123.26C155.233 123.26 157.53 120.964 157.53 118.13C157.53 117.94 157.52 117.752 157.499 117.567C158.012 118.404 158.307 119.388 158.307 120.441C158.307 123.487 155.837 125.957 152.79 125.957Z" fill="#B0AEAD"/>
<path d="M131.031 53.2825C127.985 53.2825 125.515 50.8132 125.515 47.7662C125.515 47.5298 125.53 47.2972 125.558 47.0689C125.907 49.563 128.05 51.4827 130.64 51.4827C133.473 51.4827 135.77 49.1858 135.77 46.3516C135.77 45.6449 135.628 44.9712 135.369 44.3582C136.107 45.2963 136.547 46.4801 136.547 47.7662C136.547 50.8132 134.078 53.2825 131.031 53.2825" fill="#B0AEAD"/>
<path d="M52.7708 94.7227C50.59 94.7227 48.7045 93.457 47.8092 91.6199L49.217 90.7457C50.1576 91.8221 51.5405 92.5021 53.0823 92.5021C55.6826 92.5021 57.8311 90.5682 58.168 88.0604C58.2456 88.4302 58.2872 88.8136 58.2872 89.2064C58.2872 92.2527 55.8172 94.7227 52.7708 94.7227V94.7227ZM47.3066 89.9689C47.2719 89.7201 47.2539 89.4651 47.2539 89.2064C47.2539 88.1578 47.5467 87.1781 48.0543 86.343C47.9873 86.6756 47.9513 87.0193 47.9513 87.3711C47.9513 88.0641 48.089 88.7255 48.3378 89.3286L47.3066 89.9689" fill="#B0AEAD"/>
<path d="M64.2396 157.283C63.8661 156.667 63.5242 156.023 63.2264 155.345L60.0237 148.053L63.4764 148.85L85.5597 129.687L90.8229 124.305C90.8229 124.305 91.5916 125.014 91.2373 125.842C90.8824 126.67 90.0256 131.703 89.5671 132.854C89.108 134.005 85.6776 136.134 85.6776 136.134C85.6776 136.134 74.0853 152.399 71.5415 154.409C70.1257 155.529 66.8584 156.575 64.2396 157.283" fill="#B0AEAD"/>
<path d="M70.4569 121.362C68.8233 121.362 64.5032 120.825 64.5032 120.825L46.5074 117.273L43.3735 110.136L43.9201 108.326L54.6426 110.662L71.8963 115.612L74.9719 116.911L74.7355 118.745L72.8965 119.573C72.8965 119.573 72.0149 121.232 70.8317 121.348C70.733 121.358 70.6065 121.362 70.4569 121.362Z" fill="#B0AEAD"/>
<path d="M100.976 156.598L98.6106 137.277L96.3237 126.985L89.958 116.083L123.239 101.601C123.239 101.601 123.478 101.987 123.491 102.322C123.505 102.656 123.822 107.774 123.822 107.774L125.023 118.933L131.377 129.219L141.069 139.067L100.976 156.598" fill="#B0AEAD"/>
<path d="M123.344 108.418L94.8518 120.727C94.2786 120.975 94.0149 121.64 94.2624 122.214L102.383 141.011C102.63 141.584 103.296 141.848 103.869 141.601L132.361 129.292C132.934 129.045 133.199 128.379 132.951 127.806L124.831 109.008C124.583 108.435 123.918 108.171 123.344 108.418" fill="#E7E7E6"/>
<path d="M120.722 110.486L98.1544 120.235C97.6904 120.436 97.4769 120.976 97.6773 121.44L102.557 132.737C102.757 133.201 103.297 133.415 103.762 133.214L126.329 123.465C126.794 123.265 127.007 122.726 126.807 122.261L121.927 110.965C121.726 110.5 121.187 110.286 120.722 110.486" fill="#5E6061"/>
<path d="M117.343 128.411L113.522 130.062C113.041 130.27 112.818 130.83 113.026 131.311L114.391 134.472C114.6 134.954 115.16 135.176 115.642 134.968L119.462 133.317C119.945 133.109 120.166 132.55 119.958 132.068L118.593 128.907C118.385 128.425 117.826 128.203 117.343 128.411Z" fill="#CBCAC8"/>
<path d="M122.306 101.413L106.385 108.291L90.463 115.169C89.9319 115.399 89.7886 116.086 90.1851 116.508L94.0554 120.632C94.2316 120.82 94.5064 120.877 94.7416 120.774L109.099 114.573L123.455 108.371C123.691 108.269 123.837 108.03 123.822 107.774L123.472 102.129C123.437 101.551 122.838 101.184 122.306 101.413" fill="white"/>
<path d="M123.821 107.774L123.473 102.156C123.255 101.953 122.904 101.883 122.571 102.026L106.649 108.905L90.7278 115.783C90.3952 115.927 90.206 116.23 90.2029 116.528L94.0552 120.632C94.2314 120.82 94.5062 120.877 94.7414 120.774L109.098 114.573L123.455 108.371C123.69 108.269 123.837 108.03 123.821 107.774" fill="#7A7B7C"/>
<path d="M122.408 108.132L122.301 103.498C122.112 103.337 121.801 103.292 121.498 103.424L106.99 109.691L92.4813 115.958C92.178 116.089 91.9974 116.347 91.9844 116.594L95.2845 119.848C95.4359 119.997 95.6791 120.034 95.8944 119.941L108.976 114.289L122.058 108.639C122.273 108.546 122.413 108.343 122.408 108.132" fill="#A4B3C2"/>
<path d="M108.296 142.126L107.004 135.922C107.004 135.922 108.221 131.982 108.129 131.231C108.036 130.48 106.704 125.775 106.704 125.775C106.704 125.775 105.808 125.68 105.617 126.158C105.425 126.637 105.617 128.94 105.617 128.94C105.617 128.94 104.947 128.216 104.755 127.785C104.61 127.459 104.301 124.226 104.159 122.674C104.116 122.207 103.724 121.851 103.255 121.851C102.799 121.851 102.415 122.19 102.356 122.642L102.122 124.464L100.591 124.77L99.8732 126.445L98.262 129.891L99.2764 133.78L101.548 136.782L102.027 142.126H108.296" fill="#EBC4B2"/>
<path d="M130.003 132.854L125.731 128.172C125.731 128.172 121.825 126.851 121.271 126.336C120.717 125.822 117.683 121.986 117.683 121.986C117.683 121.986 118.131 121.203 118.631 121.328C119.131 121.454 120.885 122.958 120.885 122.958C120.885 122.958 120.691 121.99 120.454 121.583C120.275 121.275 117.836 119.13 116.662 118.106C116.307 117.798 116.248 117.272 116.523 116.892C116.79 116.522 117.29 116.408 117.692 116.627L119.304 117.505L120.449 116.442L122.228 116.842L125.964 117.555L128.523 120.655L129.625 124.255L133.675 127.773L130.003 132.854" fill="#EBC4B2"/>
<path d="M90.7316 127.469L64.5069 136.81L57.813 118.015L84.0377 108.675L90.7316 127.469Z" fill="white"/>
<path d="M89.567 126.315L83.3682 108.912L57.813 118.015L64.0106 135.417L89.567 126.315Z" fill="#C6CCD8"/>
<path d="M89.3561 126.076L63.1314 135.416L56.4375 116.62L82.6622 107.28L89.3561 126.076Z" fill="white"/>
<path d="M61.086 110.662L64.3644 112.041C64.3644 112.041 68.1113 111.253 69.349 111.726C70.5862 112.199 74.2883 114.557 74.6786 114.837C75.0688 115.116 75.6707 116.416 75.6707 116.692C75.6707 116.968 74.8777 118.151 74.0197 118.23C73.1622 118.309 69.215 118.426 69.215 118.426C69.215 118.426 70.2183 119.294 70.3858 119.531C70.5527 119.767 70.5862 120.437 70.4528 120.556C70.3188 120.674 67.2749 119.373 66.405 119.097C65.5352 118.821 64.231 117.678 63.9965 117.441C63.7626 117.205 62.9597 116.298 62.9597 116.298L59.3469 114.837L61.086 110.662" fill="#F9CBA6"/>
<path d="M81.7552 137.277L84.0372 134.549C84.0372 134.549 87.7288 133.533 88.6123 132.545C89.4952 131.558 89.2141 129.996 89.4331 129.568C89.6521 129.142 89.3301 126.382 89.5194 126.18C90.2 125.455 91.1592 124.747 91.7219 124.127C92.7159 123.033 92.0048 122.539 91.5035 122.742C90.705 123.065 85.4232 126.65 85.4232 126.65C85.4232 126.65 85.9177 125.42 85.9581 125.133C85.9984 124.846 85.721 124.235 85.5479 124.191C85.3748 124.148 83.2647 126.698 82.6182 127.342C81.9711 127.986 81.3358 129.599 81.2359 129.917C81.136 130.235 80.8376 131.409 80.8376 131.409L78.2969 134.363L81.7552 137.277" fill="#F9CBA6"/>
<path d="M101.04 70.033L80.2779 76.9447C79.0389 77.3573 78.3688 78.6962 78.7814 79.9358L82.9253 92.3825C83.3379 93.6215 84.6762 94.2915 85.9158 93.879L106.678 86.9673C107.917 86.5547 108.587 85.2158 108.175 83.9768L104.031 71.5295C103.618 70.2905 102.279 69.6204 101.04 70.033" fill="#5E7489"/>
<path d="M81.3933 77.2108C80.4719 77.5173 79.9731 78.5162 80.2796 79.4369L84.4235 91.8835C84.73 92.8043 85.7277 93.3043 86.649 92.9972L106.487 86.3933C107.408 86.0868 107.907 85.0885 107.601 84.1671L103.457 71.7205C103.15 70.7998 102.152 70.3003 101.231 70.6068L81.3933 77.2108ZM106.869 87.5411L86.1061 94.4534C84.5532 94.9702 82.8681 94.127 82.3512 92.5735L78.2073 80.1262C77.6899 78.5726 78.5331 76.8882 80.0866 76.3713L100.849 69.459C102.403 68.9416 104.088 69.7847 104.605 71.3383L108.748 83.7856C109.266 85.3392 108.422 87.0236 106.869 87.5411Z" fill="#FAFDFE"/>
<path d="M82.1559 85.7252C82.2844 86.1117 82.0753 86.5286 81.6894 86.6577C81.3028 86.7861 80.8859 86.577 80.7568 86.1911C80.6284 85.8046 80.8375 85.387 81.2234 85.2586C81.6099 85.1302 82.0275 85.3393 82.1559 85.7252Z" fill="#D5D3D0"/>
<path d="M80.5928 87.2917L63.0598 62.1044L105.054 43.6631L109.099 53.775L108.625 58.6522L77.8889 69.8648L81.2827 75.973L80.0865 76.3714C78.5329 76.8882 77.6898 78.5727 78.2072 80.1263L80.5928 87.2917" fill="#B0AEAD"/>
<path d="M83.7797 89.9496L80.2798 79.4369C79.9733 78.5162 80.4721 77.5173 81.3935 77.2108L81.8805 77.0489L83.8839 80.6549L88.9839 82.0924L91.4737 88.0077L83.7797 89.9496" fill="#687784"/>
<path d="M82.6428 90.2363L80.5929 87.2917L78.2073 80.1263C77.6899 78.5727 78.5331 76.8882 80.0866 76.3714L81.2828 75.9731L81.8803 77.0489L81.3933 77.2109C80.4719 77.5174 79.9731 78.5163 80.2796 79.437L83.7795 89.9497L82.6428 90.2363V90.2363ZM81.4566 85.2207C81.3796 85.2207 81.3008 85.2331 81.2233 85.2586C80.8374 85.387 80.6283 85.8046 80.7567 86.1911C80.8603 86.5001 81.1476 86.6955 81.4566 86.6955C81.5335 86.6955 81.6123 86.6831 81.6892 86.6577C82.0752 86.5286 82.2842 86.1117 82.1558 85.7251C82.0534 85.4162 81.7656 85.2207 81.4566 85.2207Z" fill="#C8C9C7"/>
<path d="M81.4567 86.6955C81.1477 86.6955 80.8604 86.5001 80.7568 86.1911C80.6284 85.8046 80.8375 85.387 81.2234 85.2586C81.301 85.2332 81.3798 85.2207 81.4567 85.2207C81.7657 85.2207 82.0536 85.4162 82.1559 85.7252C82.2844 86.1117 82.0753 86.5286 81.6894 86.6577C81.6124 86.6831 81.5336 86.6955 81.4567 86.6955Z" fill="#B0AEAD"/>
<path d="M90.3811 84.8602L86.324 82.9977C86.1199 82.904 85.878 82.9654 85.7427 83.1447L85.7017 83.1987C85.5162 83.4444 85.6093 83.7993 85.891 83.924L89.9884 85.7326C90.2179 85.8337 90.4866 85.7406 90.6045 85.5191C90.7335 85.2766 90.6311 84.975 90.3811 84.8602" fill="#FEF7EB"/>
<path d="M81.6558 58.6524C81.6558 58.6524 80.4627 59.1537 79.3435 59.2976C78.2248 59.441 76.8052 58.8242 75.8591 58.975C74.9129 59.1258 72.5472 60.7817 72.5472 60.7817L71.6401 62.9899L71.0879 66.6176L75.1493 68.2735C75.1493 68.2735 76.1941 68.7413 77.8891 67.8349C79.5854 66.9278 82.6429 64.2909 82.6429 64.2909L84.691 63.2269L81.6558 58.6524Z" fill="#EBC4B2"/>
<path d="M84.4972 79.1473L87.2643 80.1108C87.2643 80.1108 88.7162 81.6638 88.9836 82.0925C89.2516 82.5206 88.9836 83.8061 88.9836 83.8061C88.9836 83.8061 89.9477 84.7697 89.8944 85.6799C89.8404 86.5907 88.3929 87.8222 86.5725 87.8756C84.7534 87.9289 82.8251 88.1436 82.397 87.8756C81.9689 87.6076 79.9332 83.5114 79.9332 83.5114L77.042 79.522L82.665 76.7908L84.4972 79.1473" fill="#EBC4B2"/>
<path d="M25.8734 136.695C25.8734 136.695 24.9713 127.221 27.123 124.264C29.2741 121.307 40.9011 100.869 41.8845 100.054C42.8679 99.2394 63.4764 110.6 63.4764 110.6C63.4764 110.6 61.1628 116.024 60.922 116.13C60.6807 116.235 45.4005 110.68 45.4005 110.68L42.7376 119.218L46.6923 117.695L50.2393 125.771C50.2393 125.771 46.0352 128.416 38.8927 131.937C31.7502 135.456 25.8734 136.695 25.8734 136.695" fill="#87C7DA"/>
<path d="M33.8224 152.178C33.7275 152.422 44.077 160.036 48.0745 158.664C52.0708 157.292 67.6239 153.432 69.7427 151.927C71.8609 150.422 83.5251 136.573 83.5251 136.573L79.8224 132.067L67.5271 143.196L59.0451 145.824L55.0358 136.695C55.0358 136.695 37.8329 141.888 33.8224 152.178Z" fill="#87C7DA"/>
<path d="M100.241 140.131L109.416 138.913L112.876 151.448L136.333 141.146L128.197 133.093L133.774 126.3L151.803 141.102C151.803 141.102 157.086 156.692 156.947 158.414C156.809 160.136 150.551 173.232 141.059 177.656C131.566 182.08 118.705 176.357 116.996 175.958C115.287 175.558 105.147 162.686 104.959 162.257C104.771 161.828 100.241 140.131 100.241 140.131" fill="#F38267"/>
<path d="M109.648 52.5949C108.482 46.3757 107.949 32.4257 106.787 30.4453C105.265 27.8549 101.754 24.2229 96.2051 22.06C96.2051 22.06 72.5 20.0126 67.0687 23.3561C61.6374 26.6997 59.6594 56.0582 59.6712 57.3946C59.683 58.7311 77.9313 81.956 77.9313 81.956L83.7219 77.4168L72.0099 58.1739L98.0373 46.7448L98.5038 49.9891L80.3318 58.3743L83.9353 64.8194L107.206 56.7599C108.944 56.173 109.985 54.3979 109.648 52.5949" fill="#E82F5A"/>
<path d="M80.7145 79.7745L78.5207 80.2404L59.8157 57.7731L77.9312 81.956L80.7145 79.7745" fill="#CB254B"/>
<path d="M109.673 53.7751C109.627 53.8397 108.531 55.3541 106.852 55.9907C105.136 56.6416 85.0231 62.7926 85.0231 62.7926L82.6431 62.5072L83.9354 64.8196L107.206 56.7601C108.559 56.3028 109.486 55.1246 109.673 53.7751" fill="#CB254B"/>
<path d="M72.0098 58.174L75.7405 30.6172C75.7405 30.6172 86.466 29.5135 89.4627 30.6172C92.4594 31.7216 96.9384 33.7238 96.9384 33.7238L98.0372 46.7449L72.0098 58.174Z" fill="#CB254B"/>
<path d="M68.8008 25.3336C68.8008 25.3336 74.4697 32.2763 74.5926 39.0962C74.7154 45.9167 76.9236 43.0776 76.9236 43.0776L75.7404 30.6173C75.7404 30.6173 72.8225 26.5956 68.8008 25.3336" fill="#CB254B"/>
<path d="M97.1804 36.5984C97.1804 36.5984 95.9296 29.2766 99.4778 25.7283C99.4778 25.7283 94.9828 27.6994 93.6426 32.8255C92.3018 37.9516 97.1804 36.5984 97.1804 36.5984Z" fill="#CB254B"/>
<path d="M92.1872 31.4258C92.3739 31.3575 92.0432 36.4203 92.0432 36.4203L90.3829 39.0057C90.3829 39.0057 86.5207 41.7648 85.7966 42.101C85.0726 42.4367 80.8604 42.5 80.8604 42.5C80.8604 42.5 79.5997 43.1037 79.0041 42.8282C78.4085 42.5521 77.78 40.4531 77.78 40.4531C77.78 40.4531 75.4446 39.1924 75.5265 34.3623C75.6084 29.5316 81.7514 27.419 81.7514 27.419L92.1872 31.4258" fill="#EBC4B2"/>
<path d="M77.1576 22.4505C77.1576 22.4505 75.725 21.8642 74.9085 22.958C74.0914 24.0519 75.4737 26.0863 75.4737 26.0863L77.1576 22.4505Z" fill="#EBC4B2"/>
<path d="M96.2092 31.6621C96.2092 31.6621 97.2721 31.9606 97.2826 32.8565C97.2944 33.7524 95.2308 35.9394 93.7976 35.7763C92.3644 35.6143 96.2092 31.6621 96.2092 31.6621Z" fill="#EBC4B2"/>
<path d="M74.8476 32.8459C74.8476 32.8459 74.0411 24.1058 76.8945 19.9526C79.7472 15.8 82.8712 15.0772 82.8712 15.0772C82.8712 15.0772 85.8325 13.1433 89.562 14.458C93.292 15.7721 96.54 19.2397 97.74 22.8941C98.9393 26.5479 97.2107 31.8421 95.1912 34.4181C93.171 36.9948 90.3828 39.0057 90.3828 39.0057C90.3828 39.0057 91.5362 35.6181 90.1886 35.4065C90.1886 35.4065 84.7759 39.5101 81.1625 39.283C77.5497 39.0559 76.856 38.3213 76.856 38.3213C76.856 38.3213 81.2704 37.2666 83.1113 35.744C83.1113 35.744 77.9579 37.2821 75.6077 37.2262L77.3449 35.0361L76.1468 35.6168C76.1468 35.6168 74.9376 34.5416 74.8476 32.8459" fill="#343947"/>
<path d="M46.0408 142.877C46.0408 142.877 46.5229 144.826 45.6549 146.197C44.7881 147.569 43.1316 147.845 42.0278 149.383C40.9234 150.92 38.7624 153.942 35.7223 154.009C32.6827 154.074 30.3958 150.881 28.6213 150.21C26.8469 149.54 22.3121 150.802 20.8932 147.963C19.4736 145.124 22.8246 140.353 20.6171 137.908C18.4089 135.463 18.7303 132.53 19.9861 131.126C22.0267 128.842 24.7176 128.622 27.8328 130.397C30.9474 132.171 32.7224 130.85 34.142 130.377C35.561 129.903 37.9664 129.728 38.8735 130.132C39.7806 130.534 40.3948 132.127 40.3948 132.127L46.0408 142.877" fill="#1C1E45"/>
<path d="M46.6922 117.695L42.7375 119.218L40.3123 125.369C40.3123 125.369 44.1565 124.837 45.0443 125.369C45.4575 125.617 46.2182 126.669 46.9125 127.721C49.0673 126.508 50.2393 125.771 50.2393 125.771L46.6922 117.695Z" fill="#68AFC2"/>
<path d="M55.0359 136.695C55.0359 136.695 53.9774 137.014 52.3245 137.652C53.0418 139.303 54.0953 142.094 53.857 143.763C53.5021 146.248 50.2393 148.141 50.2393 148.141L59.0451 145.824L55.0359 136.695Z" fill="#68AFC2"/>
<path d="M124.067 161.97C124.067 161.97 122.497 157.705 124.099 155.199C125.966 152.278 131.073 150.368 134.313 151.614C139.06 153.443 138.727 154.979 138.727 154.979L124.067 161.97Z" fill="#F9CBA6"/>
<path d="M141.036 155.374C141.036 155.374 137.605 151.671 132.503 152.487C127.4 153.302 126.266 154.375 126.266 154.375L127.593 154.338L125.223 156.15C125.223 156.15 122.418 160.737 122.493 163.997C122.568 167.256 124.111 169.342 124.111 169.342C124.111 169.342 124.712 172.533 126.221 173.901C127.728 175.268 131.36 176.721 134.1 176.438C136.841 176.156 139.229 174.703 139.229 174.703C139.229 174.703 141.552 174.547 143.293 172.47C145.035 170.393 144.904 168.153 144.904 168.153C144.904 168.153 146.562 166.101 146.651 164.889C146.74 163.677 145.813 160.614 145.813 160.614C145.813 160.614 144.647 155.558 141.036 155.374" fill="#6B1F1F"/>
<path d="M112.876 151.447L114.305 157.308L118.208 161.97C118.208 161.97 119.273 155.438 124.359 151.227C129.446 147.016 138.318 148.081 139.619 148.141C140.92 148.2 145.888 154.01 145.888 154.01L143.168 146.763L136.333 141.146L112.876 151.447" fill="#E36D58"/>
<path d="M155.372 162.257C155.371 162.258 145.763 174.616 136.898 177.063C129.129 179.207 119.694 176.745 117.478 176.103C120.392 177.07 132.194 181.788 141.059 177.656C147.815 174.507 152.933 166.965 155.372 162.257Z" fill="#E36D58"/>
<path d="M88.1699 83.8129L83.658 81.7418C83.431 81.6376 83.1617 81.7052 83.0115 81.905L82.9663 81.9652C82.7603 82.2388 82.8626 82.6334 83.1766 82.7718L87.7337 84.7826C87.9887 84.8949 88.2871 84.7919 88.418 84.5456C88.5614 84.2751 88.4478 83.94 88.1699 83.8129" fill="#FEF7EB"/>
<path d="M147.268 98.0439H119.43V78.0918H147.268V98.0439Z" fill="white"/>
<path d="M146.559 96.5648V78.0918H119.43V96.5648H146.559" fill="#C6CCD8"/>
<path d="M146.44 96.2694H118.602V76.3173H146.44V96.2694Z" fill="white"/>
<path d="M152.167 75.501L124.655 79.7454L121.613 60.0267L149.126 55.7822L152.167 75.501" fill="white"/>
<path d="M151.24 74.1477L148.424 55.8901L121.613 60.0265L124.429 78.2836L151.24 74.1477Z" fill="#C6CCD8"/>
<path d="M151.078 73.8736L123.566 78.118L120.524 58.3992L148.036 54.1548L151.078 73.8736Z" fill="white"/>
<path d="M46.3826 91.5243C46.6258 91.9158 47.1395 92.0356 47.531 91.793L50.4135 90.0024L49.5338 88.5859L46.6512 90.3759C46.2597 90.6191 46.1393 91.1335 46.3826 91.5243" fill="#F0523A"/>
<path d="M58.2132 87.3711C58.2132 90.2047 55.9157 92.5022 53.0822 92.5022C50.2487 92.5022 47.9512 90.2047 47.9512 87.3711C47.9512 84.5376 50.2487 82.2401 53.0822 82.2401C55.9157 82.2401 58.2132 84.5376 58.2132 87.3711Z" fill="#F0523A"/>
<path d="M48.3513 86.523C48.4109 86.0409 48.5579 85.57 48.7645 85.1252C48.9774 84.6834 49.2584 84.2708 49.6003 83.9128C50.2852 83.1981 51.1991 82.7036 52.1776 82.5169C52.3004 82.4976 52.4239 82.4833 52.5474 82.4666C52.6702 82.4467 52.7955 82.4517 52.919 82.4436C52.981 82.4418 53.0431 82.4368 53.1051 82.4381L53.2919 82.4449C53.416 82.4461 53.5388 82.4629 53.6629 82.4759C54.1549 82.5386 54.6388 82.6769 55.0849 82.8904C55.531 83.1025 55.9467 83.3793 56.3016 83.7186C56.654 84.0605 56.9618 84.447 57.1901 84.8751C56.6391 84.0773 55.8748 83.4463 55.0006 83.079C54.1289 82.7011 53.1517 82.6124 52.2253 82.7762C51.299 82.9487 50.4304 83.4028 49.7454 84.0574C49.0667 84.72 48.5772 85.5793 48.3513 86.523" fill="#FAFDFE"/>
<path d="M57.2289 87.3711C57.2289 89.6611 55.372 91.5175 53.0819 91.5175C50.7925 91.5175 48.9355 89.6611 48.9355 87.3711C48.9355 85.0811 50.7925 83.2247 53.0819 83.2247C55.372 83.2247 57.2289 85.0811 57.2289 87.3711Z" fill="#8E5534"/>
<path d="M49.1069 88.5487C49.6138 90.2648 51.2015 91.5175 53.0821 91.5175C55.1823 91.5175 56.917 89.9559 57.19 87.9307C56.6825 86.2146 55.0948 84.9613 53.2142 84.9613C51.114 84.9613 49.3799 86.523 49.1069 88.5487" fill="#A06541"/>
<path d="M56.3686 86.4175C56.2985 86.3356 56.2253 86.2562 56.149 86.1798C56.072 85.9825 55.9759 85.7921 55.8611 85.6115L55.8816 85.5203L55.9728 85.5408C56.1465 85.8144 56.2793 86.1097 56.3686 86.4175" fill="#C3A994"/>
<path d="M53.0821 90.7922C52.9003 90.7922 52.7179 90.7773 52.5392 90.7488L52.4846 90.6737L52.5603 90.6191C52.7316 90.6464 52.9071 90.6601 53.0821 90.6601C54.8956 90.6601 56.3717 89.1847 56.3717 87.3711C56.3717 86.9604 56.2954 86.5571 56.1489 86.1799C56.2252 86.2562 56.2984 86.3356 56.3686 86.4175C56.4573 86.7252 56.5032 87.046 56.5032 87.3711C56.5032 89.2572 54.9682 90.7922 53.0821 90.7922" fill="#CBB19B"/>
<path d="M49.6909 86.9225C49.8144 85.9987 50.3138 85.1512 51.0788 84.5978L51.1713 84.6126L51.1564 84.7045C50.5006 85.1791 50.0477 85.8777 49.8733 86.6539C49.8094 86.7408 49.7486 86.8307 49.6909 86.9225Z" fill="#C3A994"/>
<path d="M50.5893 89.6829L50.5403 89.6605C49.9738 89.032 49.6611 88.2186 49.6611 87.3711C49.6611 87.2203 49.6717 87.0708 49.6909 86.9225C49.7486 86.8307 49.8094 86.7407 49.8733 86.6539C49.8206 86.8872 49.7933 87.1279 49.7933 87.3711C49.7933 88.1864 50.0936 88.9675 50.6389 89.5724L50.634 89.6655L50.5893 89.6829" fill="#CBB19B"/>
<path d="M50.9155 87.7539L50.8497 87.6974C50.8342 87.5901 50.8262 87.4803 50.8262 87.3711C50.8262 86.1271 51.8381 85.1152 53.0821 85.1152C53.195 85.1152 53.3073 85.1238 53.4171 85.14L53.473 85.2151L53.3979 85.2709C53.2943 85.2554 53.1882 85.2473 53.0821 85.2473C51.9113 85.2473 50.9583 86.2003 50.9583 87.3711C50.9583 87.4741 50.9658 87.5777 50.9807 87.6788L50.9242 87.7533L50.9155 87.7539" fill="#CBB19B"/>
<path d="M53.0823 89.6271C52.4526 89.6271 51.847 89.3609 51.4202 88.8968L51.4245 88.8031L51.5176 88.8075C51.919 89.2443 52.4892 89.4949 53.0823 89.4949C53.6693 89.4949 54.2351 89.2486 54.6359 88.8193L54.729 88.8162L54.7321 88.9092C54.3077 89.3653 53.7059 89.6271 53.0823 89.6271Z" fill="#CBB19B"/>
<path d="M55.2662 87.605L55.2612 87.6044L55.1998 87.5337L55.2066 87.3711C55.2066 86.5676 54.7611 85.8417 54.0439 85.4769L54.0154 85.3882L54.1035 85.3596C54.8654 85.7468 55.3382 86.518 55.3382 87.3711C55.3382 87.4294 55.3363 87.4865 55.3313 87.5436L55.2662 87.605" fill="#CBB19B"/>
<path d="M53.082 89.1214L53.0156 89.0556L53.082 88.9892C53.6547 88.9892 54.1727 88.6964 54.4687 88.2062L54.5593 88.1839L54.5816 88.2745C54.2615 88.805 53.7012 89.1214 53.082 89.1214Z" fill="#CBB19B"/>
<path d="M51.6267 86.5887L51.5931 86.58L51.5696 86.4894C51.8829 85.9534 52.4624 85.6208 53.0822 85.6208C53.55 85.6208 53.9893 85.8032 54.32 86.1333V86.2264H54.2269C53.921 85.9211 53.5146 85.753 53.0822 85.753C52.5089 85.753 51.9735 86.0607 51.6837 86.5565L51.6267 86.5887Z" fill="#CBB19B"/>
<path d="M136.359 40.5946C136.032 40.2689 135.505 40.2689 135.179 40.5946L132.78 42.9944L133.958 44.1739L136.359 41.774C136.684 41.4483 136.684 40.9203 136.359 40.5946" fill="#F0523A"/>
<path d="M135.77 46.3517C135.77 49.1858 133.473 51.4827 130.64 51.4827C127.806 51.4827 125.508 49.1858 125.508 46.3517C125.508 43.5181 127.806 41.2206 130.64 41.2206C133.473 41.2206 135.77 43.5181 135.77 46.3517Z" fill="#F0523A"/>
<path d="M125.909 45.5042C125.968 45.0221 126.115 44.5505 126.323 44.1063C126.535 43.6639 126.816 43.252 127.158 42.8933C127.843 42.1786 128.757 41.6841 129.735 41.4974C129.858 41.4781 129.981 41.4638 130.105 41.4471C130.228 41.4272 130.353 41.4328 130.476 41.4241C130.539 41.4223 130.6 41.4173 130.663 41.4186L130.849 41.4254C130.973 41.4266 131.097 41.4434 131.22 41.457C131.712 41.5191 132.196 41.6574 132.642 41.8715C133.088 42.0831 133.504 42.3598 133.86 42.6992C134.212 43.041 134.519 43.4275 134.747 43.8556C134.197 43.0578 133.432 42.4268 132.558 42.0589C131.686 41.6816 130.709 41.5929 129.783 41.7567C128.856 41.9292 127.988 42.3827 127.303 43.0379C126.624 43.7005 126.135 44.5598 125.909 45.5042" fill="#FAFDFE"/>
<path d="M134.786 46.3516C134.786 48.6417 132.929 50.498 130.64 50.498C128.349 50.498 126.493 48.6417 126.493 46.3516C126.493 44.0616 128.349 42.2053 130.64 42.2053C132.929 42.2053 134.786 44.0616 134.786 46.3516Z" fill="#8E5534"/>
<path d="M126.664 47.5292C127.171 49.2454 128.759 50.498 130.64 50.498C132.74 50.498 134.474 48.9364 134.747 46.9113C134.24 45.1952 132.653 43.9425 130.772 43.9425C128.671 43.9425 126.937 45.5041 126.664 47.5292Z" fill="#A06541"/>
<path d="M133.925 45.3974C133.855 45.3155 133.782 45.2361 133.706 45.1598C133.629 44.9625 133.533 44.7726 133.418 44.5921L133.44 44.5009L133.53 44.5213C133.704 44.7949 133.836 45.0897 133.925 45.3974Z" fill="#C3A994"/>
<path d="M130.64 49.7727C130.458 49.7727 130.275 49.7584 130.097 49.7299L130.042 49.6542L130.118 49.5996C130.289 49.6269 130.465 49.6405 130.64 49.6405C132.454 49.6405 133.929 48.1651 133.929 46.3516C133.929 45.9409 133.853 45.5376 133.706 45.1597C133.782 45.2361 133.855 45.3155 133.925 45.3974C134.015 45.7057 134.061 46.0265 134.061 46.3516C134.061 48.2377 132.526 49.7727 130.64 49.7727" fill="#CBB19B"/>
<path d="M127.249 45.9024C127.372 44.9786 127.872 44.1317 128.637 43.5783L128.729 43.5931L128.714 43.685C128.058 44.1602 127.605 44.8588 127.431 45.6344C127.367 45.7212 127.306 45.8106 127.249 45.9024" fill="#C3A994"/>
<path d="M128.146 48.6628L128.098 48.6417C127.531 48.0126 127.219 47.1992 127.219 46.3517C127.219 46.2009 127.229 46.0507 127.249 45.9025C127.306 45.8106 127.366 45.7213 127.43 45.6344C127.378 45.8677 127.35 46.1084 127.35 46.3517C127.35 47.1669 127.651 47.9487 128.195 48.553L128.191 48.6467L128.146 48.6628" fill="#CBB19B"/>
<path d="M128.473 46.735L128.407 46.6786C128.392 46.5706 128.384 46.4608 128.384 46.3516C128.384 45.1076 129.396 44.0963 130.64 44.0963C130.752 44.0963 130.865 44.1044 130.975 44.1211L131.03 44.1956L130.955 44.2514C130.852 44.2359 130.746 44.2278 130.64 44.2278C129.469 44.2278 128.516 45.1808 128.516 46.3516C128.516 46.4546 128.524 46.5582 128.538 46.6593L128.482 46.7344L128.473 46.735" fill="#CBB19B"/>
<path d="M130.64 48.6075C130.01 48.6075 129.404 48.3414 128.978 47.8767L128.982 47.7836L129.075 47.7879C129.476 48.2247 130.047 48.4754 130.64 48.4754C131.226 48.4754 131.793 48.2291 132.193 47.7997L132.286 47.7966L132.29 47.8897C131.864 48.3457 131.263 48.6075 130.64 48.6075Z" fill="#CBB19B"/>
<path d="M132.823 46.5849H132.819L132.758 46.5142L132.764 46.3516C132.764 45.5481 132.319 44.8222 131.602 44.458L131.573 44.3687L131.661 44.3401C132.423 44.7273 132.896 45.4979 132.896 46.3516C132.896 46.4099 132.894 46.467 132.889 46.5241L132.823 46.5849" fill="#CBB19B"/>
<path d="M130.64 48.1025L130.574 48.0361L130.64 47.9704C131.212 47.9704 131.731 47.6769 132.026 47.1868L132.117 47.1644L132.14 47.255C131.819 47.7855 131.259 48.1025 130.64 48.1025" fill="#CBB19B"/>
<path d="M129.184 45.5699L129.151 45.5606L129.127 45.47C129.44 44.9345 130.02 44.6014 130.64 44.6014C131.107 44.6014 131.547 44.7838 131.877 45.1138V45.2075H131.784C131.478 44.9017 131.072 44.7335 130.64 44.7335C130.066 44.7335 129.531 45.0413 129.241 45.537L129.184 45.5699" fill="#CBB19B"/>
<path d="M156.626 125.204C157.015 124.957 157.13 124.442 156.883 124.053L155.064 121.187L153.656 122.082L155.475 124.947C155.723 125.336 156.237 125.451 156.626 125.204" fill="#F0523A"/>
<path d="M157.53 118.13C157.53 120.964 155.233 123.26 152.399 123.26C149.565 123.26 147.268 120.964 147.268 118.13C147.268 115.296 149.565 112.999 152.399 112.999C155.233 112.999 157.53 115.296 157.53 118.13Z" fill="#F0523A"/>
<path d="M147.668 117.281C147.728 116.8 147.875 116.328 148.081 115.885C148.294 115.442 148.575 115.03 148.917 114.672C149.601 113.956 150.516 113.462 151.494 113.275C151.617 113.256 151.741 113.242 151.864 113.225C151.987 113.205 152.112 113.211 152.236 113.202C152.298 113.2 152.361 113.196 152.422 113.197L152.609 113.203C152.733 113.204 152.856 113.222 152.98 113.235C153.472 113.297 153.956 113.435 154.402 113.649C154.848 113.861 155.264 114.138 155.619 114.477C155.971 114.819 156.278 115.206 156.507 115.634C155.957 114.836 155.192 114.205 154.317 113.837C153.446 113.46 152.469 113.371 151.542 113.535C150.616 113.708 149.748 114.161 149.062 114.816C148.384 115.478 147.894 116.338 147.668 117.281" fill="#FAFDFE"/>
<path d="M156.545 118.13C156.545 120.419 154.69 122.276 152.399 122.276C150.11 122.276 148.253 120.419 148.253 118.13C148.253 115.839 150.11 113.984 152.399 113.984C154.69 113.984 156.545 115.839 156.545 118.13Z" fill="#8E5534"/>
<path d="M148.423 119.307C148.931 121.024 150.518 122.276 152.399 122.276C154.499 122.276 156.234 120.715 156.507 118.689C155.999 116.973 154.412 115.72 152.531 115.72C150.431 115.72 148.697 117.281 148.423 119.307Z" fill="#A06541"/>
<path d="M155.685 117.176C155.615 117.094 155.541 117.014 155.465 116.938C155.389 116.741 155.293 116.55 155.178 116.37L155.198 116.279L155.29 116.3C155.463 116.573 155.595 116.868 155.685 117.176" fill="#C3A994"/>
<path d="M152.399 121.55C152.217 121.55 152.035 121.536 151.856 121.508L151.802 121.433L151.877 121.377C152.049 121.405 152.224 121.419 152.399 121.419C154.213 121.419 155.688 119.943 155.688 118.13C155.688 117.719 155.612 117.315 155.465 116.938C155.542 117.014 155.615 117.094 155.685 117.176C155.774 117.483 155.82 117.805 155.82 118.13C155.82 120.016 154.285 121.55 152.399 121.55Z" fill="#CBB19B"/>
<path d="M149.008 117.681C149.131 116.757 149.63 115.91 150.396 115.357L150.488 115.371L150.474 115.463C149.817 115.938 149.364 116.636 149.19 117.411C149.126 117.499 149.065 117.589 149.008 117.681Z" fill="#C3A994"/>
<path d="M149.906 120.441L149.857 120.419C149.29 119.79 148.978 118.978 148.978 118.13C148.978 117.979 148.988 117.829 149.008 117.681C149.065 117.589 149.126 117.499 149.19 117.412C149.137 117.645 149.11 117.886 149.11 118.13C149.11 118.945 149.41 119.726 149.955 120.331L149.951 120.424L149.906 120.441Z" fill="#CBB19B"/>
<path d="M150.232 118.513L150.167 118.456C150.151 118.348 150.143 118.239 150.143 118.13C150.143 116.886 151.155 115.874 152.399 115.874C152.512 115.874 152.624 115.883 152.734 115.899L152.79 115.974L152.715 116.029C152.611 116.014 152.505 116.006 152.399 116.006C151.228 116.006 150.275 116.959 150.275 118.13C150.275 118.233 150.283 118.336 150.297 118.437L150.242 118.512L150.232 118.513" fill="#CBB19B"/>
<path d="M152.399 120.386C151.769 120.386 151.163 120.119 150.737 119.655L150.741 119.561L150.835 119.566C151.235 120.002 151.806 120.254 152.399 120.254C152.986 120.254 153.552 120.007 153.952 119.578L154.045 119.575L154.048 119.667C153.623 120.124 153.022 120.386 152.399 120.386" fill="#CBB19B"/>
<path d="M154.583 118.363H154.578L154.516 118.292L154.523 118.13C154.523 117.327 154.077 116.601 153.361 116.236L153.332 116.147L153.421 116.119C154.182 116.506 154.655 117.276 154.655 118.13C154.655 118.188 154.653 118.245 154.648 118.302L154.583 118.363" fill="#CBB19B"/>
<path d="M152.399 119.88L152.333 119.814L152.399 119.748C152.972 119.748 153.49 119.456 153.786 118.964L153.876 118.942L153.899 119.033C153.579 119.563 153.018 119.88 152.399 119.88" fill="#CBB19B"/>
<path d="M150.943 117.348L150.91 117.338L150.887 117.248C151.199 116.713 151.779 116.379 152.399 116.379C152.867 116.379 153.306 116.561 153.636 116.892V116.985H153.543C153.238 116.68 152.831 116.511 152.399 116.511C151.825 116.511 151.29 116.819 151 117.315L150.943 117.348Z" fill="#CBB19B"/>
<path d="M48.6516 136.695C48.5355 136.418 47.8475 136.307 47.1774 136.265C44.6274 131.536 38.1711 131.371 38.1711 131.371C38.1711 131.371 37.6555 133.397 40.4072 136.754C43.1594 140.112 43.1415 146.763 43.1415 146.763C43.1415 146.763 44.5896 145.988 46.0544 144.376C47.2779 143.031 48.4828 141.051 47.9703 138.442C48.3767 137.77 48.7769 136.991 48.6516 136.695" fill="#F9CBA6"/>
<path d="M110.857 141.079L110.211 138.755C110.048 138.167 109.478 137.788 108.872 137.865L100.816 138.894C100.091 138.986 99.6068 139.688 99.7775 140.398L100.379 142.905C100.528 143.525 101.125 143.928 101.754 143.833L109.855 142.622C110.585 142.514 111.054 141.791 110.857 141.079" fill="#FADDDF"/>
<path d="M125.484 131.839L127.367 133.346C127.844 133.728 128.529 133.701 128.974 133.285L134.905 127.736C135.439 127.237 135.421 126.384 134.867 125.908L132.912 124.226C132.429 123.811 131.709 123.834 131.252 124.279L125.393 130.002C124.865 130.518 124.908 131.378 125.484 131.839Z" fill="#FADDDF"/>
</svg>
