<svg width="200" height="200" viewBox="0 0 200 200" fill="none" xmlns="http://www.w3.org/2000/svg">
<path d="M53.418 144.223H50.1167V132.559H53.418V144.223" fill="white"/>
<path d="M60.4069 131.271H43.3866C41.6367 131.271 40.218 129.852 40.218 128.103C40.218 126.354 41.6367 124.935 43.3866 124.935H60.4069C62.1559 124.935 63.5746 126.354 63.5746 128.103C63.5746 129.852 62.1559 131.271 60.4069 131.271Z" fill="#252C37"/>
<path d="M54.8857 133.933H48.8472V129.79H54.8857V133.933Z" fill="#252C37"/>
<path d="M54.8857 160.468H48.8472V142.33H54.8857V160.468Z" fill="#252C37"/>
<path d="M68.5697 160.756H34.4651V158.232H68.5697V160.756Z" fill="#252C37"/>
<path d="M36.4654 166.078H34.4651V158.232H36.4654V166.078Z" fill="#252C37"/>
<path d="M38.4367 166.078C38.4367 167.808 37.0338 169.211 35.3023 169.211C33.5718 169.211 32.168 167.808 32.168 166.078C32.168 164.346 33.5718 162.943 35.3023 162.943C37.0338 162.943 38.4367 164.346 38.4367 166.078Z" fill="#252C37"/>
<path d="M68.5696 166.078H66.5693V158.232H68.5696V166.078Z" fill="#252C37"/>
<path d="M70.5409 166.078C70.5409 167.808 69.1371 169.211 67.4074 169.211C65.676 169.211 64.2722 167.808 64.2722 166.078C64.2722 164.346 65.676 162.943 67.4074 162.943C69.1371 162.943 70.5409 164.346 70.5409 166.078Z" fill="#252C37"/>
<path d="M72.983 128.54C60.0731 128.54 49.5693 118.036 49.5693 105.125V76.441C49.5693 74.8079 50.894 73.4841 52.5262 73.4841C54.1593 73.4841 55.4831 74.8079 55.4831 76.441V105.125C55.4831 114.776 63.334 122.626 72.983 122.626C74.617 122.626 75.9408 123.95 75.9408 125.583C75.9408 127.216 74.617 128.54 72.983 128.54Z" fill="#4F5761"/>
<path d="M52.5263 73.4841H20.9561L22.8755 96.6474L21.9549 114.07L37.7013 124.096L41.4137 128.54H72.9831L64.4031 123.1L58.0035 115.847L55.4437 114.283L53.3099 100.203L53.1684 83.2798L52.5263 73.4841Z" fill="#6E7D8E"/>
<path d="M41.4137 128.54C28.5029 128.54 18 118.036 18 105.125V76.441C18 74.8079 19.323 73.4841 20.956 73.4841C22.5891 73.4841 23.9129 74.8079 23.9129 76.441V105.125C23.9129 114.776 31.7629 122.626 41.4137 122.626C43.0459 122.626 44.3697 123.95 44.3697 125.583C44.3697 127.216 43.0459 128.54 41.4137 128.54Z" fill="#4F5761"/>
<path d="M92.2162 162.248L91.9667 145.298L83.363 144.841L83.6002 163.046L91.8982 163.099L92.2162 162.248" fill="#EBC4B2"/>
<path d="M82.3976 159.485C82.3976 159.485 89.5131 162.411 92.8539 157.798L107.501 166.696L80.1926 166.52L82.3976 159.485" fill="#1A1C21"/>
<path d="M107.484 169.211L80.175 169.035L80.1927 166.52L107.501 166.696L107.484 169.211" fill="white"/>
<path d="M92.6756 161.691C92.7529 161.659 92.8223 161.608 92.8759 161.539C93.9924 160.074 95.116 159.351 95.1265 159.344C95.3479 159.203 95.4076 158.918 95.26 158.707C95.1125 158.496 94.8094 158.445 94.5915 158.579C94.5397 158.612 93.3213 159.392 92.0941 160.999C91.9377 161.205 91.9851 161.491 92.2003 161.641C92.3435 161.739 92.5245 161.752 92.6756 161.691" fill="white"/>
<path d="M95.0263 162.866C95.1027 162.835 95.1721 162.784 95.2257 162.714C96.3431 161.25 97.4649 160.527 97.4763 160.52C97.6977 160.379 97.7574 160.095 97.6099 159.883C97.4632 159.673 97.1583 159.618 96.9422 159.756C96.8895 159.787 95.6711 160.568 94.4439 162.175C94.2875 162.38 94.3358 162.668 94.551 162.817C94.6934 162.915 94.8743 162.929 95.0263 162.866" fill="white"/>
<path d="M97.3761 164.041C97.4526 164.01 97.522 163.959 97.5747 163.889C98.693 162.426 99.8156 161.703 99.8271 161.695C100.048 161.554 100.108 161.27 99.9597 161.059C99.8121 160.848 99.5091 160.794 99.293 160.931C99.2402 160.963 98.0209 161.743 96.7937 163.35C96.6374 163.556 96.6857 163.843 96.9009 163.991C97.0441 164.09 97.2242 164.104 97.3761 164.041" fill="white"/>
<path d="M60.8066 105.906L64.8405 109.285C63.6634 116.499 59.7744 123.05 67.0841 123.05H80.0441V152.851L94.5871 153.046L95.3988 116.536C95.5077 110.73 90.8387 105.962 85.0312 105.949L60.8066 105.906" fill="#366CBD"/>
<path d="M79.1243 147.405H95.8537V153.046H79.1243V147.405Z" fill="#3D6EBF"/>
<path d="M68.9193 162.248L68.669 145.298L60.0662 144.841L60.3033 163.046L68.6004 163.099L68.9193 162.248" fill="#EBC4B2"/>
<path d="M59.1016 159.485C59.1016 159.485 66.2154 162.411 69.557 157.798L84.2045 166.696L56.8958 166.52L59.1016 159.485" fill="#1A1C21"/>
<path d="M84.186 169.211L56.8772 169.035L56.8956 166.52L84.2044 166.696L84.186 169.211Z" fill="white"/>
<path d="M69.3787 161.691C69.456 161.659 69.5254 161.608 69.5781 161.539C70.6964 160.074 71.8182 159.351 71.8296 159.344C72.051 159.203 72.1107 158.918 71.9622 158.707C71.8147 158.496 71.5125 158.445 71.2946 158.579C71.2428 158.612 70.0244 159.392 68.7971 160.999C68.6408 161.205 68.6891 161.491 68.9043 161.641C69.0466 161.739 69.2276 161.752 69.3787 161.691" fill="white"/>
<path d="M71.7294 162.866C71.8058 162.835 71.8752 162.784 71.9288 162.714C73.0462 161.25 74.1689 160.527 74.1803 160.52C74.4017 160.379 74.4606 160.095 74.313 159.883C74.1654 159.673 73.8606 159.618 73.6445 159.756C73.5935 159.787 72.3742 160.568 71.147 162.175C70.9906 162.38 71.0381 162.668 71.2542 162.817C71.3974 162.915 71.5783 162.929 71.7294 162.866" fill="white"/>
<path d="M74.0784 164.041C74.1557 164.01 74.2251 163.959 74.2787 163.889C75.3961 162.426 76.5188 161.703 76.5293 161.695C76.7507 161.554 76.8113 161.27 76.6628 161.059C76.5161 160.848 76.2122 160.794 75.9952 160.931C75.9425 160.963 74.7249 161.743 73.4968 163.35C73.3405 163.556 73.3879 163.843 73.604 163.991C73.7463 164.09 73.9282 164.104 74.0784 164.041" fill="white"/>
<path d="M42.503 105.906L41.9522 109.285C40.7751 116.499 46.3437 123.05 53.6525 123.05H57.1567V152.851L71.6988 153.046L72.5105 116.536C72.6194 110.73 67.9504 105.962 62.1429 105.949L42.503 105.906" fill="#3D6EBF"/>
<path d="M56.2351 147.405H72.9654V153.046H56.2351V147.405Z" fill="#3FA2E0"/>
<path d="M78.6773 93.0834L98.2715 97.2087L99.3291 101.139L73.6701 101.503L71.6145 90.8469L78.6773 93.0834Z" fill="#EBC4B2"/>
<path d="M95.297 96.9777C95.297 96.9777 99.3028 94.5461 103.274 95.5616C105.891 96.231 108.485 98.7478 108.285 101.442L92.3445 101.238L95.297 96.9777" fill="#EBC4B2"/>
<path d="M79.7981 78.9191L82.0593 95.6943C82.0593 95.6943 72.2653 100.848 72.4717 100.229C72.6781 99.6096 70.2747 78.9191 70.2747 78.9191H79.7981" fill="#EBC4B2"/>
<path d="M71.0496 65.0394C71.0496 65.0394 78.238 66.1708 79.8781 72.306C82.0145 80.3009 82.828 81.4535 82.828 81.4535L71.9579 83.0347L71.0496 65.0394Z" fill="#E82F5A"/>
<path d="M57.2322 63.0031L71.0496 65.0394C72.4507 65.2467 73.4926 66.4414 73.5066 67.8575L73.8352 100.636L43.0081 100.728L40.9165 72.133L42.0629 68.2572C42.5988 66.4449 44.1282 65.1009 45.994 64.8013L57.2322 63.0031" fill="#E82F5A"/>
<path d="M48.1839 81.341L42.4124 96.2626L33.5083 88.5137L36.9633 77.7771L48.1839 81.341Z" fill="#EBC4B2"/>
<path d="M53.8027 64.1601C53.8027 64.1601 43.0731 64.0652 40.4061 67.2329C37.0478 71.2238 33.0613 81.4236 33.0613 81.4236L50.5102 85.2687L53.8027 64.1601" fill="#E82F5A"/>
<path d="M43.4077 93.7722L63.543 98.2567L62.7146 102.716L38.9214 102.875C38.9214 102.875 28.2797 100.728 33.5083 88.5137L43.4077 93.7722" fill="#EBC4B2"/>
<path d="M63.543 98.2567C63.543 98.2567 68.2753 96.4049 72.1932 97.1367C74.8541 97.6339 76.64 100.172 76.4388 102.871V102.875L60.6248 102.73L63.543 98.2564" fill="#EBB4B2"/>
<path d="M43.4079 93.7722L38.4358 93.0835" stroke="#E06773" stroke-width="0.176389" stroke-miterlimit="10"/>
<path d="M66.4595 38.5985C66.4595 38.5985 71.9376 43.7472 66.5412 45.613L66.4595 38.5985" fill="#1A1C21"/>
<path d="M63.1934 47.7697C63.1363 49.8595 64.7325 51.6059 66.7564 51.6692C68.7813 51.7333 70.468 50.0906 70.525 48.0007C70.5812 45.9108 68.9869 44.1645 66.962 44.1012C64.9371 44.0371 63.2496 45.6789 63.1934 47.7697Z" fill="#326FBF"/>
<path d="M62.1982 55.8419L62.4854 63.1428C62.5917 65.7061 61.1176 67.1336 58.672 67.2048C56.5848 67.2663 54.2542 66.3439 54.2568 64.081L54.3403 52.5731L62.1981 55.8419" fill="#EBC4B2"/>
<path d="M62.4054 60.6962C62.4054 60.6962 56.4784 61.4315 54.3692 54.8088C53.7042 52.7224 62.1831 55.0934 62.1831 55.0934L62.4054 60.6962" fill="#1A1C21"/>
<path d="M60.0916 58.0547C64.2608 57.9001 67.5664 54.3713 67.5498 50.8513L67.4751 43.488C67.4532 39.0755 64.0464 35.4668 59.7753 35.3324C55.4032 35.1944 50.9925 38.7188 50.8704 43.2333L50.9986 48.9705C51.1075 54.1359 55.0887 57.8966 60.0916 58.0547" fill="#EBC4B2"/>
<path d="M63.1679 48.8572L63.3655 50.2741L62.3359 50.355" stroke="#1A1C21" stroke-width="0.185758" stroke-miterlimit="10" stroke-linecap="round" stroke-linejoin="round"/>
<path d="M58.5385 44.5554C58.5385 44.5554 60.2401 44.3419 60.2866 45.0588C60.2866 45.0588 60.305 45.5454 58.8187 45.7009C57.3332 45.8572 56.9414 45.7606 56.7868 45.3091C56.6322 44.8585 57.7382 44.5923 58.5385 44.5554Z" fill="#1A1C21"/>
<path d="M65.4283 44.3164C65.4283 44.3164 64.0122 44.2233 63.9243 44.9015C63.9243 44.9015 63.8751 45.3609 65.1138 45.4145C66.3524 45.4681 66.7477 45.2898 66.8487 44.9164C66.9647 44.4939 66.0977 44.3006 65.4283 44.3164" fill="#1A1C21"/>
<path d="M64.5418 47.3463C64.545 47.7556 64.8694 48.085 65.2656 48.0824C65.6618 48.0797 65.9807 47.7468 65.9772 47.3375C65.974 46.9281 65.6495 46.5987 65.2533 46.6013C64.8563 46.6041 64.5383 46.9369 64.5418 47.3463Z" fill="#1A1C21"/>
<path d="M58.2539 47.3831C58.2572 47.7925 58.5807 48.1219 58.9769 48.1193C59.3731 48.1165 59.6911 47.7828 59.6885 47.3743C59.6852 46.965 59.3608 46.6356 58.9646 46.6382C58.5684 46.6409 58.2504 46.9747 58.2539 47.3831Z" fill="#1A1C21"/>
<path d="M61.564 52.8419L63.4746 52.5731" stroke="#1A1C21" stroke-width="0.185758" stroke-miterlimit="10" stroke-linecap="round" stroke-linejoin="round"/>
<path d="M71.8543 36.123L68.6909 35.675C69.6142 35.0873 70.541 34.5031 70.541 34.5031C70.541 34.5031 68.3817 33.7582 65.5091 33.7634C63.6363 32.7514 61.2363 32.0601 58.7274 32.0302C55.0545 31.9854 51.9184 33.976 50.7852 36.1678L50.7825 36.1633C50.7825 36.1633 47.7342 35.9771 47.3161 39.4277C46.7732 43.8999 52.1555 51.2869 52.1555 51.2869L52.7599 45.4443C56.0972 45.2053 56.2509 42.2625 55.99 40.343C57.4913 40.4704 62.669 40.8113 66.7178 39.9091C67.157 39.8581 67.7579 39.7413 68.2621 39.4813C70.1737 38.8242 71.6003 37.7744 71.8542 36.1229" fill="#1A1C21"/>
<path d="M47.1606 48.9749C47.1158 50.6475 48.3913 52.0443 50.0112 52.0952C51.6302 52.1462 52.9795 50.832 53.0252 49.1603C53.07 47.4886 51.7936 46.0918 50.1746 46.0409C48.5556 45.9899 47.2062 47.3041 47.1606 48.9749" fill="#F89F85"/>
<path d="M51.0743 49.8262C51.0743 49.8262 51.1331 47.6318 49.0916 47.9129" stroke="#2C2024" stroke-width="0.196685" stroke-miterlimit="10" stroke-linecap="round" stroke-linejoin="round"/>
<path d="M61.4733 31.9187L61.5638 32.3421C61.5638 32.3421 56.2676 32.899 53.8527 36.1195C51.1611 39.7089 51.1189 44.5492 51.1189 44.5492L49.9734 44.6458L50.0498 36.9716L52.3444 34.5787L56.0032 32.3895L58.5639 31.5708L61.4734 31.9187" fill="#326FBF"/>
<path d="M54.3079 47.3419C54.8543 49.8639 53.2265 52.357 50.0271 53.051C47.7651 53.5412 46.6617 51.6402 46.1144 49.1181C45.568 46.596 46.9578 44.1539 49.2207 43.6638C51.4827 43.1727 53.7606 44.8198 54.3079 47.3419Z" fill="#326FBF"/>
<path d="M53.1332 47.5957C53.6805 50.1187 52.2899 52.5599 50.027 53.051C47.7649 53.5412 45.4888 51.8949 44.9406 49.3729C44.3934 46.8508 45.784 44.4087 48.0469 43.9185C50.3089 43.4274 52.5868 45.0737 53.1332 47.5957" fill="#3D6EBF"/>
<path d="M48.3281 44.4544C48.3281 44.4544 47.8898 41.6512 48.5583 38.5853C49.4034 34.7078 52.5052 31.9398 56.4109 31.2282C56.7096 31.1746 57.0232 31.1245 57.3535 31.0797C58.4902 30.9278 59.7183 30.9603 60.7452 31.468C61.007 31.598 61.2582 31.7474 61.4735 31.9187C61.4735 31.9187 56.3274 32.1322 53.851 34.8844C51.0601 37.9862 50.3275 42.1528 50.5014 44.9252L48.3281 44.4544" fill="#3D6EBF"/>
<path d="M51.4265 63.9325L57.2323 63.0031L64.9531 64.1407C64.9531 64.1407 65.4275 68.6455 58.8996 68.8352C52.3709 69.0258 51.4265 63.9325 51.4265 63.9325" fill="#EBC4B2"/>
<path d="M86.5139 86.2833L89.2547 88.2519L108.7 71.8387L156.05 45.6982L153.493 43.842L121.011 53.8223L86.5139 86.2833Z" fill="#BE879E"/>
<path d="M93.2291 45.3565L85.5206 83.6549C85.1912 85.295 86.4439 86.8253 88.1165 86.8253H143.606C144.855 86.8253 145.933 85.953 146.194 84.7319L154.393 46.4326C154.745 44.7846 153.49 43.2315 151.804 43.2315H95.8241C94.5644 43.2315 93.4777 44.1205 93.2291 45.3565" fill="#BE879E"/>
<path d="M95.7317 47.1627L88.0223 85.4619C87.6929 87.1002 88.9464 88.6314 90.619 88.6314H146.108C147.356 88.6314 148.436 87.7591 148.697 86.538L156.896 48.2388C157.248 46.5908 155.992 45.0377 154.306 45.0377H98.3267C97.0661 45.0377 95.9803 45.9267 95.7317 47.1627" fill="#E3B3BF"/>
<path d="M115.932 78.5045L114.896 88.6314H119.399L115.932 78.5045Z" fill="#BE879E"/>
<path d="M115.932 78.2954L120.527 100.973H137.279L129.422 78.2954H115.932" fill="#F3C6D2"/>
<path d="M128.446 60.8526C128.446 62.9056 126.781 64.5703 124.729 64.5703C122.676 64.5703 121.011 62.9056 121.011 60.8526C121.011 58.7997 122.676 57.135 124.729 57.135C126.781 57.135 128.446 58.7997 128.446 60.8526Z" fill="white"/>
<path d="M147.188 98.862H107.7C107.095 98.862 106.604 99.3531 106.604 99.9575C106.604 100.563 107.095 101.054 107.7 101.054H147.188C147.792 101.054 148.283 100.563 148.283 99.9575C148.283 99.3531 147.792 98.862 147.188 98.862Z" fill="#E3B3BF"/>
<path d="M97.9596 98.862H77.0452C76.4408 98.862 75.9497 99.3531 75.9497 99.9575C75.9497 100.563 76.4408 101.054 77.0452 101.054H97.9596C98.564 101.054 99.0551 100.563 99.0551 99.9575C99.0551 99.3531 98.564 98.862 97.9596 98.862Z" fill="#E3B3BF"/>
<path d="M72.1133 104.543V169.211" stroke="#4C2F31" stroke-width="0.409482" stroke-miterlimit="10"/>
<path d="M31.1252 104.543V169.211" stroke="#4C2F31" stroke-width="0.409482" stroke-miterlimit="10"/>
<path d="M171.583 104.543V169.211" stroke="#4C2F31" stroke-width="0.409482" stroke-miterlimit="10"/>
<path d="M130.595 104.543V169.211" stroke="#4C2F31" stroke-width="0.409482" stroke-miterlimit="10"/>
<path d="M60.3727 106.173H21.5947V100.973H60.3727V106.173Z" fill="#E3B3BF"/>
<path d="M182.124 106.173H60.2981V100.973H182.124V106.173Z" fill="#FFDEDE"/>
</svg>
