<?xml version="1.0" encoding="UTF-8"?>
<svg width="289" height="290" viewBox="0 0 154 154" fill="none" xmlns="http://www.w3.org/2000/svg">
    <path d="M104.784 153.898L81.391 96.9756L153.95 0L104.784 153.898Z" fill="#333" />
    <path d="M153.95 1.52588e-05L57.1023 72.687L0 49.1658L153.95 1.52588e-05Z" fill="#303030" />
    <path d="M153.95 7.62939e-06L80.6784 73.272L57.1024 72.687L153.95 7.62939e-06Z" fill="#333" />
    <path d="M81.391 96.9756L80.6783 73.2719L153.95 -1.52588e-05L81.391 96.9756Z" fill="#303030" />
    <path d="M65.1306 105.474C65.1563 105.411 65.1811 105.347 65.206 105.284C65.8715 103.598 66.1105 101.915 66.0548 100.29C57.7276 107.172 48.8651 111.572 41.2214 112.867C42.5156 105.224 46.9156 96.3623 53.7961 88.0351C52.1653 87.9786 50.4762 88.2201 48.7854 88.8882C48.7092 88.9182 48.6329 88.949 48.5567 88.979C43.0398 91.1957 37.7995 94.5927 33.2436 99.1486C23.4544 108.938 19.0192 121.89 20.1344 133.954C32.197 135.068 45.1494 130.633 54.9387 120.844C59.51 116.272 62.9139 111.012 65.1306 105.474Z" fill="#333" />
</svg>