<?xml version="1.0" encoding="UTF-8"?>
<svg width="289" height="290" viewBox="0 0 289 290" fill="none" xmlns="http://www.w3.org/2000/svg">
    <path d="M196.72 289.434L152.858 182.704L288.907 0.874939L196.72 289.434Z" fill="#303030" />
    <path d="M288.907 0.875015L107.317 137.163L0.25 93.0608L288.907 0.875015Z" fill="#2E2E2E" />
    <path d="M288.907 0.875015L151.522 138.26L107.317 137.163L288.907 0.875015Z" fill="#303030" />
    <path d="M152.858 182.704L151.522 138.26L288.907 0.874985L152.858 182.704Z" fill="#2E2E2E" />
    <path d="M122.37 198.639C122.418 198.52 122.465 198.401 122.511 198.282C123.759 195.122 124.207 191.966 124.103 188.918C108.489 201.822 91.872 210.072 77.5401 212.5C79.9668 198.17 88.2168 181.554 101.118 165.941C98.0599 165.835 94.8929 166.288 91.7227 167.54C91.5798 167.597 91.4368 167.654 91.2939 167.711C80.9497 171.867 71.1242 178.236 62.5819 186.779C44.227 205.134 35.9111 229.419 38.0021 252.038C60.6194 254.128 84.9052 245.812 103.26 227.457C111.831 218.886 118.214 209.022 122.37 198.639Z" fill="#303030" />
</svg>