<?xml version="1.0" standalone="no"?>
<!DOCTYPE svg PUBLIC "-//W3C//DTD SVG 20010904//EN"
 "http://www.w3.org/TR/2001/REC-SVG-20010904/DTD/svg10.dtd">
<svg version="1.0" xmlns="http://www.w3.org/2000/svg"
 width="700.000000pt" height="700.000000pt" viewBox="0 0 700.000000 700.000000"
 preserveAspectRatio="xMidYMid meet">
<metadata>
Created by potrace 1.11, written by Peter Selinger 2001-2013
</metadata>
<g transform="translate(0.000000,700.000000) scale(0.100000,-0.100000)"
fill="#000000" stroke="none">
<path d="M3175 6720 c-405 -45 -764 -150 -1119 -327 -722 -360 -1278 -969
-1571 -1722 -100 -255 -167 -529 -200 -816 -19 -165 -22 -508 -6 -670 68 -660
316 -1253 738 -1761 104 -126 340 -358 463 -456 612 -484 1346 -729 2115 -705
718 22 1380 266 1940 714 127 101 350 320 452 443 632 760 883 1758 687 2727
-108 533 -359 1046 -714 1457 -454 526 -1034 880 -1705 1041 -258 62 -387 77
-710 80 -159 2 -326 0 -370 -5z m1883 -1682 c-11 -51 -1133 -3548 -1138 -3548
-4 0 -128 294 -276 653 l-268 652 -9 275 c-5 151 -11 277 -13 280 -3 2 -126 7
-274 11 l-268 7 -665 273 c-366 151 -664 275 -662 277 4 4 3557 1141 3569
1141 4 1 6 -9 4 -21z m-2392 -2115 c-81 -108 -155 -250 -195 -369 -38 -112
-39 -128 -8 -119 175 49 317 117 462 220 49 35 91 62 93 60 10 -10 -22 -115
-59 -188 -106 -214 -270 -376 -484 -482 -154 -76 -231 -96 -397 -102 l-138 -6
0 71 c0 282 115 548 326 754 38 37 85 79 104 93 100 75 268 154 327 155 l33 0
-64 -87z"/>
</g>
</svg>
