<svg height="100" viewBox="0 0 648 100" width="648" xmlns="http://www.w3.org/2000/svg" xmlns:xlink="http://www.w3.org/1999/xlink"><linearGradient id="a" x1="50%" x2="50%" y1="0%" y2="100%"><stop offset="0" stop-color="#004654"/><stop offset="1" stop-color="#007c8d"/></linearGradient><g fill="none"><g transform="matrix(1 0 0 -1 0 100)"><path d="m17.2305492 82.6980707c-18.07822941-18.0782293-18.07822941-47.3892921 0-65.4675215 18.0782294-18.07822941 47.3892922-18.07822941 65.4675215 0 18.0782293 18.0782294 18.0782293 47.3892922 0 65.4675215s-47.3892921 18.0782293-65.4675215 0" fill="url(#a)"/><g fill="#fff"><path d="m14.6175585 85.3110614c-19.49007801-19.4903635-19.49007801-51.2031393 0-70.6935029 19.4903636-19.49007801 51.2031394-19.49007801 70.6935029 0 19.4900776 19.4903636 19.4900776 51.2031394 0 70.6935029-19.4903635 19.4900776-51.2031393 19.4900776-70.6935029 0zm2.6129907-2.6129907c18.0782294 18.0782293 47.3892922 18.0782293 65.4675215 0s18.0782293-47.3892921 0-65.4675215c-18.0782293-18.07822941-47.3892921-18.07822941-65.4675215 0-18.07822941 18.0782294-18.07822941 47.3892922 0 65.4675215z"/><g transform="translate(21.006709 21.044111)"><path d="m21.7102065 16.1413272c.0085653.0211278.0168451.0422556.0251249.0633833.2218415.5618844.3014989 1.1229122.2829407 1.6648108-2.7757315-2.2940756-5.7299071-3.7607422-8.2778014-4.1924338.4314062 2.5476087 1.8980728 5.5014987 4.1915774 8.2772303-.5436117.0188437-1.1066381-.0616702-1.6702355-.2843683-.0254104-.0099929-.0508209-.0202712-.0762313-.0302641-1.8389721-.7389008-3.5857244-1.8712348-5.1043539-3.3898643-3.26309769-3.2630977-4.74147024-7.5805851-4.36973578-11.60171277 4.02084218-.37144896 8.33832958 1.1069236 11.60142728 4.37002127 1.5237687 1.5237687 2.6583868 3.2773733 3.3972876 5.1231976"/><path d="m34.9279078 0-7.797573 18.9741608 24.1864377 32.3251955z"/><path d="m51.3167725 51.2993563-32.2826545-24.2289787-19.034118 7.8403995z" fill-opacity=".8"/><path d="m51.3167725 51.2993563-24.4239823-24.4239822-7.8586722.1950035z"/><path d="m27.1303348 18.9741608-.2375446 7.9012133 24.4239823 24.4239822z" fill-opacity=".8"/></g></g></g><g fill="#004654" stroke="#fff"><path d="m153.490093 74.8088601h-23.490093v-48.8088601h22.876418c9.682419 0 15.512326 4.6339666 15.512326 12.1768466 0 5.479581-4.159349 9.842951-9.614233 10.5870916v.2705966c6.64814.3044212 11.898465 5.2089844 11.898465 11.7033026 0 8.5576171-6.648139 14.0710227-17.182883 14.0710227zm-10.977954-40.0144709v11.0944602h6.443582c4.534372 0 7.261814-2.1309481 7.261814-5.6487038 0-3.416282-2.454698-5.4457564-6.64814-5.4457564zm0 31.2200817h7.432279c5.148047 0 8.011861-2.2324219 8.011861-6.3590199 0-3.9912997-2.932-6.2237216-8.080047-6.2237216h-7.364093zm50.491767 9.6738281c-11.693907 0-18.989813-7.0355114-18.989813-19.3138317 0-12.0415483 7.466372-19.2800071 18.989813-19.2800071 11.591628 0 18.989814 7.2046343 18.989814 19.2800071 0 12.3121449-7.295907 19.3138317-18.989814 19.3138317zm0-8.7943892c4.125256 0 6.750419-3.7545277 6.750419-10.4856179 0-6.6296165-2.625163-10.5194425-6.750419-10.5194425-4.091162 0-6.716325 3.889826-6.716325 10.5194425 0 6.7310902 2.556976 10.4856179 6.716325 10.4856179zm41.525302 8.7943892c-11.693907 0-18.989814-7.0355114-18.989814-19.3138317 0-12.0415483 7.466372-19.2800071 18.989814-19.2800071 11.591628 0 18.989814 7.2046343 18.989814 19.2800071 0 12.3121449-7.295907 19.3138317-18.989814 19.3138317zm0-8.7943892c4.125256 0 6.750419-3.7545277 6.750419-10.4856179 0-6.6296165-2.625163-10.5194425-6.750419-10.5194425-4.091163 0-6.716325 3.889826-6.716325 10.5194425 0 6.7310902 2.556976 10.4856179 6.716325 10.4856179zm23.046884-17.7579013c0-7.3737571 6.341302-12.0415483 16.501023-12.0415483 10.227906 0 16.364651 4.9383878 16.569209 12.5150924h-11.04614c-.238651-2.6044922-2.181953-4.4310192-5.523069-4.4310192-2.932 0-4.909396 1.2853338-4.909396 3.2809836 0 1.589755 1.090977 2.6044922 4.636651 3.3148083l6.545861 1.2853338c7.909581 1.5221058 11.318883 4.5663175 11.318883 10.079723 0 7.6443537-6.954976 12.5489169-17.14879 12.5489169-11.046139 0-17.182884-4.9383878-17.830651-12.3459695h11.728c.511395 2.7397905 2.59107 4.2618964 6.102651 4.2618964 3.204744 0 5.182139-1.2176847 5.182139-3.1456854 0-1.6574041-1.193255-2.5368431-4.568465-3.2133345l-6.511767-1.2853338c-7.295907-1.4206321-11.046139-5.2089844-11.046139-10.8238637zm41.388929-19.4153054h12.103023v8.253196h6.682233v8.8282138h-6.682233v15.4578303c0 2.536843 1.363721 3.8221768 4.261628 3.8221768.954605 0 1.670558-.0338245 2.386512-.1691228v8.5237926c-1.159163.236772-2.932.4397194-5.284419.4397194-9.648325 0-13.466744-2.9427379-13.466744-10.1811967v-17.8931996h-5.045767v-8.8282138h5.045767zm49.980372 45.088157h-11.864372v-48.8088601h9.989256l20.86493 28.3788175h.272744v-28.3788175h11.864372v48.8088601h-9.886977l-20.967209-28.6494141h-.272744zm55.60572.8794389c-11.693907 0-18.989814-7.0355114-18.989814-19.3138317 0-12.0415483 7.466372-19.2800071 18.989814-19.2800071 11.591628 0 18.989814 7.2046343 18.989814 19.2800071 0 12.3121449-7.295907 19.3138317-18.989814 19.3138317zm0-8.7943892c4.125256 0 6.750419-3.7545277 6.750419-10.4856179 0-6.6296165-2.625163-10.5194425-6.750419-10.5194425-4.091163 0-6.716325 3.889826-6.716325 10.5194425 0 6.7310902 2.556976 10.4856179 6.716325 10.4856179zm26.694837-37.1732067h12.103023v8.253196h6.682233v8.8282138h-6.682233v15.4578303c0 2.536843 1.363721 3.8221768 4.261628 3.8221768.954605 0 1.670558-.0338245 2.386512-.1691228v8.5237926c-1.159163.236772-2.932.4397194-5.284419.4397194-9.648325 0-13.466744-2.9427379-13.466744-10.1811967v-17.8931996h-5.045767v-8.8282138h5.045767zm48.309813 33.4525036h10.909768c-1.159163 7.6105291-7.977768 12.5150923-17.694279 12.5150923-11.830279 0-18.887535-7.2046342-18.887535-19.1108842s7.125442-19.4829546 18.478419-19.4829546c11.182511 0 18.307953 7.2722834 18.307953 18.5358665v3.3824574h-25.058372v.7441406c0 4.3971946 2.966093 7.4414063 7.33 7.4414063 3.238837 0 5.761721-1.5221059 6.614046-4.0251243zm-6.989069-17.5549539c-3.71614 0-6.477675 2.7397905-6.784512 6.5619674h13.500837c-.204558-3.9236506-2.897907-6.5619674-6.716325-6.5619674z" stroke-width="2"/><path d="m525.604344 59.737593c2.410042 0 4.384736.7986054 5.761342 2.2076952 1.348607 1.3804301 2.141762 3.3671021 2.141762 5.8606618 0 2.5269735-.783756 4.5177228-2.124664 5.8951912-1.370748 1.4081231-3.344543 2.1988588-5.77844 2.1988588-2.432197 0-4.405149-.7929788-5.775871-2.2010745-1.342768-1.3793802-2.127232-3.3713714-2.127232-5.8929755 0-2.4881809.793887-4.476128 2.14438-5.8584883 1.376567-1.4090502 3.350386-2.2098687 5.758723-2.2098687zm0 4.6647734c-.641874 0-1.172984.2722249-1.540203.7836537-.440812.6139244-.659098 1.5138141-.659098 2.6327764 0 1.1312083.211834 2.033227.651175 2.6451023.365465.5089869.898695.7713277 1.548126.7713277.643907 0 1.173216-.2631716 1.53655-.7713522.437651-.6121259.649564-1.5140111.649564-2.6450778 0-1.1209386-.216087-2.022209-.65538-2.6366318-.36402-.5091402-.891222-.7797983-1.530734-.7797983zm52.601242-4.6647734c2.331071 0 4.219114.7890402 5.536112 2.142455 1.252498 1.2871323 2.003044 3.1038098 2.071684 5.3206189l.005159.3355062v2.0433401h-9.648941c.101236.4286523.281643.7937572.542305 1.0786229.40724.4450549 1.000995.6670161 1.704697.6670161.51751 0 .97909-.1137968 1.342223-.3348697.441198-.2685979.726366-.6986932.728379-1.2469797l-.006567-.1524306h5.282222c.021579 2.0588176-.916642 3.7831342-2.533784 4.9138046-1.253692.8765533-2.928735 1.3953232-4.878416 1.3953232-2.454444 0-4.401296-.7909416-5.748666-2.1679987-1.347229-1.3769141-2.114871-3.3642743-2.114871-5.8489722 0-2.4685128.768895-4.4874843 2.095886-5.8975721 1.337548-1.4213051 3.255413-2.247864 5.622578-2.247864zm.039565 4.5748478c-.58172 0-1.086616.2055327-1.456342.567237-.174079.170302-.317455.3728462-.427483.6003087h3.747874l-.082647-.1709955c-.089427-.1656075-.199129-.3147024-.328568-.4441478-.359583-.3595984-.86409-.5524024-1.452834-.5524024zm61.437549-4.5748478c2.030274 0 3.663815.5276786 4.816139 1.4012423 1.492282 1.1312824 2.227001 2.8443327 1.990528 4.9078854l-3.725367-.0007207.193666.0514966c1.082206.3029661 1.901357.7003309 2.500864 1.1879431l.158088.1352195c.867505.7808313 1.283382 1.7811403 1.283382 3.0830595 0 1.644971-.757777 3.0180784-2.078816 3.9783633-1.221514.8879395-2.953081 1.417918-5.006599 1.417918-2.141547 0-3.826951-.5031474-5.029962-1.3446358-1.59987-1.1190849-2.400979-2.837251-2.294317-4.9387989l4.345694-.0005653-.096384-.0275491c-.998561-.3053493-1.794011-.7296648-2.395203-1.2527002l-.174539-.159852c-.862202-.8317685-1.308819-1.8955005-1.308819-3.1961827 0-1.6132398.712623-2.9514289 1.984157-3.8837978 1.157445-.8487118 2.811361-1.3583252 4.837488-1.3583252zm-1.6827 10.154407.001698.0581211c.024724.5355385.17101.9641961.525897 1.2118503.315014.2198293.75115.3044925 1.28699.3044925.514233 0 .941882-.0765311 1.233834-.2602605-.084917-.6690531-.44269-.7759724-.946197-.8883742zm1.6827-5.7208709c-.451824 0-.838891.0757222-1.104817.2561182.132607.7181437.50535.8354768 1.023976.9430608l1.571141.3256919.012133-.0816941c.046886-.4212172-.047038-.7998587-.301389-1.0550782l-.090752-.0803911c-.27042-.2113052-.651589-.3077075-1.110292-.3077075zm-43.468581-4.4335361c2.047226 0 3.724133.5404166 4.899016 1.4428419 1.198222.9203519 1.906893 2.2163506 1.981936 3.7779082l.006636.2783033v10.3678837h-5.519162l-.000545-.8205301-.190037.1215669c-.903178.548138-1.966522.8692892-3.050695.9123713l-.2505.0049827c-1.602785 0-3.001711-.5273473-3.999385-1.4071131-1.018039-.8977238-1.635293-2.1640094-1.635293-3.6680052 0-1.5553279.620294-2.778765 1.773334-3.6514207.589366-.4460495 1.333183-.7994551 2.225525-1.0439899l.022051-.006392-3.36397.0007207c-.193218-1.9602702.515426-3.627516 1.954377-4.7662059l.200731-.1519776c1.194934-.8655629 2.872007-1.3909442 4.945981-1.3909442zm1.302483 9.8721705-2.026397.1222739-.20588.0192842c-.400878.0471247-.734656.1469586-.968603.3241989-.152153.1152723-.234962.2732293-.234962.4667378 0 .2089897.083979.3818474.239159.5009399.249374.1913816.614588.2691074 1.036947.2691074.622415 0 1.196663-.188746 1.606915-.5315177.334798-.2797289.552821-.6673969.552821-1.1710244zm-1.473933-5.2716296c-.491399 0-.903124.0971732-1.20472.3006731-.329342.2222222-.496399.578681-.453744 1.005957l.010795.072236.040911-.0037083.367927-.0262653 2.712764-.1565877c0-.3982868-.098069-.678763-.317024-.8659726-.274015-.2342871-.680496-.3263322-1.156909-.3263322zm-83.461598-9.2381339c.776496 0 1.653263.0865506 2.142054.1845745.194922.0390903.446069.103654.723035.1861453v4.2580057l-1.064181-.1974448c-.233316-.0432887-.555713-.0619771-.877712-.0619771-.344109 0-.6196.0254938-.791511.1686783l2.68065.4593136v4.5620013h-2.716835v10.9452333h-5.651047v-10.9452333h-1.925524v-4.5620013h1.925524c0-1.8432707.478112-3.0428269 1.419028-3.8425073.868653-.7382639 2.193756-1.1547882 4.136519-1.1547882zm32.16602 4.7146721c.552227 0 1.022488.0825858 1.347088.1774404.184071.0537894.405488.136125.647559.2515575v5.2504458l-1.238462-.5026442c-.239891-.0973628-.641706-.1523236-1.059521-.1523236-.662651 0-1.207715.1648044-1.572812.5375918-.371126.3789427-.53417.9443446-.53417 1.6327261v8.5950642h-5.651048v-15.5714672h5.519162l-.000887.5629371.05093-.0363908c.632507-.4407292 1.380119-.6957831 2.233111-.7385141zm26.280915-4.5476673v4.9987829h-5.5128v15.3387424h-5.782933v-15.3387424h-5.499612v-4.9987829zm52.901397 4.5091277c1.65506 0 3.02603.5727821 3.991007 1.5368374.963919.9629977 1.538163 2.3315222 1.538163 3.9879091v10.3036511h-5.651048v-9.3658553c0-.515502-.092804-.9383851-.352243-1.2156458-.240813-.257355-.610131-.3508857-1.055747-.3508857-.452094 0-.837772.1432097-1.103632.4246944-.284932.3016769-.423056.7390046-.423056 1.2446092v9.2630832h-5.505973v-9.481474c0-.4591304-.101368-.8438838-.350574-1.100658-.241279-.248608-.602912-.3502548-1.03104-.3502548-.45409 0-.843309.1533387-1.113784.442296-.29245.3124342-.439281.7622021-.439281 1.2783937v9.2116971h-5.651047v-15.5714672h5.519162l-.00031.7809371.0086-.0055555.212684-.1500674c.837567-.5595874 1.855171-.8822446 2.993844-.8822446 1.234295 0 2.274041.3262854 3.08214.9054546.37243.2669233.698334.5884159.971411.9621617.33272-.3754171.717668-.7018342 1.146031-.9726191.902875-.5707426 2.001823-.8949972 3.214693-.8949972z" stroke-width="1.8"/></g></g></svg>