<?xml version="1.0" encoding="UTF-8"?>
<svg width="128px" height="89px" viewBox="0 0 128 89" version="1.1" xmlns="http://www.w3.org/2000/svg" xmlns:xlink="http://www.w3.org/1999/xlink">
    <title>Artboard</title>
    <g id="Artboard" stroke="none" stroke-width="1" fill="none" fill-rule="evenodd">
        <g id="undraw_learning_2q1h">
            <ellipse id="Oval" fill="#3F3D56" fill-rule="nonzero" cx="54" cy="80.5" rx="54" ry="2.5"></ellipse>
            <ellipse id="Oval" fill="#3F3D56" fill-rule="nonzero" cx="107" cy="85" rx="21" ry="1"></ellipse>
            <ellipse id="Oval" fill="#3F3D56" fill-rule="nonzero" cx="47" cy="88" rx="21" ry="1"></ellipse>
            <path d="M98,56 L99.9053775,54.7678824 L103.854409,50.0389662 C104.088921,49.7581371 104.034323,49.3536187 103.732461,49.1354457 L103.732461,49.1354457 C103.430596,48.9172755 102.995777,48.9680685 102.761261,49.2488953 L98.8122299,53.9778116 L98,56 Z" id="Path" fill="#2F2E41" fill-rule="nonzero"></path>
            <path d="M116.111424,8.5564219 C116.111424,8.5564219 113.703559,6.45728775 110.465397,10.4133475 C107.227234,14.3694073 102.162417,16.3070687 101,17.8410511 C101,17.8410511 105.815727,15.9033874 107.476324,15.0960306 C109.13692,14.2886738 109.053886,14.4501431 109.053886,14.4501431 C109.053886,14.4501431 106.812086,15.984129 106.396936,17.5181079 C105.981787,19.0520868 106.313907,20.3438642 105.566638,21.8778466 C104.81937,23.4118291 119.847758,22.9274131 119.847758,22.9274131 C119.847758,22.9274131 121.342295,20.4246 120.927145,17.8410511 C120.511995,15.2575022 120.761092,8.87936508 116.111424,8.5564219 Z" id="Path" fill="#2F2E41" fill-rule="nonzero"></path>
            <path d="M111.566042,14 C111.566042,14 112.133769,18.0833327 109.700657,19 C107.267545,19.916666 108.159689,21.1666667 108.159689,21.1666667 L111.809357,23 L115.70234,21.7500005 L117,19.7499983 C117,19.7499983 114.891302,19.249999 115.459032,17.7499962 C116.026762,16.2499934 116.188966,15.7499941 116.188966,15.7499941 L111.566042,14 Z" id="Path" fill="#FFB9B9" fill-rule="nonzero"></path>
            <path d="M111.566042,14 C111.566042,14 112.133769,18.0833327 109.700657,19 C107.267545,19.916666 108.159689,21.1666667 108.159689,21.1666667 L111.809357,23 L115.70234,21.7500005 L117,19.7499983 C117,19.7499983 114.891302,19.249999 115.459032,17.7499962 C116.026762,16.2499934 116.188966,15.7499941 116.188966,15.7499941 L111.566042,14 Z" id="Path" fill="#000000" fill-rule="nonzero" opacity="0.1"></path>
            <path d="M121.986374,26 C121.986374,26 121.476507,33.5188834 121.622178,33.8457921 C121.767849,34.1727008 121.622178,45.532751 121.622178,45.532751 C121.622178,45.532751 122.641913,51.6622763 121.330824,51.9891838 C120.019735,52.3160913 120.311089,45.1241166 120.311089,45.1241166 L119,35.6437858 L119.145676,26.2451771 L121.986374,26 Z" id="Path" fill="#FFB9B9" fill-rule="nonzero"></path>
            <path d="M121.986374,26 C121.986374,26 121.476507,33.5188834 121.622178,33.8457921 C121.767849,34.1727008 121.622178,45.532751 121.622178,45.532751 C121.622178,45.532751 122.641913,51.6622763 121.330824,51.9891838 C120.019735,52.3160913 120.311089,45.1241166 120.311089,45.1241166 L119,35.6437858 L119.145676,26.2451771 L121.986374,26 Z" id="Path" fill="#000000" fill-rule="nonzero" opacity="0.1"></path>
            <path d="M105.690445,48 C105.690445,48 102.917854,58.1522838 103.001872,63.1065985 C103.085889,68.0609132 104.178123,74.9644672 104.178123,74.9644672 C104.178123,74.9644672 104.346159,77.9695425 104.094104,78.2944163 C103.84205,78.6192901 105.354373,80 105.354373,80 L106.95071,79.1065991 L107.538835,78.4568527 L107.538835,77.888322 C107.538835,77.888322 106.614638,75.1269011 107.370799,72.9340074 C108.126961,70.7411136 108.547051,65.2182718 107.790894,63.5126881 L113,48.5685259 L105.690445,48 Z" id="Path" fill="#FFB9B9" fill-rule="nonzero"></path>
            <path d="M105.111896,79.9065629 C105.111896,79.9065629 104.175213,78.6753774 103.550758,79.0857721 C102.926303,79.4961669 101.911564,82.2868561 101.911564,82.2868561 C101.911564,82.2868561 98.3990058,85.8162547 100.896825,85.9804138 C103.394645,86.1445729 104.48744,85.241702 104.799669,84.5850704 C105.111897,83.9284387 108,82.2047771 108,82.2047771 C108,82.2047771 107.687772,79.0857721 107.219431,79.0036932 C106.751091,78.9216142 106.048578,80.2348787 106.048578,80.2348787 L105.111896,79.9065629 Z" id="Path" fill="#2F2E41" fill-rule="nonzero"></path>
            <path d="M115.087378,49.4637671 L115.087378,59.6473424 C115.096398,60.8829936 115.174203,62.117012 115.320388,63.3429943 C115.553397,65.1497587 114,78.6183584 114,78.6183584 L114.15534,81 L116.097087,80.835749 L116.330096,78.7826093 L119.126213,69.7487933 C119.126213,69.7487933 120.058252,64.2463771 119.592233,62.1932374 C119.126214,60.1400977 122,47 122,47 L115.087378,49.4637671 Z" id="Path" fill="#FFB9B9" fill-rule="nonzero"></path>
            <path d="M113.159219,79.9161709 L113.713346,79.7875421 C113.713346,79.7875421 114.13187,78.7977658 114.655605,79.0374247 C115.024158,79.2189169 115.373315,79.4422949 115.697028,79.7036883 L115.927534,80.1558206 C115.927534,80.1558206 116.451268,81.3541105 117.124642,82.1529708 C117.798015,82.9518311 118.546205,84.7093247 117.423919,84.8690966 C116.301634,85.0288684 114.805244,85.1087543 114.356329,84.7093247 C113.907413,84.3098951 114.206689,83.6708055 113.757774,83.5110337 C113.308859,83.3512618 112.934762,82.8719452 113.009581,82.7121734 C113.0844,82.5524015 113.159219,79.9161709 113.159219,79.9161709 Z" id="Path" fill="#2F2E41" fill-rule="nonzero"></path>
            <circle id="Oval" fill="#FFB9B9" fill-rule="nonzero" cx="115" cy="14" r="4"></circle>
            <path d="M108,20.3730684 L109.023954,20 C109.023954,20 108.620154,20.6966607 110.790697,21.1011583 C112.96124,21.5056558 115.209087,21.6488543 116.216946,20.323326 C116.216946,20.323326 116.604652,20.1303769 117.147287,20.6966665 C117.689922,21.2629561 118,21.1011641 118,21.1011641 L117.612404,23.2045247 L116.83721,27.0876548 L115.829458,30 L112.96124,29.352812 L109.860465,27.0067564 L108.697675,23.8517021 L108.697675,20.9393581 L108,20.3730684 Z" id="Path" fill="#F9A826" fill-rule="nonzero"></path>
            <path d="M117.201836,21.2478493 L118.027524,20.6611156 C118.027524,20.6611156 120.834863,21.1640292 121,22.5051344 L118.853212,26.6960869 C119.29107,27.8622225 119.261429,29.1560925 118.770642,30.3003044 C117.944954,32.2281422 118.027524,32.647238 118.027524,32.647238 L117.449542,35.1618095 L106.963307,36 C106.963307,36 106.550458,34.9941717 106.385325,34.8265326 C106.220192,34.6588935 106.220188,34.072161 106.385325,34.072161 C106.550462,34.072161 106.385325,33.8207042 106.220188,33.5692475 C106.05505,33.3177907 105.97248,33.2339705 106.220188,32.8986948 C106.467895,32.5634191 105.807338,29.5459329 105.807338,29.5459329 L105.807338,26.2769874 L103,22.5051308 C103,22.5051308 103.990825,20.9963877 104.486238,20.8287498 C104.981652,20.661112 107.338305,20 107.338305,20 L107.871559,20.7970656 L108.614677,26.8637163 L109.688072,30.551754 L114.207604,29.7722194 L115.963302,26.7798974 L117.119265,23.2594975 L117.201836,21.2478493 Z" id="Path" fill="#F9A826" fill-rule="nonzero"></path>
            <path d="M120.955955,22 L121.581159,22.4963333 C121.581159,22.4963333 122.128212,27.1287722 121.971916,27.4596615 C121.81562,27.7905508 119.080348,28.1214388 119.002198,27.9559936 C118.924048,27.7905484 120.955955,22 120.955955,22 Z" id="Path" fill="#F9A826" fill-rule="nonzero"></path>
            <path d="M103.013627,27 C103.013627,27 103.523495,34.5188834 103.377823,34.8457921 C103.232151,35.1727008 103.377823,46.5327522 103.377823,46.5327522 C103.377823,46.5327522 102.358087,52.6622763 103.669176,52.9891838 C104.980265,53.3160913 104.688911,46.1241166 104.688911,46.1241166 L106,36.6437858 L105.854324,27.2451771 L103.013627,27 Z" id="Path" fill="#FFB9B9" fill-rule="nonzero"></path>
            <path d="M107.151192,19.3242685 L107.947586,24.6747636 C107.947586,24.6747636 107.230831,32.6194395 107.390111,34.2408018 L107.549389,34.7272098 C107.549389,34.7272098 107.230831,34.5650738 107.151187,34.8893458 C107.071543,35.2136178 107.151187,36.2675042 107.151187,36.2675042 C107.151187,36.2675042 106.673351,36.7539134 106.514071,39.4291609 C106.354792,42.1044085 104.443448,48.50879 105.160202,48.7519987 C105.876957,48.9952073 110.177485,50.211225 112.487028,49.968021 C114.796571,49.724817 123.079069,46.8874323 122.99943,46.1578191 C122.91979,45.4282059 118.93782,35.1325557 118.93782,35.1325557 C118.93782,35.1325557 118.221065,33.9165333 118.221065,33.7543973 C118.221065,33.5922613 119.176738,32.9437161 118.93782,32.295171 C118.698902,31.6466258 117.424674,24.8369043 117.424674,24.8369043 L118.300708,19.9728172 L117.106116,19.6485452 L116.230083,24.3504963 C116.230083,24.3504963 112.80559,26.0529267 109.221816,24.5126323 L108.425421,19 L107.151192,19.3242685 Z" id="Path" fill="#2F2E41" fill-rule="nonzero"></path>
            <path d="M104.49422,22 L103.886758,22.2556518 C103.886758,22.2556518 102.747766,27.6243472 103.051498,27.6243472 C103.355229,27.6243472 107,28.135652 107,27.9652175 C107,27.794783 106.316605,23.6191306 106.316605,23.6191306 L104.49422,22 Z" id="Path" fill="#F9A826" fill-rule="nonzero"></path>
            <path d="M111,9.85327326 C111,9.85327326 117.017563,14.5791097 118.643931,12.4478505 C120.2703,10.3165912 115.797787,8.46332333 115.797787,8.46332333 L112.057139,8 L111,9.85327326 Z" id="Path" fill="#2F2E41" fill-rule="nonzero"></path>
            <path d="M17,0 L17,80 L86,80 L86,0 L17,0 Z M20.6815835,73.3727811 C20.0256859,73.3727811 19.4939759,72.8429405 19.4939759,72.1893491 C19.4939759,71.5357577 20.0256859,71.0059172 20.6815835,71.0059172 C21.337481,71.0059172 21.869191,71.5357577 21.869191,72.1893491 C21.869191,72.8429405 21.337481,73.3727811 20.6815835,73.3727811 L20.6815835,73.3727811 Z M20.6815835,67.5739645 C20.0256859,67.5739645 19.4939759,67.044124 19.4939759,66.3905325 C19.4939759,65.7369411 20.0256859,65.2071006 20.6815835,65.2071006 C21.337481,65.2071006 21.869191,65.7369411 21.869191,66.3905325 C21.869191,67.044124 21.337481,67.5739645 20.6815835,67.5739645 Z M20.6815835,61.8934911 C20.0256859,61.8934911 19.4939759,61.3636506 19.4939759,60.7100592 C19.4939759,60.0564678 20.0256859,59.5266272 20.6815835,59.5266272 C21.337481,59.5266272 21.869191,60.0564678 21.869191,60.7100592 C21.869191,61.3636506 21.337481,61.8934911 20.6815835,61.8934911 Z M20.6815835,56.0946746 C20.0256859,56.0946746 19.4939759,55.564834 19.4939759,54.9112426 C19.4939759,54.2576512 20.0256859,53.7278107 20.6815835,53.7278107 C21.337481,53.7278107 21.869191,54.2576512 21.869191,54.9112426 C21.869191,55.564834 21.337481,56.0946746 20.6815835,56.0946746 Z M20.6815835,50.295858 C20.0256859,50.295858 19.4939759,49.7660175 19.4939759,49.112426 C19.4939759,48.4588346 20.0256859,47.9289941 20.6815835,47.9289941 C21.337481,47.9289941 21.869191,48.4588346 21.869191,49.112426 C21.869191,49.7660175 21.337481,50.295858 20.6815835,50.295858 L20.6815835,50.295858 Z M20.6815835,44.6153846 C20.0256859,44.6153846 19.4939759,44.0855441 19.4939759,43.4319527 C19.4939759,42.7783612 20.0256859,42.2485207 20.6815835,42.2485207 C21.337481,42.2485207 21.869191,42.7783612 21.869191,43.4319527 C21.869191,44.0855441 21.337481,44.6153846 20.6815835,44.6153846 Z M20.6815835,38.816568 C20.0256859,38.816568 19.4939759,38.2867275 19.4939759,37.6331361 C19.4939759,36.9795447 20.0256859,36.4497041 20.6815835,36.4497041 C21.337481,36.4497041 21.869191,36.9795447 21.869191,37.6331361 C21.869191,38.2867275 21.337481,38.816568 20.6815835,38.816568 Z M20.6815835,33.0177515 C20.0256859,33.0177515 19.4939759,32.4879109 19.4939759,31.8343195 C19.4939759,31.1807281 20.0256859,30.6508876 20.6815835,30.6508876 C21.337481,30.6508876 21.869191,31.1807281 21.869191,31.8343195 C21.869191,32.4879109 21.337481,33.0177515 20.6815835,33.0177515 L20.6815835,33.0177515 Z M20.6815835,27.3372781 C20.0256859,27.3372781 19.4939759,26.8074376 19.4939759,26.1538462 C19.4939759,25.5002547 20.0256859,24.9704142 20.6815835,24.9704142 C21.337481,24.9704142 21.869191,25.5002547 21.869191,26.1538462 C21.869191,26.8074376 21.337481,27.3372781 20.6815835,27.3372781 Z M20.6815835,21.5384615 C20.0256859,21.5384615 19.4939759,21.008621 19.4939759,20.3550296 C19.4939759,19.7014382 20.0256859,19.1715976 20.6815835,19.1715976 C21.337481,19.1715976 21.869191,19.7014382 21.869191,20.3550296 C21.869191,21.008621 21.337481,21.5384615 20.6815835,21.5384615 Z M20.6815835,15.739645 C20.0256859,15.739645 19.4939759,15.2098044 19.4939759,14.556213 C19.4939759,13.9026216 20.0256859,13.3727811 20.6815835,13.3727811 C21.337481,13.3727811 21.869191,13.9026216 21.869191,14.556213 C21.869191,15.2098044 21.337481,15.739645 20.6815835,15.739645 L20.6815835,15.739645 Z M20.6815835,10.1775148 C20.0256859,10.1775148 19.4939759,9.64767426 19.4939759,8.99408284 C19.4939759,8.34049142 20.0256859,7.81065089 20.6815835,7.81065089 C21.337481,7.81065089 21.869191,8.34049142 21.869191,8.99408284 C21.869191,9.64767426 21.337481,10.1775148 20.6815835,10.1775148 Z" id="Shape" fill="#F2F2F2" fill-rule="nonzero"></path>
            <polygon id="Path" fill="#3F3D56" fill-rule="nonzero" opacity="0.3" points="86 6.07550296 86 5.83881657 25.1655146 5.83881657 25.1655146 0 24.9279931 0 24.9279931 5.83881657 17 5.83881657 17 6.07550296 24.9279931 6.07550296 24.9279931 11.5976331 17 11.5976331 17 11.8343195 24.9279931 11.8343195 24.9279931 17.3564497 17 17.3564497 17 17.5931361 24.9279931 17.5931361 24.9279931 23.1151479 17 23.1151479 17 23.3518343 24.9279931 23.3518343 24.9279931 28.8738462 17 28.8738462 17 29.1105325 24.9279931 29.1105325 24.9279931 34.6326627 17 34.6326627 17 34.8693491 24.9279931 34.8693491 24.9279931 40.3913609 17 40.3913609 17 40.6280473 24.9279931 40.6280473 24.9279931 46.1501775 17 46.1501775 17 46.3868639 24.9279931 46.3868639 24.9279931 51.9088757 17 51.9088757 17 52.1455621 24.9279931 52.1455621 24.9279931 57.667574 17 57.667574 17 57.9042604 24.9279931 57.9042604 24.9279931 63.4263905 17 63.4263905 17 63.6630769 24.9279931 63.6630769 24.9279931 69.1850888 17 69.1850888 17 69.4217751 24.9279931 69.4217751 24.9279931 74.943787 17 74.943787 17 75.1804734 24.9279931 75.1804734 24.9279931 80 25.1655146 80 25.1655146 75.1804734 86 75.1804734 86 74.943787 25.1655146 74.943787 25.1655146 69.4217751 86 69.4217751 86 69.1850888 25.1655146 69.1850888 25.1655146 63.6630769 86 63.6630769 86 63.4263905 25.1655146 63.4263905 25.1655146 57.9042604 86 57.9042604 86 57.667574 25.1655146 57.667574 25.1655146 52.1455621 86 52.1455621 86 51.9088757 25.1655146 51.9088757 25.1655146 46.3868639 86 46.3868639 86 46.1501775 25.1655146 46.1501775 25.1655146 40.6280473 86 40.6280473 86 40.3913609 25.1655146 40.3913609 25.1655146 34.8693491 86 34.8693491 86 34.6326627 25.1655146 34.6326627 25.1655146 29.1105325 86 29.1105325 86 28.8738462 25.1655146 28.8738462 25.1655146 23.3518343 86 23.3518343 86 23.1151479 25.1655146 23.1151479 25.1655146 17.5931361 86 17.5931361 86 17.3564497 25.1655146 17.3564497 25.1655146 11.8343195 86 11.8343195 86 11.5976331 25.1655146 11.5976331 25.1655146 6.07550296"></polygon>
            <path d="M31.6281323,21.0687679 C30.955703,21.5198585 30.2332495,21.9120485 29.4713901,22.2395738 C28.979032,22.4511979 28.4327472,22.6395674 27.8927242,22.5508095 C27.3527011,22.4620517 26.8678189,21.9841124 27.0327218,21.5300014 C27.1491173,21.2601956 27.4227097,21.064558 27.7506398,21.01664 C28.0748246,20.9734116 28.4065299,21.0148629 28.7033809,21.1356987 C29.2469431,21.337373 29.7005655,21.6859588 29.9964668,22.1293696 C30.147355,22.356937 30.2656091,22.6178908 30.5161522,22.7654729 C30.7180473,22.8647767 30.9441382,22.9214427 31.1760656,22.9308693 C31.7218595,22.9899577 32.2819331,23.0484571 32.8166316,22.9367107 C33.3513301,22.8249642 33.8636086,22.5045731 34,22.0430794" id="Path" stroke="#3F3D56" stroke-width="2"></path>
            <path d="M36.0586187,18 C36.0947371,19.6667136 36.0751975,21.3333802 36,23 L36.9911164,22.7765462 C37.3564449,22.6941797 37.7720814,22.5683575 37.9371761,22.170845 C38.0910978,21.8002349 37.944609,21.3323971 37.6883519,21.0538628 C37.4320948,20.7753285 37.0906332,20.6424037 36.7603238,20.5169765 L36.2192553,20.3115204" id="Path" stroke="#3F3D56" stroke-width="2"></path>
            <path d="M42.5111588,20.0757631 C42.0715936,20.0171064 41.6231335,19.9609797 41.1863257,20.0363494 C40.7495178,20.1117192 40.318554,20.34067 40.117168,20.7213756 C39.7451915,21.4245717 40.3150977,22.2905205 41.0373149,22.6637182 C41.6384801,22.9719016 42.3312353,23.0723032 43,22.9481717" id="Path" stroke="#3F3D56" stroke-width="2"></path>
            <path d="M32.6249098,14.1770406 C31.5416358,15.2743198 30.4583627,15.2743198 29.3750903,14.1770406 C28.486926,13.2588148 27.9895248,11.9866829 28.0001673,10.6605969 L28.0001673,0 L33.9998327,0 L33.9998327,10.6606018 C34.010474,11.9866861 33.5130729,13.258816 32.6249098,14.1770406 L32.6249098,14.1770406 Z" id="Path" fill="#F9A826" fill-rule="nonzero"></path>
            <path d="M68,50.9600432 C68,60.6254387 62.1802117,64 55,64 C54.8336861,64 54.6673723,63.9976377 54.5022549,63.9940942 C54.1696272,63.9870073 53.8393925,63.9716594 53.5139439,63.9492103 C47.0336861,63.4968278 42,59.9486366 42,50.9600432 C42,41.6596247 54.0392085,29.9224825 54.9461574,29.0519708 C54.9461508,29.0516556 54.9462747,29.0513514 54.9465006,29.0511285 C54.9467264,29.0509055 54.9470346,29.0507832 54.9473539,29.0507897 C54.9820525,29.0165362 55,29 55,29 C55,29 68,41.2958277 68,50.9600432 Z" id="Path" fill="#F9A826" fill-rule="nonzero"></path>
            <path d="M54.2735753,62.5268505 L59.0725716,55.9679684 L54.2614993,63.247477 L54.2494233,64 C53.9137109,63.9929119 53.5804138,63.9775613 53.251947,63.9551085 L53.7687991,54.2845378 L53.7651763,54.208931 L53.7736295,54.1959361 L53.8231411,53.2815675 L49,45.9843386 L53.8376322,52.5963817 L53.8497082,52.7901239 L54.2397625,45.4834442 L50.1109833,37.9428562 L54.2904817,44.2016741 L54.6974424,29.0519796 L54.6986499,29 L54.6986499,29.0507983 L54.6310244,40.9966585 L58.7416896,36.2606069 L54.6141108,42.0256244 L54.5054269,48.5679676 L58.3443825,42.2890666 L54.4897282,49.5307718 L54.4293482,53.1681633 L60,44.4284943 L54.4076115,54.4369325 L54.2735753,62.5268505 Z" id="Path" fill="#3F3D56" fill-rule="nonzero"></path>
        </g>
    </g>
</svg>